<svg width="213" height="17" viewBox="0 0 213 17" fill="none" xmlns="http://www.w3.org/2000/svg">
<path d="M1.432 16C1.05067 16 0.75 15.8973 0.53 15.692C0.324667 15.472 0.222 15.1787 0.222 14.812C0.222 14.4307 0.324667 14.1447 0.53 13.954C0.75 13.7633 1.05067 13.668 1.432 13.668H3.896V2.866H5.26L2.026 4.824C1.74733 4.98533 1.48333 5.05133 1.234 5.022C0.999334 4.978 0.794 4.87533 0.618 4.714C0.456667 4.538 0.346667 4.33267 0.288 4.098C0.229333 3.86333 0.244 3.62867 0.332 3.394C0.434667 3.14467 0.625333 2.93933 0.904 2.778L3.94 0.952C4.23333 0.775999 4.52667 0.629332 4.82 0.511999C5.11333 0.379999 5.38467 0.313999 5.634 0.313999C5.942 0.313999 6.19867 0.401999 6.404 0.577999C6.60933 0.739332 6.712 1.01067 6.712 1.392V13.668H8.956C9.33733 13.668 9.63067 13.7633 9.836 13.954C10.056 14.1447 10.166 14.4307 10.166 14.812C10.166 15.1933 10.056 15.4867 9.836 15.692C9.63067 15.8973 9.33733 16 8.956 16H1.432ZM20.2661 16.176C19.8114 16.176 19.4594 16.0513 19.2101 15.802C18.9754 15.538 18.8581 15.1787 18.8581 14.724V1.92C18.8581 1.45067 18.9827 1.09867 19.2321 0.863999C19.4814 0.614666 19.8334 0.489999 20.2881 0.489999H25.5901C27.2914 0.489999 28.6041 0.900666 29.5281 1.722C30.4521 2.52867 30.9141 3.66533 30.9141 5.132C30.9141 6.08533 30.7014 6.90667 30.2761 7.596C29.8654 8.28533 29.2641 8.81333 28.4721 9.18C27.6801 9.54667 26.7194 9.73 25.5901 9.73L25.7881 9.4H26.5141C27.1154 9.4 27.6361 9.54667 28.0761 9.84C28.5307 10.1333 28.9267 10.5953 29.2641 11.226L30.9141 14.284C31.0901 14.592 31.1707 14.8927 31.1561 15.186C31.1414 15.4793 31.0314 15.7213 30.8261 15.912C30.6207 16.088 30.3201 16.176 29.9241 16.176C29.5281 16.176 29.2054 16.0953 28.9561 15.934C28.7067 15.758 28.4867 15.494 28.2961 15.142L26.0741 11.05C25.8101 10.5513 25.4947 10.2213 25.1281 10.06C24.7761 9.884 24.3214 9.796 23.7641 9.796H21.6741V14.724C21.6741 15.1787 21.5567 15.538 21.3221 15.802C21.0874 16.0513 20.7354 16.176 20.2661 16.176ZM21.6741 7.706H25.1061C26.1181 7.706 26.8807 7.50067 27.3941 7.09C27.9221 6.66467 28.1861 6.034 28.1861 5.198C28.1861 4.37667 27.9221 3.76067 27.3941 3.35C26.8807 2.92467 26.1181 2.712 25.1061 2.712H21.6741V7.706ZM38.6988 16.22C37.4815 16.22 36.4328 15.9927 35.5528 15.538C34.6728 15.0833 33.9908 14.438 33.5068 13.602C33.0375 12.766 32.8028 11.776 32.8028 10.632C32.8028 9.51733 33.0301 8.542 33.4848 7.706C33.9541 6.87 34.5921 6.21733 35.3988 5.748C36.2201 5.264 37.1515 5.022 38.1928 5.022C38.9555 5.022 39.6375 5.14667 40.2388 5.396C40.8548 5.64533 41.3755 6.00467 41.8008 6.474C42.2408 6.94333 42.5708 7.51533 42.7908 8.19C43.0255 8.85 43.1428 9.598 43.1428 10.434C43.1428 10.698 43.0475 10.9033 42.8568 11.05C42.6808 11.182 42.4241 11.248 42.0868 11.248H35.0248V9.664H41.2068L40.8548 9.994C40.8548 9.31933 40.7521 8.75467 40.5468 8.3C40.3561 7.84533 40.0701 7.50067 39.6888 7.266C39.3221 7.01667 38.8601 6.892 38.3028 6.892C37.6868 6.892 37.1588 7.03867 36.7188 7.332C36.2935 7.61067 35.9635 8.014 35.7288 8.542C35.5088 9.05533 35.3988 9.67133 35.3988 10.39V10.544C35.3988 11.7467 35.6775 12.6487 36.2348 13.25C36.8068 13.8367 37.6428 14.13 38.7428 14.13C39.1241 14.13 39.5495 14.086 40.0188 13.998C40.5028 13.8953 40.9575 13.7267 41.3828 13.492C41.6908 13.316 41.9621 13.2427 42.1968 13.272C42.4315 13.2867 42.6148 13.3673 42.7468 13.514C42.8935 13.6607 42.9815 13.844 43.0108 14.064C43.0401 14.2693 42.9961 14.482 42.8788 14.702C42.7761 14.922 42.5928 15.1127 42.3288 15.274C41.8155 15.5967 41.2215 15.8387 40.5468 16C39.8868 16.1467 39.2708 16.22 38.6988 16.22ZM47.3897 16.176C46.9497 16.176 46.605 16.0587 46.3557 15.824C46.121 15.5747 46.0037 15.2227 46.0037 14.768V7.31H44.9917C44.6397 7.31 44.3683 7.222 44.1777 7.046C43.987 6.85533 43.8917 6.59867 43.8917 6.276C43.8917 5.93867 43.987 5.682 44.1777 5.506C44.3683 5.33 44.6397 5.242 44.9917 5.242H46.7957L46.0037 5.968V5.22C46.0037 3.70933 46.385 2.58 47.1477 1.832C47.9103 1.06933 49.0103 0.621999 50.4477 0.489999L51.1957 0.424C51.489 0.394666 51.7237 0.445999 51.8997 0.577999C52.0757 0.695333 52.193 0.856666 52.2517 1.062C52.3103 1.25267 52.3177 1.45067 52.2737 1.656C52.2297 1.86133 52.1343 2.04467 51.9877 2.206C51.8557 2.35267 51.6797 2.43333 51.4597 2.448L51.1517 2.47C50.3157 2.52867 49.707 2.74133 49.3257 3.108C48.9443 3.47467 48.7537 4.032 48.7537 4.78V5.594L48.4017 5.242H50.6237C50.9757 5.242 51.247 5.33 51.4377 5.506C51.6283 5.682 51.7237 5.93867 51.7237 6.276C51.7237 6.59867 51.6283 6.85533 51.4377 7.046C51.247 7.222 50.9757 7.31 50.6237 7.31H48.7537V14.768C48.7537 15.7067 48.299 16.176 47.3897 16.176ZM58.314 16.22C57.0967 16.22 56.048 15.9927 55.168 15.538C54.288 15.0833 53.606 14.438 53.122 13.602C52.6527 12.766 52.418 11.776 52.418 10.632C52.418 9.51733 52.6454 8.542 53.1 7.706C53.5694 6.87 54.2074 6.21733 55.014 5.748C55.8354 5.264 56.7667 5.022 57.808 5.022C58.5707 5.022 59.2527 5.14667 59.854 5.396C60.47 5.64533 60.9907 6.00467 61.416 6.474C61.856 6.94333 62.186 7.51533 62.406 8.19C62.6407 8.85 62.758 9.598 62.758 10.434C62.758 10.698 62.6627 10.9033 62.472 11.05C62.296 11.182 62.0394 11.248 61.702 11.248H54.64V9.664H60.822L60.47 9.994C60.47 9.31933 60.3674 8.75467 60.162 8.3C59.9714 7.84533 59.6854 7.50067 59.304 7.266C58.9374 7.01667 58.4754 6.892 57.918 6.892C57.302 6.892 56.774 7.03867 56.334 7.332C55.9087 7.61067 55.5787 8.014 55.344 8.542C55.124 9.05533 55.014 9.67133 55.014 10.39V10.544C55.014 11.7467 55.2927 12.6487 55.85 13.25C56.422 13.8367 57.258 14.13 58.358 14.13C58.7394 14.13 59.1647 14.086 59.634 13.998C60.118 13.8953 60.5727 13.7267 60.998 13.492C61.306 13.316 61.5774 13.2427 61.812 13.272C62.0467 13.2867 62.23 13.3673 62.362 13.514C62.5087 13.6607 62.5967 13.844 62.626 14.064C62.6554 14.2693 62.6114 14.482 62.494 14.702C62.3914 14.922 62.208 15.1127 61.944 15.274C61.4307 15.5967 60.8367 15.8387 60.162 16C59.502 16.1467 58.886 16.22 58.314 16.22ZM66.3439 16.176C65.8892 16.176 65.5372 16.0587 65.2879 15.824C65.0532 15.5747 64.9359 15.2227 64.9359 14.768V6.452C64.9359 5.99733 65.0532 5.65267 65.2879 5.418C65.5225 5.18333 65.8525 5.066 66.2779 5.066C66.7032 5.066 67.0332 5.18333 67.2679 5.418C67.5025 5.65267 67.6199 5.99733 67.6199 6.452V7.838H67.3999C67.6052 6.958 68.0085 6.29067 68.6099 5.836C69.2112 5.38133 70.0105 5.11 71.0079 5.022C71.3159 4.99267 71.5579 5.07333 71.7339 5.264C71.9245 5.44 72.0345 5.71867 72.0639 6.1C72.0932 6.46667 72.0052 6.76733 71.7999 7.002C71.6092 7.222 71.3159 7.354 70.9199 7.398L70.4359 7.442C69.5412 7.53 68.8665 7.80867 68.4119 8.278C67.9572 8.73267 67.7299 9.378 67.7299 10.214V14.768C67.7299 15.2227 67.6125 15.5747 67.3779 15.824C67.1432 16.0587 66.7985 16.176 66.3439 16.176ZM74.9591 16.176C74.5044 16.176 74.1524 16.0587 73.9031 15.824C73.6684 15.5747 73.5511 15.2227 73.5511 14.768V6.452C73.5511 5.99733 73.6684 5.65267 73.9031 5.418C74.1378 5.18333 74.4678 5.066 74.8931 5.066C75.3184 5.066 75.6484 5.18333 75.8831 5.418C76.1178 5.65267 76.2351 5.99733 76.2351 6.452V7.838H76.0151C76.2204 6.958 76.6238 6.29067 77.2251 5.836C77.8264 5.38133 78.6258 5.11 79.6231 5.022C79.9311 4.99267 80.1731 5.07333 80.3491 5.264C80.5398 5.44 80.6498 5.71867 80.6791 6.1C80.7084 6.46667 80.6204 6.76733 80.4151 7.002C80.2244 7.222 79.9311 7.354 79.5351 7.398L79.0511 7.442C78.1564 7.53 77.4818 7.80867 77.0271 8.278C76.5724 8.73267 76.3451 9.378 76.3451 10.214V14.768C76.3451 15.2227 76.2278 15.5747 75.9931 15.824C75.7584 16.0587 75.4138 16.176 74.9591 16.176ZM85.6009 16.22C84.8236 16.22 84.1269 16.0733 83.5109 15.78C82.9096 15.472 82.4329 15.0613 82.0809 14.548C81.7436 14.0347 81.5749 13.4553 81.5749 12.81C81.5749 12.018 81.7802 11.3947 82.1909 10.94C82.6016 10.4707 83.2689 10.1333 84.1929 9.928C85.1169 9.72267 86.3562 9.62 87.9109 9.62H89.0109V11.204H87.9329C87.0236 11.204 86.2976 11.248 85.7549 11.336C85.2122 11.424 84.8236 11.578 84.5889 11.798C84.3689 12.0033 84.2589 12.2967 84.2589 12.678C84.2589 13.162 84.4276 13.558 84.7649 13.866C85.1022 14.174 85.5716 14.328 86.1729 14.328C86.6569 14.328 87.0822 14.218 87.4489 13.998C87.8302 13.7633 88.1309 13.448 88.3509 13.052C88.5709 12.656 88.6809 12.2013 88.6809 11.688V9.158C88.6809 8.42467 88.5196 7.89667 88.1969 7.574C87.8742 7.25133 87.3316 7.09 86.5689 7.09C86.1436 7.09 85.6816 7.14133 85.1829 7.244C84.6989 7.34667 84.1856 7.52267 83.6429 7.772C83.3642 7.904 83.1149 7.94067 82.8949 7.882C82.6896 7.82333 82.5282 7.706 82.4109 7.53C82.2936 7.33933 82.2349 7.134 82.2349 6.914C82.2349 6.694 82.2936 6.48133 82.4109 6.276C82.5282 6.056 82.7262 5.89467 83.0049 5.792C83.6796 5.51333 84.3249 5.31533 84.9409 5.198C85.5716 5.08067 86.1436 5.022 86.6569 5.022C87.7129 5.022 88.5782 5.18333 89.2529 5.506C89.9422 5.82867 90.4556 6.32 90.7929 6.98C91.1302 7.62533 91.2989 8.46133 91.2989 9.488V14.768C91.2989 15.2227 91.1889 15.5747 90.9689 15.824C90.7489 16.0587 90.4336 16.176 90.0229 16.176C89.6122 16.176 89.2896 16.0587 89.0549 15.824C88.8349 15.5747 88.7249 15.2227 88.7249 14.768V13.712H88.9009C88.7982 14.2253 88.5929 14.6727 88.2849 15.054C87.9916 15.4207 87.6176 15.7067 87.1629 15.912C86.7082 16.1173 86.1876 16.22 85.6009 16.22ZM97.7642 16.22C96.5468 16.22 95.6302 15.8753 95.0142 15.186C94.3982 14.482 94.0902 13.4553 94.0902 12.106V1.7C94.0902 1.24533 94.2075 0.900666 94.4422 0.665999C94.6768 0.431332 95.0142 0.313999 95.4542 0.313999C95.8942 0.313999 96.2315 0.431332 96.4662 0.665999C96.7155 0.900666 96.8402 1.24533 96.8402 1.7V11.974C96.8402 12.6487 96.9795 13.1473 97.2582 13.47C97.5515 13.7927 97.9622 13.954 98.4902 13.954C98.6075 13.954 98.7175 13.954 98.8202 13.954C98.9228 13.9393 99.0255 13.9247 99.1282 13.91C99.3335 13.8807 99.4728 13.9393 99.5462 14.086C99.6195 14.218 99.6562 14.4967 99.6562 14.922C99.6562 15.2887 99.5828 15.5747 99.4362 15.78C99.2895 15.9853 99.0475 16.11 98.7102 16.154C98.5635 16.1687 98.4095 16.1833 98.2482 16.198C98.0868 16.2127 97.9255 16.22 97.7642 16.22ZM107.704 8.454C107.396 8.454 107.154 8.37333 106.978 8.212C106.802 8.036 106.714 7.794 106.714 7.486C106.714 7.178 106.802 6.94333 106.978 6.782C107.154 6.606 107.396 6.518 107.704 6.518H116.812C117.135 6.518 117.377 6.606 117.538 6.782C117.714 6.94333 117.802 7.178 117.802 7.486C117.802 7.794 117.714 8.036 117.538 8.212C117.377 8.37333 117.135 8.454 116.812 8.454H107.704ZM107.704 12.832C107.396 12.832 107.154 12.7513 106.978 12.59C106.802 12.414 106.714 12.172 106.714 11.864C106.714 11.556 106.802 11.3213 106.978 11.16C107.154 10.9987 107.396 10.918 107.704 10.918H116.812C117.135 10.918 117.377 10.9987 117.538 11.16C117.714 11.3213 117.802 11.556 117.802 11.864C117.802 12.1867 117.714 12.4287 117.538 12.59C117.377 12.7513 117.135 12.832 116.812 12.832H107.704ZM127.748 16C127.279 16 126.934 15.8973 126.714 15.692C126.509 15.472 126.406 15.1567 126.406 14.746C126.406 14.4967 126.472 14.2547 126.604 14.02C126.736 13.7853 126.927 13.536 127.176 13.272L131.598 8.564C132.273 7.86 132.757 7.222 133.05 6.65C133.344 6.06333 133.49 5.47667 133.49 4.89C133.49 4.15667 133.256 3.59933 132.786 3.218C132.332 2.83667 131.664 2.646 130.784 2.646C130.286 2.646 129.787 2.71933 129.288 2.866C128.79 2.998 128.284 3.23267 127.77 3.57C127.506 3.746 127.257 3.81933 127.022 3.79C126.802 3.76067 126.604 3.66533 126.428 3.504C126.267 3.34267 126.157 3.14467 126.098 2.91C126.04 2.67533 126.047 2.44067 126.12 2.206C126.208 1.95667 126.384 1.744 126.648 1.568C127.279 1.14267 127.983 0.819999 128.76 0.599999C129.552 0.379999 130.344 0.269999 131.136 0.269999C132.251 0.269999 133.19 0.438666 133.952 0.775999C134.715 1.11333 135.294 1.60467 135.69 2.25C136.086 2.89533 136.284 3.68 136.284 4.604C136.284 5.22 136.182 5.82133 135.976 6.408C135.786 6.99467 135.485 7.58867 135.074 8.19C134.678 8.79133 134.158 9.42933 133.512 10.104L129.376 14.416V13.668H135.844C136.24 13.668 136.541 13.7633 136.746 13.954C136.952 14.1447 137.054 14.4307 137.054 14.812C137.054 15.1933 136.952 15.4867 136.746 15.692C136.541 15.8973 136.24 16 135.844 16H127.748ZM144.746 16.22C143.968 16.22 143.176 16.1173 142.37 15.912C141.563 15.7067 140.822 15.3913 140.148 14.966C139.869 14.79 139.678 14.5847 139.576 14.35C139.488 14.1007 139.466 13.8587 139.51 13.624C139.568 13.3747 139.678 13.1693 139.84 13.008C140.016 12.832 140.221 12.7293 140.456 12.7C140.705 12.6707 140.976 12.7367 141.27 12.898C141.812 13.206 142.362 13.4407 142.92 13.602C143.477 13.7633 144.071 13.844 144.702 13.844C145.318 13.844 145.846 13.734 146.286 13.514C146.726 13.294 147.063 12.986 147.298 12.59C147.532 12.194 147.65 11.732 147.65 11.204C147.65 10.3827 147.4 9.72267 146.902 9.224C146.403 8.71067 145.721 8.454 144.856 8.454C144.386 8.454 143.932 8.53467 143.492 8.696C143.052 8.84267 142.619 9.10667 142.194 9.488C142.062 9.60533 141.893 9.72267 141.688 9.84C141.482 9.94267 141.262 9.994 141.028 9.994C140.661 9.994 140.382 9.89867 140.192 9.708C140.001 9.51733 139.906 9.25333 139.906 8.916V1.722C139.906 1.326 140.008 1.02533 140.214 0.819999C140.434 0.599999 140.742 0.489999 141.138 0.489999H148.376C148.772 0.489999 149.072 0.592666 149.278 0.797999C149.498 0.988666 149.608 1.27467 149.608 1.656C149.608 2.02267 149.498 2.30867 149.278 2.514C149.072 2.71933 148.772 2.822 148.376 2.822H142.656V7.75H141.93C142.311 7.23667 142.817 6.84067 143.448 6.562C144.078 6.28333 144.768 6.144 145.516 6.144C146.498 6.144 147.349 6.35667 148.068 6.782C148.801 7.19267 149.366 7.772 149.762 8.52C150.172 9.25333 150.378 10.1113 150.378 11.094C150.378 12.106 150.15 13.0007 149.696 13.778C149.241 14.5407 148.588 15.142 147.738 15.582C146.902 16.0073 145.904 16.22 144.746 16.22ZM166.088 16.22C164.474 16.22 163.088 15.8973 161.93 15.252C160.786 14.592 159.906 13.668 159.29 12.48C158.674 11.2773 158.366 9.862 158.366 8.234C158.366 7.01667 158.542 5.924 158.894 4.956C159.246 3.97333 159.752 3.13733 160.412 2.448C161.072 1.744 161.878 1.20867 162.832 0.842C163.8 0.460666 164.885 0.269999 166.088 0.269999C166.894 0.269999 167.686 0.372666 168.464 0.577999C169.241 0.783333 169.923 1.07667 170.51 1.458C170.818 1.64867 171.023 1.88333 171.126 2.162C171.228 2.426 171.25 2.69 171.192 2.954C171.133 3.20333 171.008 3.416 170.818 3.592C170.642 3.768 170.414 3.87067 170.136 3.9C169.872 3.91467 169.578 3.81933 169.256 3.614C168.801 3.32067 168.31 3.108 167.782 2.976C167.254 2.844 166.718 2.778 166.176 2.778C165.134 2.778 164.254 2.99067 163.536 3.416C162.817 3.84133 162.274 4.45733 161.908 5.264C161.541 6.07067 161.358 7.06067 161.358 8.234C161.358 9.39267 161.541 10.3827 161.908 11.204C162.274 12.0253 162.817 12.6487 163.536 13.074C164.254 13.4993 165.134 13.712 166.176 13.712C166.733 13.712 167.283 13.646 167.826 13.514C168.368 13.3673 168.882 13.1473 169.366 12.854C169.688 12.6633 169.974 12.5827 170.224 12.612C170.488 12.6267 170.708 12.7147 170.884 12.876C171.06 13.0373 171.177 13.2427 171.236 13.492C171.294 13.7267 171.28 13.976 171.192 14.24C171.104 14.4893 170.928 14.7093 170.664 14.9C170.077 15.3253 169.373 15.6553 168.552 15.89C167.745 16.11 166.924 16.22 166.088 16.22ZM177.693 16.22C176.579 16.22 175.611 15.9927 174.789 15.538C173.968 15.0833 173.33 14.438 172.875 13.602C172.421 12.7513 172.193 11.754 172.193 10.61C172.193 9.74467 172.318 8.97467 172.567 8.3C172.831 7.61067 173.205 7.024 173.689 6.54C174.173 6.04133 174.753 5.66733 175.427 5.418C176.102 5.154 176.857 5.022 177.693 5.022C178.808 5.022 179.776 5.24933 180.597 5.704C181.419 6.15867 182.057 6.804 182.511 7.64C182.966 8.476 183.193 9.466 183.193 10.61C183.193 11.4753 183.061 12.2527 182.797 12.942C182.548 13.6313 182.181 14.2253 181.697 14.724C181.213 15.208 180.634 15.582 179.959 15.846C179.285 16.0953 178.529 16.22 177.693 16.22ZM177.693 14.13C178.236 14.13 178.713 13.998 179.123 13.734C179.534 13.47 179.849 13.0813 180.069 12.568C180.304 12.04 180.421 11.3873 180.421 10.61C180.421 9.43667 180.172 8.564 179.673 7.992C179.175 7.40533 178.515 7.112 177.693 7.112C177.151 7.112 176.674 7.244 176.263 7.508C175.853 7.75733 175.53 8.146 175.295 8.674C175.075 9.18733 174.965 9.83267 174.965 10.61C174.965 11.7687 175.215 12.6487 175.713 13.25C176.212 13.8367 176.872 14.13 177.693 14.13ZM186.827 16.154C186.387 16.154 186.05 16.022 185.815 15.758C185.581 15.494 185.463 15.1273 185.463 14.658V6.584C185.463 6.1 185.581 5.73333 185.815 5.484C186.05 5.22 186.387 5.088 186.827 5.088C187.267 5.088 187.605 5.22 187.839 5.484C188.089 5.73333 188.213 6.1 188.213 6.584V14.658C188.213 15.1273 188.096 15.494 187.861 15.758C187.627 16.022 187.282 16.154 186.827 16.154ZM186.827 3.042C186.314 3.042 185.911 2.91733 185.617 2.668C185.339 2.404 185.199 2.04467 185.199 1.59C185.199 1.12067 185.339 0.761332 185.617 0.511999C185.911 0.262666 186.314 0.138 186.827 0.138C187.355 0.138 187.759 0.262666 188.037 0.511999C188.316 0.761332 188.455 1.12067 188.455 1.59C188.455 2.04467 188.316 2.404 188.037 2.668C187.759 2.91733 187.355 3.042 186.827 3.042ZM192.435 16.176C191.995 16.176 191.657 16.0587 191.423 15.824C191.188 15.5747 191.071 15.2227 191.071 14.768V6.452C191.071 5.99733 191.188 5.65267 191.423 5.418C191.657 5.18333 191.987 5.066 192.413 5.066C192.838 5.066 193.168 5.18333 193.403 5.418C193.637 5.65267 193.755 5.99733 193.755 6.452V7.948L193.513 7.398C193.835 6.62067 194.334 6.034 195.009 5.638C195.698 5.22733 196.475 5.022 197.341 5.022C198.206 5.022 198.917 5.18333 199.475 5.506C200.032 5.82867 200.45 6.32 200.729 6.98C201.007 7.62533 201.147 8.44667 201.147 9.444V14.768C201.147 15.2227 201.029 15.5747 200.795 15.824C200.56 16.0587 200.223 16.176 199.783 16.176C199.343 16.176 198.998 16.0587 198.749 15.824C198.514 15.5747 198.397 15.2227 198.397 14.768V9.576C198.397 8.74 198.235 8.13133 197.913 7.75C197.605 7.36867 197.121 7.178 196.461 7.178C195.654 7.178 195.009 7.43467 194.525 7.948C194.055 8.44667 193.821 9.114 193.821 9.95V14.768C193.821 15.7067 193.359 16.176 192.435 16.176ZM207.878 16.22C207.247 16.22 206.58 16.154 205.876 16.022C205.172 15.89 204.541 15.6627 203.984 15.34C203.749 15.1933 203.58 15.0247 203.478 14.834C203.39 14.6287 203.353 14.4307 203.368 14.24C203.397 14.0347 203.47 13.8587 203.588 13.712C203.72 13.5653 203.881 13.47 204.072 13.426C204.277 13.382 204.497 13.4187 204.732 13.536C205.318 13.8147 205.868 14.0127 206.382 14.13C206.895 14.2327 207.401 14.284 207.9 14.284C208.604 14.284 209.124 14.1667 209.462 13.932C209.814 13.6827 209.99 13.36 209.99 12.964C209.99 12.6267 209.872 12.37 209.638 12.194C209.418 12.0033 209.08 11.864 208.626 11.776L206.426 11.358C205.516 11.182 204.82 10.852 204.336 10.368C203.866 9.86933 203.632 9.23133 203.632 8.454C203.632 7.75 203.822 7.14133 204.204 6.628C204.6 6.11467 205.142 5.71867 205.832 5.44C206.521 5.16133 207.313 5.022 208.208 5.022C208.853 5.022 209.454 5.09533 210.012 5.242C210.584 5.374 211.134 5.58667 211.662 5.88C211.882 5.99733 212.028 6.15133 212.102 6.342C212.19 6.53267 212.212 6.73067 212.168 6.936C212.124 7.12667 212.036 7.30267 211.904 7.464C211.772 7.61067 211.603 7.706 211.398 7.75C211.207 7.77933 210.987 7.73533 210.738 7.618C210.283 7.38333 209.843 7.21467 209.418 7.112C209.007 7.00933 208.611 6.958 208.23 6.958C207.511 6.958 206.976 7.08267 206.624 7.332C206.286 7.58133 206.118 7.91133 206.118 8.322C206.118 8.63 206.22 8.88667 206.426 9.092C206.631 9.29733 206.946 9.43667 207.372 9.51L209.572 9.928C210.525 10.104 211.244 10.4267 211.728 10.896C212.226 11.3653 212.476 11.996 212.476 12.788C212.476 13.8587 212.058 14.702 211.222 15.318C210.386 15.9193 209.271 16.22 207.878 16.22Z" fill="url(#paint0_linear_1204_5476)"/>
<defs>
<linearGradient id="paint0_linear_1204_5476" x1="43.9579" y1="-32" x2="51.9189" y2="36.5276" gradientUnits="userSpaceOnUse">
<stop stop-color="#2323DA"/>
<stop offset="1" stop-color="#C012E3"/>
</linearGradient>
</defs>
</svg>
