<svg width="24" height="24" viewBox="0 0 24 24" fill="none" xmlns="http://www.w3.org/2000/svg">
<g clip-path="url(#clip0_729_2301)">
<path d="M17.25 19.5C17.0511 19.5 16.8603 19.579 16.7197 19.7197C16.579 19.8603 16.5 20.0511 16.5 20.25V22.5H1.5V4.5H4.5V5.25C4.5 5.44891 4.57902 5.63968 4.71967 5.78033C4.86032 5.92098 5.05109 6 5.25 6H12.75C12.9489 6 13.1397 5.92098 13.2803 5.78033C13.421 5.63968 13.5 5.44891 13.5 5.25V4.5H16.5V5.25C16.5 5.44891 16.579 5.63968 16.7197 5.78033C16.8603 5.92098 17.0511 6 17.25 6C17.4489 6 17.6397 5.92098 17.7803 5.78033C17.921 5.63968 18 5.44891 18 5.25V3.75C18 3.55109 17.921 3.36032 17.7803 3.21967C17.6397 3.07902 17.4489 3 17.25 3H13.5V2.25C13.5 1.65326 13.2629 1.08097 12.841 0.659011C12.419 0.237054 11.8467 0 11.25 0H6.75C6.15326 0 5.58097 0.237054 5.15901 0.659011C4.73705 1.08097 4.5 1.65326 4.5 2.25V3H0.75C0.551088 3 0.360322 3.07902 0.219669 3.21967C0.0790171 3.36032 0 3.55109 0 3.75V23.25C0 23.4489 0.0790171 23.6397 0.219669 23.7803C0.360322 23.921 0.551088 24 0.75 24H17.25C17.4489 24 17.6397 23.921 17.7803 23.7803C17.921 23.6397 18 23.4489 18 23.25V20.25C18 20.0511 17.921 19.8603 17.7803 19.7197C17.6397 19.579 17.4489 19.5 17.25 19.5ZM6 2.25C6 2.05109 6.07902 1.86032 6.21967 1.71967C6.36032 1.57902 6.55109 1.5 6.75 1.5H11.25C11.4489 1.5 11.6397 1.57902 11.7803 1.71967C11.921 1.86032 12 2.05109 12 2.25V4.5H6V2.25ZM23.781 9.219L20.781 6.219C20.7113 6.14916 20.6286 6.09374 20.5375 6.05593C20.4463 6.01812 20.3487 5.99866 20.25 5.99866C20.1513 5.99866 20.0537 6.01812 19.9625 6.05593C19.8714 6.09374 19.7887 6.14916 19.719 6.219L10.719 15.219C10.6494 15.2888 10.5942 15.3716 10.5567 15.4627C10.5191 15.5538 10.4998 15.6514 10.5 15.75V18.75C10.5 18.9489 10.579 19.1397 10.7197 19.2803C10.8603 19.421 11.0511 19.5 11.25 19.5H14.25C14.3486 19.5002 14.4462 19.4809 14.5373 19.4433C14.6284 19.4058 14.7112 19.3506 14.781 19.281L23.781 10.281C23.8508 10.2113 23.9063 10.1286 23.9441 10.0375C23.9819 9.94633 24.0013 9.84865 24.0013 9.75C24.0013 9.65135 23.9819 9.55367 23.9441 9.46255C23.9063 9.37143 23.8508 9.28867 23.781 9.219ZM12 18V16.0605L20.25 7.8105L22.1895 9.75L13.9395 18H12ZM9 18.75C9 18.9489 8.92098 19.1397 8.78033 19.2803C8.63968 19.421 8.44891 19.5 8.25 19.5H5.25C5.05109 19.5 4.86032 19.421 4.71967 19.2803C4.57902 19.1397 4.5 18.9489 4.5 18.75C4.5 18.5511 4.57902 18.3603 4.71967 18.2197C4.86032 18.079 5.05109 18 5.25 18H8.25C8.44891 18 8.63968 18.079 8.78033 18.2197C8.92098 18.3603 9 18.5511 9 18.75ZM9 14.25C9 14.4489 8.92098 14.6397 8.78033 14.7803C8.63968 14.921 8.44891 15 8.25 15H5.25C5.05109 15 4.86032 14.921 4.71967 14.7803C4.57902 14.6397 4.5 14.4489 4.5 14.25C4.5 14.0511 4.57902 13.8603 4.71967 13.7197C4.86032 13.579 5.05109 13.5 5.25 13.5H8.25C8.44891 13.5 8.63968 13.579 8.78033 13.7197C8.92098 13.8603 9 14.0511 9 14.25ZM12.75 10.5H5.25C5.05109 10.5 4.86032 10.421 4.71967 10.2803C4.57902 10.1397 4.5 9.94891 4.5 9.75C4.5 9.55109 4.57902 9.36032 4.71967 9.21967C4.86032 9.07902 5.05109 9 5.25 9H12.75C12.9489 9 13.1397 9.07902 13.2803 9.21967C13.421 9.36032 13.5 9.55109 13.5 9.75C13.5 9.94891 13.421 10.1397 13.2803 10.2803C13.1397 10.421 12.9489 10.5 12.75 10.5Z" fill="#F2F2F2"/>
</g>
<defs>
<clipPath id="clip0_729_2301">
<rect width="24" height="24" fill="white"/>
</clipPath>
</defs>
</svg>
