<svg width="27" height="27" viewBox="0 0 27 27" fill="none" xmlns="http://www.w3.org/2000/svg">
<path fill-rule="evenodd" clip-rule="evenodd" d="M12.0175 10.1442C9.51118 8.08393 7.48034 5.63046 5.95425 2.77198C5.64903 2.20263 4.93884 1.98545 4.36362 2.29067C3.79427 2.59589 3.57706 3.30612 3.88227 3.88133C5.56097 7.00981 7.77971 9.69808 10.5267 11.9579C11.0256 12.3687 11.771 12.2983 12.1818 11.7994C12.5927 11.2946 12.5164 10.555 12.0175 10.1442Z" fill="url(#paint0_linear_1204_3952)"/>
<path fill-rule="evenodd" clip-rule="evenodd" d="M10.681 2.12048C10.8101 4.49178 10.9276 6.86308 11.0743 9.23439C11.1154 9.88004 11.673 10.3731 12.3186 10.332C12.9643 10.2909 13.4573 9.7333 13.4163 9.08765C13.2695 6.72222 13.1521 4.35679 13.023 1.98549C12.9877 1.3416 12.4301 0.845617 11.7845 0.882008C11.1388 0.9184 10.6399 1.47307 10.681 2.12048Z" fill="url(#paint1_linear_1204_3952)"/>
<path fill-rule="evenodd" clip-rule="evenodd" d="M19.395 2.60185C17.8924 4.8675 16.1903 6.95704 14.4764 9.07009C14.0655 9.57487 14.1418 10.3145 14.6466 10.7195C15.1514 11.1303 15.8909 11.054 16.2959 10.5492C18.0568 8.38336 19.8059 6.22922 21.3555 3.899C21.7136 3.359 21.5609 2.6312 21.0209 2.27316C20.4868 1.91511 19.7531 2.06185 19.395 2.60185Z" fill="url(#paint2_linear_1204_3952)"/>
<path fill-rule="evenodd" clip-rule="evenodd" d="M25.2156 11.0246C21.1421 11.2066 16.8162 11.2124 12.7428 10.9542C12.0971 10.919 11.5395 11.4061 11.4984 12.0577C11.4573 12.7033 11.9504 13.2609 12.596 13.302C16.7517 13.5603 21.1656 13.5544 25.3213 13.3724C25.9669 13.3431 26.4717 12.7914 26.4423 12.1457C26.413 11.5001 25.8612 10.9953 25.2156 11.0246Z" fill="url(#paint3_linear_1204_3952)"/>
<path fill-rule="evenodd" clip-rule="evenodd" d="M10.5236 11.77C13.0358 14.8457 15.636 17.8626 17.9662 21.0792C18.3478 21.6016 19.0815 21.7189 19.6097 21.3374C20.1321 20.9559 20.2495 20.2222 19.868 19.6998C17.5084 16.448 14.8789 13.3959 12.3373 10.285C11.9265 9.78608 11.1869 9.70979 10.688 10.1207C10.1832 10.5315 10.1127 11.2711 10.5236 11.77Z" fill="url(#paint4_linear_1204_3952)"/>
<path fill-rule="evenodd" clip-rule="evenodd" d="M11.2844 12.6624C11.9417 15.8672 12.1237 18.9311 12.1707 22.177C12.1765 22.8226 12.7107 23.3391 13.3563 23.3333C14.0078 23.3215 14.5244 22.7932 14.5126 22.1417C14.4657 18.7432 14.272 15.5444 13.5852 12.187C13.4502 11.553 12.8339 11.1422 12.1942 11.2772C11.5603 11.4063 11.1494 12.0285 11.2844 12.6624Z" fill="url(#paint5_linear_1204_3952)"/>
<path fill-rule="evenodd" clip-rule="evenodd" d="M11.3903 12.4042C9.48859 16.2076 8.50837 20.4337 6.47163 24.155C6.16054 24.7185 6.3718 25.4346 6.94115 25.7457C7.5105 26.0568 8.22076 25.8454 8.53185 25.282C10.5803 21.5372 11.5723 17.2876 13.4916 13.4548C13.7792 12.8737 13.5444 12.1694 12.9692 11.8759C12.3881 11.5883 11.6838 11.8231 11.3903 12.4042Z" fill="url(#paint6_linear_1204_3952)"/>
<path fill-rule="evenodd" clip-rule="evenodd" d="M12.4369 11.5411C8.65108 12.2102 4.87107 12.5154 1.06173 12.9674C0.416073 13.0437 -0.041753 13.6248 0.0345514 14.2705C0.110856 14.9161 0.691997 15.3739 1.33765 15.2976C5.18808 14.8457 9.01503 14.5287 12.8479 13.8537C13.4818 13.7363 13.9102 13.1259 13.7987 12.492C13.6813 11.8522 13.0767 11.4237 12.4369 11.5411Z" fill="url(#paint7_linear_1204_3952)"/>
<path fill-rule="evenodd" clip-rule="evenodd" d="M15.0713 9.75699C14.2906 9.72177 13.551 9.66893 12.788 9.55741C12.1424 9.4635 11.5495 9.90958 11.4556 10.5494C11.3617 11.1892 11.8077 11.7879 12.4475 11.8818C13.2927 12.005 14.1086 12.0637 14.9656 12.0989C15.6112 12.1283 16.163 11.6294 16.1864 10.9778C16.2158 10.3322 15.7169 9.78634 15.0713 9.75699Z" fill="url(#paint8_linear_1204_3952)"/>
<defs>
<linearGradient id="paint0_linear_1204_3952" x1="2.64271" y1="11.5182" x2="10.2783" y2="13.4604" gradientUnits="userSpaceOnUse">
<stop stop-color="#FF480A"/>
<stop offset="0.414583" stop-color="#FF3797"/>
<stop offset="1" stop-color="#9600FF"/>
</linearGradient>
<linearGradient id="paint1_linear_1204_3952" x1="10.3319" y1="9.67084" x2="12.873" y2="9.88765" gradientUnits="userSpaceOnUse">
<stop stop-color="#FF480A"/>
<stop offset="0.414583" stop-color="#FF3797"/>
<stop offset="1" stop-color="#9600FF"/>
</linearGradient>
<linearGradient id="paint2_linear_1204_3952" x1="13.2834" y1="10.3588" x2="19.7569" y2="11.9289" gradientUnits="userSpaceOnUse">
<stop stop-color="#FF480A"/>
<stop offset="0.414583" stop-color="#FF3797"/>
<stop offset="1" stop-color="#9600FF"/>
</linearGradient>
<linearGradient id="paint3_linear_1204_3952" x1="9.60459" y1="13.3242" x2="13.1162" y2="19.3823" gradientUnits="userSpaceOnUse">
<stop stop-color="#FF480A"/>
<stop offset="0.414583" stop-color="#FF3797"/>
<stop offset="1" stop-color="#9600FF"/>
</linearGradient>
<linearGradient id="paint4_linear_1204_3952" x1="9.01219" y1="20.7402" x2="17.6702" y2="22.8818" gradientUnits="userSpaceOnUse">
<stop stop-color="#FF480A"/>
<stop offset="0.414583" stop-color="#FF3797"/>
<stop offset="1" stop-color="#9600FF"/>
</linearGradient>
<linearGradient id="paint5_linear_1204_3952" x1="10.8469" y1="22.4853" x2="13.8677" y2="22.7249" gradientUnits="userSpaceOnUse">
<stop stop-color="#FF480A"/>
<stop offset="0.414583" stop-color="#FF3797"/>
<stop offset="1" stop-color="#9600FF"/>
</linearGradient>
<linearGradient id="paint6_linear_1204_3952" x1="5.40598" y1="24.8973" x2="12.0593" y2="25.9069" gradientUnits="userSpaceOnUse">
<stop stop-color="#FF480A"/>
<stop offset="0.414583" stop-color="#FF3797"/>
<stop offset="1" stop-color="#9600FF"/>
</linearGradient>
<linearGradient id="paint7_linear_1204_3952" x1="-1.71875" y1="15.0403" x2="4.27006" y2="21.4654" gradientUnits="userSpaceOnUse">
<stop stop-color="#FF480A"/>
<stop offset="0.414583" stop-color="#FF3797"/>
<stop offset="1" stop-color="#9600FF"/>
</linearGradient>
<linearGradient id="paint8_linear_1204_3952" x1="10.8427" y1="11.9208" x2="14.2551" y2="13.7862" gradientUnits="userSpaceOnUse">
<stop stop-color="#FF480A"/>
<stop offset="0.414583" stop-color="#FF3797"/>
<stop offset="1" stop-color="#9600FF"/>
</linearGradient>
</defs>
</svg>
