<svg width="43" height="43" viewBox="0 0 43 43" fill="none" xmlns="http://www.w3.org/2000/svg">
<path fill-rule="evenodd" clip-rule="evenodd" d="M8.99231 2.13867H29.3172L35.3239 8.21704V37.6142H8.99231V2.13867Z" fill="white"/>
<path d="M35.3239 38.1904H8.99231C8.67401 38.1904 8.41626 37.9325 8.41626 37.6141V2.13863C8.41626 1.82025 8.67401 1.5625 8.99231 1.5625H29.3172C29.471 1.5625 29.619 1.62414 29.7268 1.73358L35.7339 7.81195C35.8403 7.91987 35.9003 8.06558 35.9003 8.217V37.6141C35.9004 37.9325 35.6422 38.1904 35.3239 38.1904ZM9.56844 37.0381H34.7481V8.45367L29.0763 2.71477H9.56844V37.0381Z" fill="#90CAF9"/>
<path d="M37.248 14.917H10.9163V23.7857H37.248V14.917Z" fill="#90CAF9"/>
<path d="M17.9188 21.6728H16.9902V20.8482H17.9188V21.6728ZM20.0888 17.0068L21.2745 20.4412H21.297L22.4939 17.0068H23.7128V21.6728H22.7732V20.2832L22.8626 18.2157H22.8518L21.5988 21.6728H20.9724L19.7307 18.2269H19.7196L19.8092 20.2832V21.6728H18.8695V17.0068H20.0888ZM25.514 19.9779V21.6727H24.5856V17.0067H26.4423C26.9792 17.0067 27.393 17.142 27.7063 17.4133C28.0085 17.6846 28.1653 18.046 28.1653 18.4977C28.1653 18.9385 28.0085 19.3 27.7063 19.5714C27.393 19.8426 26.9792 19.9779 26.4423 19.9779H25.514ZM25.514 19.255H26.4423C26.6998 19.255 26.9014 19.1871 27.0355 19.0403C27.1696 18.9047 27.2367 18.7239 27.2367 18.4977C27.2367 18.2719 27.1696 18.0911 27.0355 17.9443C26.9014 17.7975 26.6998 17.7297 26.4423 17.7297H25.514V19.255ZM29.6752 18.9386H30.2009C30.4248 18.9386 30.5812 18.8824 30.6934 18.7691C30.7935 18.6449 30.8498 18.487 30.8498 18.2835C30.8498 18.0911 30.7935 17.9443 30.6934 17.8315C30.5812 17.7185 30.436 17.6619 30.2231 17.6619C30.0555 17.6619 29.9102 17.707 29.7869 17.8088C29.6641 17.9105 29.6081 18.0461 29.6081 18.2157H28.7018V18.1929C28.6793 17.8315 28.8251 17.5266 29.1156 17.2893C29.4071 17.0518 29.7647 16.939 30.2009 16.939C30.6819 16.939 31.0734 17.0518 31.3532 17.2777C31.6437 17.5151 31.7894 17.8426 31.7894 18.2719C31.7894 18.4754 31.7223 18.6673 31.599 18.8484C31.4648 19.0287 31.286 19.176 31.0625 19.2777C31.3196 19.3679 31.521 19.5147 31.6552 19.6954C31.7894 19.8877 31.8564 20.1136 31.8564 20.3621C31.8564 20.7914 31.7 21.1305 31.3978 21.3675C31.0849 21.6161 30.6819 21.7406 30.2009 21.7406C29.7647 21.7406 29.3954 21.6276 29.0933 21.3903C28.7803 21.1645 28.6239 20.8369 28.6347 20.4184L28.6463 20.396H29.5519C29.5519 20.5767 29.6193 20.7236 29.7423 20.848C29.8656 20.961 30.0333 21.0172 30.2232 21.0172C30.4471 21.0172 30.6148 20.961 30.7381 20.8369C30.8611 20.7236 30.9281 20.5541 30.9281 20.351C30.9281 20.1024 30.8611 19.9328 30.7381 19.82C30.6148 19.6955 30.436 19.6392 30.201 19.6392H29.6753V18.9386H29.6752Z" fill="#FEFEFE"/>
<path d="M22.1298 12.303C20.953 12.303 19.9302 11.8767 19.3932 11.1619C19.2022 10.9075 19.2533 10.5464 19.5079 10.3553C19.7616 10.1634 20.1233 10.215 20.3146 10.4697C20.6303 10.8897 21.3256 11.1507 22.1298 11.1507C22.1301 11.1507 22.1306 11.1507 22.1313 11.1507C22.9452 11.1503 23.6967 10.8766 24.0019 10.4701C24.1923 10.2154 24.5537 10.1637 24.8081 10.3548C25.0628 10.5456 25.1144 10.9067 24.9237 11.1614C24.3958 11.8651 23.3263 12.3024 22.1321 12.3029C22.1313 12.3029 22.1306 12.303 22.1298 12.303Z" fill="#90CAF9"/>
<path d="M12.0911 19.5939C12.089 19.5939 12.0868 19.5939 12.0847 19.5939C8.58486 19.5561 6.50826 18.6424 5.91307 16.8783C5.13755 14.5803 7.3424 11.6072 8.63819 10.5979C8.8893 10.4029 9.25153 10.4476 9.44688 10.6985C9.64248 10.9498 9.59738 11.3116 9.34652 11.5074C8.2328 12.3744 6.44721 14.857 7.00486 16.5098C7.53027 18.0667 10.0641 18.4197 12.0971 18.4416C12.4154 18.4451 12.6705 18.7056 12.6671 19.0239C12.6636 19.3399 12.4063 19.5939 12.0911 19.5939Z" fill="#90CAF9"/>
<path fill-rule="evenodd" clip-rule="evenodd" d="M29.3173 8.21704H35.324L29.3173 2.13867V8.21704Z" fill="#D4E4FF"/>
<path d="M35.324 8.79328H29.3172C28.9989 8.79328 28.7411 8.53553 28.7411 8.21715V2.13878C28.7411 1.90522 28.8822 1.69442 29.0984 1.60581C29.3145 1.51679 29.5627 1.56769 29.7268 1.73372L35.7339 7.81209C35.8973 7.97746 35.9451 8.22488 35.8557 8.43912C35.7663 8.65378 35.5567 8.79328 35.324 8.79328ZM29.8933 7.64102H33.9446L29.8933 3.54149V7.64102Z" fill="#90CAF9"/>
<path d="M20.1007 41.437C20.0691 41.437 20.0371 41.4348 20.0047 41.4293L18.1143 41.113C17.8366 41.0662 17.6333 40.8263 17.6333 40.5444V37.6141C17.6333 37.2959 17.891 37.0381 18.2093 37.0381C18.5277 37.0381 18.7855 37.2959 18.7855 37.6141V40.0566L20.1949 40.2925C20.5088 40.3453 20.7206 40.642 20.668 40.956C20.6211 41.2378 20.377 41.437 20.1007 41.437Z" fill="#90CAF9"/>
<path d="M27.316 41.437C27.2844 41.437 27.252 41.4348 27.2197 41.4293L25.3295 41.113C25.0516 41.0662 24.8485 40.8263 24.8485 40.5444V37.6141C24.8485 37.2959 25.1063 37.0381 25.4246 37.0381C25.7429 37.0381 26.0007 37.2959 26.0007 37.6141V40.0566L27.4099 40.2925C27.724 40.3453 27.9356 40.642 27.8832 40.956C27.8363 41.2378 27.5919 41.437 27.316 41.437Z" fill="#90CAF9"/>
<path fill-rule="evenodd" clip-rule="evenodd" d="M24.4288 5.47159C24.9545 5.32437 25.5364 5.55062 25.8162 6.04773C26.163 6.6462 25.9615 7.4034 25.3684 7.7537C24.7757 8.09241 24.0265 7.88933 23.6905 7.30161C23.4223 6.82727 23.4892 6.26231 23.8138 5.86691C23.9256 6.02488 24.1268 6.0704 24.2948 5.96861C24.4627 5.86699 24.5298 5.65241 24.4288 5.47159Z" fill="#90CAF9"/>
<path fill-rule="evenodd" clip-rule="evenodd" d="M19.2164 5.47159C19.742 5.32437 20.3237 5.55062 20.6147 6.04773C20.9501 6.6462 20.7488 7.4034 20.1559 7.7537C19.5744 8.09241 18.8136 7.88933 18.478 7.30161C18.2095 6.82727 18.2767 6.26231 18.6011 5.86691C18.7129 6.02488 18.9253 6.0704 19.0821 5.96861C19.261 5.86699 19.3169 5.65241 19.2164 5.47159Z" fill="#90CAF9"/>
<path fill-rule="evenodd" clip-rule="evenodd" d="M25.5253 25.5371C25.4918 25.5032 25.4359 25.4917 25.38 25.4917L19.6862 26.2374C19.5968 26.2486 19.5295 26.3279 19.5295 26.4296V33.152C19.2165 32.779 18.713 32.5416 18.1538 32.5416C17.1918 32.5416 16.4087 33.2422 16.4087 34.1124C16.4087 34.9709 17.1918 35.6712 18.1538 35.6712C19.2388 35.6712 19.5407 34.7787 19.5633 34.033C19.5745 33.6603 19.5295 33.4117 19.5295 33.152V28.5873L25.5924 27.7853V31.7847C24.664 30.7227 22.1025 30.8695 22.1025 32.6659C22.1025 33.5246 22.8851 34.2249 23.8474 34.2249C24.8096 34.2249 25.5923 33.5246 25.5923 32.6659C25.5923 30.4739 25.5923 27.8755 25.5923 25.6835C25.5923 25.6274 25.57 25.5822 25.5253 25.5371Z" fill="#D4E4FF"/>
<path d="M18.1538 36.2472C16.8738 36.2472 15.8325 35.2896 15.8325 34.1123C15.8325 32.9283 16.8738 31.9653 18.1538 31.9653C18.4291 31.9653 18.6998 32.0113 18.9534 32.0975V26.4296C18.9534 26.0412 19.2376 25.7128 19.6147 25.6653L25.3053 24.9201C25.33 24.917 25.3546 24.9155 25.38 24.9155C25.6617 24.9155 25.8375 25.0329 25.9349 25.132C26.128 25.3265 26.1685 25.5394 26.1685 25.6835V32.6659C26.1685 33.8433 25.1272 34.8009 23.8474 34.8009C22.5676 34.8009 21.5262 33.8433 21.5262 32.6659C21.5262 31.4154 22.5113 30.5421 23.9216 30.5421C24.3063 30.5421 24.6793 30.6092 25.0161 30.7329V28.4426L20.1056 29.092V33.1518C20.1056 33.2451 20.1129 33.3368 20.12 33.4354C20.1324 33.607 20.1465 33.8015 20.1391 34.05C20.0981 35.4055 19.3374 36.2472 18.1538 36.2472ZM18.1538 33.1176C17.5093 33.1176 16.9848 33.5638 16.9848 34.1123C16.9848 34.6541 17.5093 35.0949 18.1538 35.0949C18.3518 35.0949 18.9547 35.0949 18.9873 34.0155C18.9929 33.8262 18.9818 33.6699 18.9708 33.5188C18.9677 33.4775 18.9648 33.4371 18.9623 33.3969C18.7503 33.2196 18.4599 33.1176 18.1538 33.1176ZM23.9217 31.6945C23.714 31.6945 22.6785 31.7414 22.6785 32.6659C22.6785 33.2078 23.2027 33.6486 23.8474 33.6486C24.4921 33.6486 25.0162 33.2078 25.0162 32.6659V32.0309C24.748 31.8227 24.3402 31.6945 23.9217 31.6945ZM20.1056 26.7634V27.9298L25.0162 27.2804V26.1205L20.1056 26.7634Z" fill="#90CAF9"/>
</svg>
