<svg width="31" height="31" viewBox="0 0 31 31" fill="none" xmlns="http://www.w3.org/2000/svg">
<path d="M14.911 10.9429H15.903C16.182 10.9429 16.399 11.1599 16.399 11.4389V15.7789C16.399 15.9029 16.337 16.0269 16.275 16.1509L13.485 18.9409C13.299 19.1269 12.989 19.1269 12.803 18.9409L12.121 18.2589C11.935 18.0729 11.935 17.7629 12.121 17.5769L14.446 15.2209V11.4699C14.415 11.2219 14.601 10.9739 14.88 10.9429C14.88 10.9429 14.88 10.9429 14.911 10.9429Z" fill="#F2F2F2"/>
<path d="M26.195 15.2519H24.707C24.707 15.1589 24.676 15.0349 24.676 14.9109C24.273 9.8269 19.84 6.0139 14.756 6.3859C9.67199 6.7889 5.85899 11.2219 6.23099 16.3059C6.60299 21.1109 10.54 24.7999 15.345 24.8619C17.949 24.9239 20.46 23.8389 22.227 21.9479C22.382 21.7929 22.537 21.6379 22.351 21.4519L21.545 20.4909C21.266 20.1499 21.018 20.3049 20.801 20.5219C19.251 22.2269 16.957 23.0949 14.663 22.8469C11.47 22.5369 8.49399 19.5609 8.15299 16.4299C7.74999 12.4309 10.664 8.8349 14.663 8.4319C18.662 8.0289 22.258 10.9429 22.661 14.9419H22.63C22.661 15.0659 22.661 15.1589 22.661 15.2829H21.204C20.925 15.2829 20.708 15.4999 20.708 15.7789C20.708 15.9029 20.739 15.9959 20.801 16.0889L23.281 19.0959C23.498 19.3129 23.839 19.3129 24.056 19.0959L26.536 16.0889C26.722 15.9029 26.722 15.5929 26.536 15.4069C26.443 15.3139 26.319 15.2519 26.195 15.2519Z" fill="#F2F2F2"/>
</svg>
