<svg width="24" height="24" viewBox="0 0 24 24" fill="none" xmlns="http://www.w3.org/2000/svg">
<path d="M21 3.5625H3C1.6545 3.564 0.564 4.6545 0.5625 6V18C0.564 19.3455 1.6545 20.436 3 20.4375H21C22.3455 20.4368 23.4368 19.3455 23.4375 18V6C23.436 4.6545 22.3455 3.564 21 3.5625ZM2.4375 8.4375H21.5625V9.5625H2.4375V8.4375ZM3 5.4375H21C21.3105 5.4375 21.5625 5.6895 21.5625 6V6.5625H2.4375V6C2.43825 5.6895 2.6895 5.43825 3 5.4375ZM21 18.5625H3C2.6895 18.5625 2.4375 18.3105 2.4375 18V11.4375H21.5625V18C21.5625 18.3105 21.3105 18.5625 21 18.5625ZM7.5 15.5625H4.5C3.9825 15.5625 3.5625 15.9825 3.5625 16.5C3.5625 17.0175 3.9825 17.4375 4.5 17.4375H7.5C8.0175 17.4375 8.4375 17.0175 8.4375 16.5C8.4375 15.9825 8.0175 15.5625 7.5 15.5625ZM15 15.5625H10.5C9.9825 15.5625 9.5625 15.9825 9.5625 16.5C9.5625 17.0175 9.9825 17.4375 10.5 17.4375H15C15.5175 17.4375 15.9375 17.0175 15.9375 16.5C15.9375 15.9825 15.5175 15.5625 15 15.5625Z" fill="#F2F2F2"/>
</svg>
