<svg width="187" height="306" viewBox="0 0 187 306" fill="none" xmlns="http://www.w3.org/2000/svg">
<path d="M92.8784 298.208C86.5826 303.257 82.5308 305.377 82.5308 305.377H0.623352C0.623352 305.377 17.0797 279.009 20.695 269.846C24.3728 260.683 27.5518 254.761 26.1805 252.018C24.8091 249.276 22.0664 234.627 22.5027 227.334C22.9391 220.041 21.5677 190.806 21.1314 187.564C20.695 184.385 18.5133 174.474 20.508 168.178C22.5027 161.883 26.8038 145.863 27.8012 140.128C28.7985 134.393 29.8582 126.913 29.8582 123.048C29.8582 119.184 32.7256 114.695 33.91 113.075C35.1566 111.454 39.3954 106.405 40.2057 103.101C40.3927 102.478 40.7044 100.92 41.2031 98.9249C43.0108 91.0084 46.6262 75.3001 47.9352 73.8664C49.5559 72.0587 59.3424 75.1754 59.3424 80.4115V197.6C59.3424 206.207 66.3194 213.184 74.926 213.184H147.857C147.857 213.184 138.32 235.063 127.786 253.14C117.251 271.217 99.1742 293.159 92.8784 298.208Z" fill="url(#paint0_linear_1204_3913)"/>
<path fill-rule="evenodd" clip-rule="evenodd" d="M49.0031 74.0268C48.6464 74.0922 48.4715 74.2018 48.3993 74.2823L48.3955 74.2865C48.3722 74.3121 48.3119 74.3961 48.2201 74.5779C48.1334 74.7497 48.0346 74.9761 47.9247 75.2569C47.7053 75.8181 47.4549 76.5633 47.1812 77.4559C46.6344 79.2393 46.0062 81.573 45.3603 84.1178C44.0689 89.2053 42.7147 95.1046 41.8107 99.0634L41.8093 99.0697L41.8078 99.0759C41.5619 100.059 41.3616 100.937 41.1986 101.651L41.1909 101.685C41.0344 102.37 40.9069 102.929 40.8073 103.265C40.3675 105.04 39.0438 107.206 37.7318 109.077C36.7222 110.517 35.6738 111.843 34.9629 112.742C34.7417 113.022 34.5532 113.261 34.4086 113.449C33.8322 114.238 32.8442 115.729 32.0022 117.489C31.1528 119.264 30.4815 121.253 30.4815 123.048C30.4815 126.974 29.4117 134.505 28.4153 140.235C27.4109 146.01 23.1003 162.06 21.1022 168.367C20.1448 171.388 20.1794 175.334 20.5285 178.981C20.7728 181.532 21.1603 183.858 21.4492 185.592C21.5741 186.342 21.6805 186.981 21.7489 187.48L21.7491 187.481C21.9722 189.138 22.4249 197.295 22.7671 205.905C23.1095 214.519 23.3454 223.686 23.1249 227.371C22.9111 230.945 23.4778 236.374 24.2789 241.282C24.6782 243.728 25.1333 246.03 25.5725 247.886C26.0173 249.766 26.4321 251.128 26.738 251.739C27.1635 252.59 27.2066 253.625 27.0355 254.765C26.8635 255.911 26.4628 257.241 25.9167 258.738C25.2913 260.452 24.4494 262.45 23.4996 264.704C22.8018 266.36 22.0457 268.154 21.2746 270.075C19.4449 274.712 14.3982 283.64 9.84022 291.364C7.55508 295.236 5.38329 298.822 3.78288 301.439C2.98263 302.747 2.32512 303.814 1.8676 304.553C1.63884 304.923 1.46006 305.211 1.33843 305.407L1.1529 305.705L1.15232 305.706C1.15218 305.706 1.15211 305.706 0.623307 305.376C0.0945012 305.046 0.0945548 305.046 0.0946708 305.046L0.0952157 305.045L0.097426 305.042L0.279572 304.749C0.400765 304.554 0.579075 304.267 0.807349 303.898C1.2639 303.16 1.92029 302.095 2.71931 300.788C4.31744 298.175 6.48568 294.595 8.76654 290.73C13.3403 282.98 18.3293 274.143 20.1152 269.617L20.1165 269.614C20.9099 267.637 21.6731 265.827 22.3714 264.17C23.3073 261.951 24.1265 260.007 24.7455 258.311C25.2825 256.839 25.6493 255.602 25.8026 254.58C25.9569 253.552 25.883 252.817 25.6229 252.297C25.2431 251.537 24.8008 250.039 24.3593 248.173C23.9122 246.284 23.4517 243.953 23.0485 241.483C22.2444 236.557 21.658 231.015 21.8805 227.296C22.0964 223.688 21.8647 214.591 21.5214 205.954C21.1781 197.315 20.727 189.235 20.5137 187.649C20.4523 187.201 20.3517 186.597 20.2315 185.874C19.9412 184.13 19.5359 181.694 19.2875 179.099C18.9354 175.421 18.8765 171.264 19.9138 167.99C21.9051 161.705 26.1966 145.715 27.187 140.021C28.1853 134.281 29.2348 126.851 29.2348 123.048C29.2348 120.979 29.9973 118.791 30.8776 116.951C31.7631 115.1 32.7981 113.54 33.4066 112.707L33.4112 112.701L33.4158 112.695C33.5729 112.49 33.7725 112.238 34.0038 111.945C34.7151 111.045 35.725 109.767 36.7111 108.361C38.0289 106.482 39.2259 104.479 39.6003 102.953L39.6041 102.937L39.6086 102.922C39.6945 102.636 39.8134 102.117 39.9798 101.388L39.9838 101.371C40.1464 100.659 40.3485 99.7732 40.5968 98.7796C41.5005 94.822 42.8571 88.9125 44.1519 83.811C44.7994 81.26 45.4335 78.903 45.9893 77.0905C46.2669 76.1851 46.5278 75.4061 46.7637 74.8029C46.8815 74.5015 46.9963 74.2356 47.1073 74.016C47.2127 73.8072 47.3335 73.6013 47.4731 73.4479C47.806 73.078 48.2904 72.8901 48.7781 72.8006C49.2774 72.709 49.8559 72.7062 50.4661 72.77C51.6884 72.8978 53.1289 73.3028 54.5051 73.9302C55.8806 74.5572 57.2286 75.4232 58.2415 76.4979C59.2559 77.5741 59.9657 78.8961 59.9657 80.4113V197.6C59.9657 205.862 66.6637 212.56 74.926 212.56H148.809L148.429 213.433L147.857 213.184C148.429 213.433 148.429 213.433 148.429 213.433L148.428 213.434L148.422 213.449L148.401 213.497C148.382 213.539 148.355 213.602 148.318 213.685C148.246 213.85 148.138 214.095 147.997 214.412C147.715 215.047 147.3 215.974 146.77 217.142C145.71 219.479 144.187 222.783 142.334 226.652C138.63 234.389 133.604 244.395 128.324 253.454C123.037 262.526 115.866 272.556 109.231 280.946C102.61 289.32 96.4779 296.12 93.2683 298.694C90.1027 301.233 87.4983 303.038 85.6815 304.209C84.7731 304.795 84.0616 305.223 83.5752 305.505C83.332 305.647 83.1451 305.751 83.018 305.821C82.9544 305.856 82.9059 305.883 82.8727 305.901L82.8345 305.921L82.8212 305.928L82.8203 305.928C82.8202 305.929 82.8197 305.929 82.5308 305.376L82.8197 305.929C82.5147 306.088 82.138 305.97 81.9785 305.665C81.8189 305.36 81.9368 304.984 82.2417 304.824C82.2417 304.824 82.2417 304.824 82.2417 304.824L82.2434 304.823L82.2508 304.819L82.283 304.802C82.3122 304.786 82.3569 304.762 82.4164 304.729C82.5355 304.664 82.7143 304.564 82.9493 304.427C83.4194 304.154 84.1143 303.737 85.0058 303.162C86.7888 302.012 89.3581 300.232 92.4883 297.722C95.5745 295.247 101.629 288.551 108.253 280.173C114.865 271.811 121.999 261.831 127.247 252.826C132.502 243.809 137.512 233.836 141.21 226.114C143.058 222.254 144.578 218.958 145.635 216.627C146.163 215.462 146.577 214.538 146.857 213.906C146.872 213.872 146.887 213.839 146.901 213.807H74.926C65.9751 213.807 58.719 206.551 58.719 197.6V80.4113C58.719 79.3086 58.2055 78.2774 57.3343 77.353C56.4616 76.4272 55.2617 75.6452 53.988 75.0645C52.7149 74.4842 51.4049 74.1217 50.3364 74.0099C49.8013 73.9539 49.3492 73.9633 49.0031 74.0268ZM0.623307 305.376L0.0946708 305.046C-0.0876024 305.338 0.00122085 305.723 0.293272 305.905C0.585324 306.087 0.970046 305.998 1.15232 305.706L0.623307 305.376Z" fill="#0C121C"/>
<path fill-rule="evenodd" clip-rule="evenodd" d="M82.4325 213.387C82.5959 213.333 82.7723 213.421 82.8264 213.585L82.5306 213.683L82.2347 213.781C82.1806 213.617 82.2691 213.441 82.4325 213.387ZM82.5306 213.683C82.2347 213.781 82.2347 213.781 82.2347 213.781L82.2359 213.784L82.2397 213.796L82.2548 213.842C82.2682 213.884 82.2882 213.946 82.314 214.027C82.3657 214.191 82.441 214.434 82.5351 214.748C82.7234 215.378 82.9868 216.296 83.2867 217.447C83.8866 219.749 84.6323 222.984 85.2147 226.712C86.3811 234.177 86.8862 243.577 84.2917 251.422C84.2376 251.585 84.3263 251.761 84.4897 251.816C84.6532 251.87 84.8295 251.781 84.8835 251.617C87.5251 243.63 87.0017 234.111 85.8306 226.616C85.2442 222.863 84.4938 219.607 83.8899 217.29C83.5879 216.13 83.3225 215.205 83.1323 214.57C83.0372 214.252 82.961 214.006 82.9084 213.84C82.8821 213.756 82.8617 213.693 82.8478 213.65L82.832 213.602L82.8279 213.589L82.8264 213.585C82.8263 213.584 82.8264 213.585 82.5306 213.683Z" fill="#0C121C"/>
<path fill-rule="evenodd" clip-rule="evenodd" d="M59.3594 148.668C59.5313 148.677 59.6631 148.824 59.6538 148.996C59.6241 149.546 59.59 150.312 59.5487 151.239C59.4465 153.535 59.3005 156.815 59.0691 160.221C58.7448 164.996 58.2502 170.064 57.4623 173.057C57.4185 173.224 57.248 173.323 57.0816 173.28C56.9151 173.236 56.8157 173.065 56.8595 172.899C57.6299 169.971 58.1223 164.961 58.4472 160.178C58.6781 156.78 58.8232 153.52 58.9254 151.225C58.9668 150.293 59.0012 149.52 59.0314 148.963C59.0406 148.791 59.1875 148.659 59.3594 148.668Z" fill="black"/>
<path d="M162.194 15.5836C162.194 6.97702 155.217 0 146.611 0H74.3028C65.6962 0 58.7192 6.97702 58.7192 15.5836V198.224C58.7192 206.83 65.6962 213.807 74.3028 213.807H146.611C155.217 213.807 162.194 206.83 162.194 198.224V15.5836Z" fill="#1E1E1E"/>
<path fill-rule="evenodd" clip-rule="evenodd" d="M74.3028 1.24669H146.611C154.529 1.24669 160.948 7.66555 160.948 15.5836V198.224C160.948 206.142 154.529 212.561 146.611 212.561H74.3028C66.3847 212.561 59.9659 206.142 59.9659 198.224V15.5836C59.9659 7.66555 66.3847 1.24669 74.3028 1.24669ZM146.611 0C155.217 0 162.194 6.97702 162.194 15.5836V198.224C162.194 206.83 155.217 213.807 146.611 213.807H74.3028C65.6962 213.807 58.7192 206.83 58.7192 198.224V15.5836C58.7192 6.97702 65.6962 0 74.3028 0H146.611Z" fill="black"/>
<path fill-rule="evenodd" clip-rule="evenodd" d="M64.3293 196.977V16.207C64.3293 10.3545 69.0737 5.61016 74.9262 5.61016H83.0296C84.0624 5.61016 84.8997 6.4474 84.8997 7.48019V8.10354C84.8997 10.8576 87.1323 13.0903 89.8864 13.0903H131.027C133.781 13.0903 136.014 10.8576 136.014 8.10354V7.48019C136.014 6.4474 136.851 5.61016 137.884 5.61016H145.987C151.84 5.61016 156.584 10.3545 156.584 16.207V196.977C156.584 202.829 151.84 207.574 145.987 207.574H74.9262C69.0737 207.574 64.3293 202.829 64.3293 196.977ZM63.7059 16.207V196.977C63.7059 203.174 68.7294 208.197 74.9262 208.197H145.987C152.184 208.197 157.208 203.174 157.208 196.977V16.207C157.208 10.0103 152.184 4.98682 145.987 4.98682H137.884C136.507 4.98682 135.391 6.10314 135.391 7.48019V8.10354C135.391 10.5134 133.437 12.467 131.027 12.467H89.8864C87.4766 12.467 85.523 10.5134 85.523 8.10354V7.48019C85.523 6.10314 84.4067 4.98682 83.0296 4.98682H74.9262C68.7294 4.98682 63.7059 10.0103 63.7059 16.207Z" fill="url(#paint1_linear_1204_3913)"/>
<path d="M161.571 79.1648C161.571 79.1648 175.659 79.1648 179.586 81.2842C183.575 83.4035 186.006 85.2736 186.006 87.3929C186.006 89.5123 187.502 97.1171 171.358 102.603L166.464 103.974C166.464 103.974 171.794 105.283 173.976 107.963C176.157 110.581 177.778 112.202 178.09 116.254C178.09 119.308 178.775 132.71 177.778 134.954L179.96 137.759C182.017 140.502 182.453 147.172 181.83 150.538C181.543 152.115 180.359 155.856 179.085 159.576C179.085 159.576 180.583 161.446 182.017 163.753C183.451 166.059 184.386 169.674 183.388 173.664C182.391 177.653 179.399 183.762 176.407 188.063C173.352 192.302 171.482 194.047 169.488 194.234C167.867 194.421 163.067 191.928 160.449 189.434C158.454 187.627 158.018 186.131 159.452 182.515C160.142 180.804 160.832 179.019 161.571 177.344V165.891C159.641 163.234 159.198 159.535 160.137 155.836C160.435 154.671 160.93 153.209 161.571 151.699V134.019V119.682V105.345V79.1648Z" fill="url(#paint2_linear_1204_3913)"/>
<path fill-rule="evenodd" clip-rule="evenodd" d="M161.571 78.5415L161.571 79.1648C161.571 78.5415 161.571 78.5415 161.571 78.5415L161.613 78.5416L161.733 78.542C161.839 78.5426 161.993 78.5436 162.191 78.5457C162.586 78.5498 163.154 78.5582 163.849 78.5748C165.236 78.608 167.129 78.6746 169.147 78.8078C171.163 78.9409 173.313 79.1411 175.212 79.4434C177.088 79.7418 178.797 80.1508 179.88 80.7347C181.884 81.7996 183.544 82.8255 184.709 83.8756C185.87 84.9222 186.63 86.0749 186.63 87.393C186.63 87.5222 186.636 87.6794 186.644 87.8617C186.696 89.0776 186.795 91.4123 185.276 94.0469C183.529 97.0777 179.711 100.423 171.558 103.193L171.542 103.198L168.656 104.007C168.965 104.119 169.296 104.246 169.64 104.387C171.261 105.056 173.262 106.101 174.457 107.567C174.619 107.761 174.779 107.951 174.937 108.139C175.821 109.19 176.637 110.158 177.273 111.259C178.04 112.584 178.549 114.094 178.711 116.206L178.713 116.23V116.254C178.713 116.939 178.747 118.118 178.788 119.573C178.84 121.392 178.905 123.642 178.931 125.901C178.955 127.911 178.947 129.906 178.87 131.544C178.832 132.363 178.776 133.101 178.696 133.712C178.641 134.131 178.572 134.518 178.479 134.84L180.455 137.381L180.458 137.385C181.591 138.895 182.228 141.389 182.519 143.841C182.812 146.316 182.769 148.89 182.443 150.65C182.154 152.236 181.012 155.857 179.784 159.458C179.8 159.479 179.817 159.501 179.835 159.524C180.001 159.739 180.236 160.049 180.516 160.431C181.076 161.195 181.819 162.253 182.546 163.424C184.063 165.863 185.034 169.651 183.993 173.815C182.972 177.898 179.94 184.076 176.918 188.419L176.915 188.423L176.912 188.428C175.38 190.555 174.117 192.095 172.967 193.131C171.811 194.172 170.726 194.743 169.552 194.854C169 194.916 168.286 194.753 167.558 194.503C166.8 194.244 165.936 193.857 165.052 193.391C163.289 192.462 161.386 191.186 160.025 189.891C158.988 188.951 158.263 188.009 158.05 186.758C157.841 185.532 158.144 184.121 158.872 182.286L158.874 182.282C159.037 181.877 159.201 181.466 159.366 181.052C159.878 179.77 160.4 178.462 160.948 177.213V166.09C158.984 163.261 158.58 159.436 159.533 155.683L159.533 155.682C159.832 154.512 160.32 153.066 160.948 151.573V78.5415L161.571 78.5415ZM162.194 148.927C162.972 147.454 163.869 146.051 164.845 144.951L164.857 144.937L164.87 144.923L165.311 145.364C164.87 144.923 164.87 144.923 164.87 144.923L164.871 144.923L164.872 144.922L164.873 144.921L164.877 144.916L164.89 144.904C164.901 144.894 164.915 144.88 164.933 144.864C164.968 144.831 165.019 144.786 165.081 144.733C165.206 144.629 165.384 144.491 165.599 144.358C166.002 144.11 166.659 143.801 167.366 143.942L167.121 145.165C166.893 145.119 166.584 145.216 166.254 145.419C166.103 145.512 165.974 145.612 165.882 145.689C165.837 145.727 165.802 145.758 165.779 145.779C165.772 145.786 165.767 145.791 165.762 145.795C164.368 147.374 163.1 149.693 162.145 151.943C161.514 153.428 161.03 154.86 160.742 155.99C159.835 159.56 160.282 163.056 162.075 165.525C162.184 165.674 162.297 165.82 162.415 165.961C164.809 168.598 167.128 170.414 170.115 171.059C171.794 171.406 172.796 171.117 173.461 170.663C174.159 170.187 174.58 169.473 174.991 168.744C175.18 168.411 175.675 167.191 176.329 165.442C176.973 163.722 177.75 161.552 178.495 159.374C179.774 155.64 180.94 151.948 181.217 150.426L181.217 150.424C181.514 148.818 181.564 146.375 181.281 143.988C180.995 141.581 180.387 139.371 179.464 138.137L177.86 136.075C177.247 136.952 176.339 137.646 175.068 138.049C173.43 138.57 171.223 138.599 168.302 137.996L168.294 137.994C165.395 137.357 163.603 136.488 162.521 135.75C162.404 135.67 162.295 135.591 162.194 135.515V148.927ZM162.194 133.821C162.223 133.856 162.259 133.899 162.305 133.949C162.471 134.131 162.76 134.403 163.224 134.72C164.151 135.352 165.787 136.166 168.558 136.776C171.369 137.356 173.337 137.291 174.691 136.861C176.017 136.44 176.782 135.66 177.208 134.701C177.294 134.509 177.384 134.132 177.46 133.551C177.533 132.988 177.587 132.287 177.625 131.486C177.7 129.884 177.708 127.918 177.685 125.915C177.659 123.721 177.595 121.457 177.543 119.617C177.501 118.153 177.467 116.957 177.466 116.278C177.315 114.351 176.858 113.031 176.194 111.883C175.617 110.885 174.883 110.012 173.997 108.959C173.835 108.767 173.668 108.568 173.497 108.362L173.492 108.357C172.505 107.144 170.752 106.195 169.164 105.54C168.383 105.218 167.668 104.977 167.147 104.816C166.888 104.736 166.677 104.676 166.533 104.637C166.511 104.631 166.49 104.625 166.47 104.62L162.194 105.818V133.821ZM162.194 104.523L171.173 102.007C179.154 99.2927 182.656 96.0951 184.196 93.4242C185.522 91.1251 185.445 89.155 185.398 87.9307C185.39 87.731 185.383 87.5512 185.383 87.393C185.383 86.5917 184.926 85.7497 183.875 84.8016C182.827 83.8573 181.278 82.8888 179.293 81.8347L179.29 81.8328C178.409 81.3575 176.885 80.972 175.016 80.6746C173.17 80.3807 171.062 80.1836 169.065 80.0518C167.07 79.92 165.195 79.8541 163.819 79.8211C163.141 79.8049 162.584 79.7966 162.194 79.7925V104.523ZM162.194 167.551V174.603C162.809 173.442 163.475 172.383 164.213 171.515L165.163 172.322C164.043 173.639 163.066 175.501 162.141 177.596C161.584 178.858 161.056 180.181 160.53 181.499C160.364 181.916 160.198 182.333 160.031 182.747C159.325 184.525 159.13 185.67 159.279 186.548C159.424 187.399 159.913 188.107 160.868 188.973L160.873 188.978L160.879 188.983C162.135 190.18 163.939 191.395 165.633 192.288C166.478 192.733 167.282 193.091 167.962 193.324C168.668 193.566 169.159 193.645 169.416 193.615L169.423 193.614L169.429 193.614C170.248 193.537 171.093 193.141 172.133 192.205C173.179 191.262 174.378 189.812 175.898 187.703C178.859 183.444 181.81 177.407 182.783 173.513C183.737 169.698 182.838 166.255 181.487 164.082C180.781 162.946 180.058 161.915 179.51 161.168C179.435 161.065 179.364 160.968 179.296 160.877C178.667 162.685 178.036 164.437 177.497 165.879C176.859 167.583 176.326 168.918 176.077 169.358L176.072 169.366C175.674 170.071 175.129 171.034 174.163 171.693C173.16 172.377 171.795 172.68 169.86 172.28L169.855 172.279C166.811 171.622 164.443 169.887 162.194 167.551Z" fill="#0C121C"/>
<path fill-rule="evenodd" clip-rule="evenodd" d="M53.4681 76.1201C52.7019 74.8972 51.6152 74.2091 50.5922 73.9167L50.7634 73.3174C51.922 73.6484 53.1417 74.4251 53.9963 75.7891C54.8514 77.154 55.3258 79.0821 55.0394 81.692C54.9427 82.5784 54.6005 83.9922 54.1351 85.6185C53.6677 87.2514 53.0699 89.1189 52.4531 90.9222C51.8364 92.7256 51.1997 94.4678 50.6541 95.8505C50.3813 96.5416 50.1305 97.145 49.9157 97.6223C49.7043 98.092 49.5185 98.4606 49.3753 98.6665C48.8004 99.4928 47.7375 99.8528 46.7338 100.027C45.9209 100.168 45.078 100.196 44.4487 100.217C44.2923 100.223 44.1491 100.228 44.0228 100.234L44.0086 100.234L41.1271 100.109L41.1542 99.4862L44.0074 99.6102C44.1427 99.6039 44.2906 99.5988 44.4484 99.5935C45.077 99.572 45.862 99.5451 46.6274 99.4125C47.6028 99.2436 48.4411 98.9179 48.8636 98.3105C48.9697 98.158 49.1346 97.839 49.3473 97.3664C49.5566 96.9013 49.8035 96.3077 50.0742 95.6217C50.6156 94.2499 51.249 92.5169 51.8633 90.7205C52.4777 88.9241 53.0721 87.067 53.5358 85.4469C54.0014 83.8201 54.3294 82.4522 54.4197 81.6244C54.6942 79.123 54.2337 77.3421 53.4681 76.1201Z" fill="white"/>
<path fill-rule="evenodd" clip-rule="evenodd" d="M173.078 175.517C174.089 176.118 175.321 177.02 176.084 178.201C176.861 179.404 177.147 180.896 176.245 182.599L176.245 182.6C175.737 183.552 174.838 184.892 173.937 186.227C173.901 186.281 173.865 186.334 173.829 186.388C172.958 187.679 172.098 188.955 171.566 189.899L171.565 189.901C170.733 191.358 168.852 191.854 167.448 190.943C167.448 190.943 167.448 190.943 167.447 190.943L162.838 188.015C162.838 188.015 162.838 188.015 162.838 188.015C161.522 187.184 161.027 185.51 161.796 184.111L161.797 184.109C162.547 182.766 163.671 180.814 164.702 179.134C165.218 178.295 165.712 177.52 166.126 176.922C166.332 176.623 166.521 176.365 166.685 176.163C166.839 175.973 166.992 175.805 167.129 175.713C167.708 175.306 168.663 174.933 169.727 174.819C170.796 174.705 172.007 174.849 173.078 175.517ZM169.793 175.439C168.817 175.543 167.966 175.886 167.485 176.225L167.478 176.23C167.428 176.263 167.326 176.363 167.169 176.556C167.02 176.74 166.841 176.984 166.638 177.276C166.234 177.861 165.746 178.625 165.233 179.46C164.208 181.131 163.088 183.074 162.342 184.412C161.741 185.506 162.118 186.823 163.171 187.488L163.171 187.488L167.787 190.42C168.877 191.128 170.36 190.752 171.024 189.592C171.568 188.625 172.441 187.331 173.303 186.053C173.342 185.995 173.381 185.937 173.421 185.879C174.328 184.533 175.205 183.224 175.695 182.307C176.476 180.831 176.232 179.58 175.56 178.539C174.874 177.478 173.739 176.635 172.756 176.051L172.75 176.048C171.827 175.471 170.764 175.335 169.793 175.439Z" fill="white"/>
<path fill-rule="evenodd" clip-rule="evenodd" d="M170.171 147.992C171.541 147.628 173.45 148.119 176.209 150.032C178.231 151.424 178.683 153.528 178.642 155.236C178.622 156.091 178.479 156.858 178.342 157.411C178.273 157.688 178.206 157.912 178.155 158.069C178.13 158.147 178.108 158.208 178.093 158.25C178.086 158.271 178.08 158.287 178.075 158.299L178.07 158.312L178.069 158.316L178.068 158.317C178.068 158.317 178.068 158.318 177.778 158.205L178.068 158.318L178.067 158.321L177.785 158.208C178.067 158.321 178.067 158.321 178.067 158.321L177.968 158.567C177.905 158.725 177.813 158.953 177.699 159.233C177.472 159.795 177.158 160.567 176.811 161.409C176.118 163.091 175.29 165.061 174.756 166.191C174.235 167.306 172.842 167.658 171.826 167.078L171.823 167.076C171.212 166.719 170.394 166.198 169.379 165.55C169.142 165.399 168.893 165.24 168.634 165.075L168.629 165.072C165.822 163.211 164.696 161.599 164.317 160.245C164.026 159.204 164.195 158.316 164.307 157.724C164.339 157.559 164.366 157.417 164.377 157.301L164.377 157.3C164.397 157.11 164.472 156.865 164.57 156.602C164.671 156.332 164.807 156.017 164.964 155.679C165.277 155.002 165.681 154.215 166.08 153.469C166.479 152.722 166.874 152.012 167.168 151.49C167.316 151.229 167.438 151.014 167.524 150.865C167.567 150.79 167.601 150.731 167.624 150.692L167.648 150.65C168.091 149.548 168.796 148.358 170.171 147.992ZM168.198 150.944L168.189 150.959L168.164 151.004C168.141 151.043 168.107 151.101 168.065 151.175C167.98 151.323 167.858 151.537 167.711 151.796C167.418 152.316 167.026 153.021 166.63 153.762C166.233 154.504 165.835 155.28 165.529 155.941C165.376 156.272 165.248 156.57 165.154 156.82C165.059 157.076 165.009 157.258 164.997 157.364C164.979 157.543 164.945 157.729 164.908 157.925C164.798 158.511 164.671 159.194 164.917 160.077C165.24 161.231 166.232 162.735 168.971 164.551C169.233 164.717 169.482 164.876 169.72 165.028C170.734 165.675 171.536 166.187 172.136 166.537C172.865 166.953 173.839 166.682 174.191 165.927L174.192 165.926C174.718 164.812 175.541 162.856 176.235 161.172C176.581 160.331 176.895 159.56 177.121 159C177.235 158.719 177.327 158.492 177.39 158.334L177.487 158.093L177.487 158.092L177.488 158.09L177.491 158.081C177.495 158.072 177.5 158.058 177.506 158.04C177.52 158.003 177.539 157.948 177.562 157.876C177.609 157.732 177.672 157.522 177.737 157.261C177.867 156.739 178 156.018 178.019 155.221C178.057 153.625 177.636 151.771 175.855 150.545L175.855 150.545C173.129 148.655 171.423 148.305 170.331 148.595C169.252 148.882 168.648 149.829 168.218 150.903L168.21 150.924L168.198 150.944Z" fill="white"/>
<path fill-rule="evenodd" clip-rule="evenodd" d="M173.338 116.618C176.333 118.573 177.027 122.074 177.277 124.574C177.467 126.283 177.403 129.855 177.341 131.967C177.337 132.725 176.338 132.958 176.003 132.289C175.701 131.686 175.277 131.018 174.792 130.411C174.502 130.049 173.84 129.441 172.982 128.706C172.148 127.993 171.153 127.179 170.188 126.39L170.132 126.344C169.151 125.542 168.204 124.768 167.502 124.158C167.152 123.854 166.857 123.586 166.649 123.374C166.545 123.268 166.456 123.17 166.39 123.084C166.358 123.041 166.326 122.994 166.301 122.946C166.28 122.904 166.246 122.828 166.246 122.737C166.246 122.142 166.563 119.436 167.125 116.812C167.284 116.074 167.671 115.593 168.212 115.341C168.735 115.098 169.361 115.088 169.975 115.191C171.202 115.395 172.537 116.073 173.338 116.618ZM168.475 115.906C168.132 116.066 167.857 116.371 167.735 116.943C167.192 119.476 166.888 122.05 166.87 122.684C166.875 122.69 166.88 122.698 166.888 122.708C166.929 122.763 166.996 122.839 167.093 122.937C167.284 123.131 167.564 123.386 167.911 123.688C168.604 124.29 169.543 125.058 170.526 125.861L170.586 125.91C171.548 126.697 172.548 127.514 173.387 128.233C174.235 128.959 174.945 129.605 175.278 130.022C175.79 130.662 176.239 131.366 176.56 132.01C176.575 132.038 176.59 132.048 176.601 132.053C176.615 132.059 176.633 132.061 176.654 132.056C176.674 132.052 176.689 132.041 176.699 132.03C176.707 132.02 176.718 132.001 176.718 131.962V131.958L176.718 131.953C176.781 129.826 176.842 126.298 176.658 124.641L176.657 124.638L176.657 124.638C176.409 122.152 175.731 118.923 172.995 117.138L172.99 117.135L172.99 117.135C172.232 116.62 170.981 115.99 169.872 115.805C169.318 115.713 168.837 115.738 168.475 115.906ZM166.855 122.66C166.854 122.657 166.854 122.657 166.856 122.661C166.856 122.661 166.856 122.661 166.855 122.66Z" fill="white"/>
<path d="M58.0958 29.9205C58.0958 29.5762 58.3749 29.2971 58.7192 29.2971H59.9659V37.4006H58.7192C58.3749 37.4006 58.0958 37.1215 58.0958 36.7773V29.9205Z" fill="white"/>
<path fill-rule="evenodd" clip-rule="evenodd" d="M59.9659 29.2971H58.7192C58.3749 29.2971 58.0958 29.5762 58.0958 29.9205V36.7773C58.0958 37.1215 58.3749 37.4006 58.7192 37.4006H59.9659V29.2971ZM59.3425 36.7773H58.7192V29.9205H59.3425V36.7773Z" fill="black"/>
<path d="M58.0958 45.5042C58.0958 45.1599 58.3749 44.8809 58.7192 44.8809H59.9659V59.8411H58.7192C58.3749 59.8411 58.0958 59.562 58.0958 59.2178V45.5042Z" fill="white"/>
<path fill-rule="evenodd" clip-rule="evenodd" d="M59.9659 44.8809H58.7192C58.3749 44.8809 58.0958 45.1599 58.0958 45.5042V59.2178C58.0958 59.562 58.3749 59.8411 58.7192 59.8411H59.9659V44.8809ZM59.3425 59.2178H58.7192V45.5042L59.3425 45.5042V59.2178Z" fill="black"/>
<path d="M160.948 49.2441H162.194C162.539 49.2441 162.818 49.5232 162.818 49.8675V74.1779C162.818 74.5222 162.539 74.8013 162.194 74.8013H160.948V49.2441Z" fill="white"/>
<path fill-rule="evenodd" clip-rule="evenodd" d="M161.571 49.8675H162.194L162.194 74.1779H161.571V49.8675ZM162.194 49.2441C162.539 49.2441 162.818 49.5232 162.818 49.8675V74.1779C162.818 74.5222 162.539 74.8013 162.194 74.8013H160.948V49.2441H162.194Z" fill="black"/>
<path d="M58.0958 64.8279C58.0958 64.4837 58.3749 64.2046 58.7192 64.2046H59.9659V79.1649L58.2459 77.1582C58.1491 77.0453 58.0958 76.9014 58.0958 76.7526V64.8279Z" fill="white"/>
<path fill-rule="evenodd" clip-rule="evenodd" d="M59.9659 64.2046H58.7192C58.3749 64.2046 58.0958 64.4837 58.0958 64.8279V76.7526C58.0958 76.9014 58.1491 77.0453 58.2459 77.1582L59.9659 79.1649V64.2046ZM59.3425 77.4798L58.7192 76.7526L58.7192 64.8279L59.3425 64.8279V77.4798Z" fill="black"/>
<path fill-rule="evenodd" clip-rule="evenodd" d="M116.067 6.23345H104.846C104.502 6.23345 104.223 6.51253 104.223 6.8568C104.223 7.20106 104.502 7.48014 104.846 7.48014H116.067C116.411 7.48014 116.69 7.20106 116.69 6.8568C116.69 6.51253 116.411 6.23345 116.067 6.23345ZM104.846 5.61011C104.158 5.61011 103.6 6.16827 103.6 6.8568C103.6 7.54532 104.158 8.10349 104.846 8.10349H116.067C116.755 8.10349 117.313 7.54532 117.313 6.8568C117.313 6.16827 116.755 5.61011 116.067 5.61011H104.846Z" fill="black"/>
<path fill-rule="evenodd" clip-rule="evenodd" d="M121.677 7.48014C122.021 7.48014 122.3 7.20106 122.3 6.8568C122.3 6.51253 122.021 6.23345 121.677 6.23345C121.332 6.23345 121.053 6.51253 121.053 6.8568C121.053 7.20106 121.332 7.48014 121.677 7.48014ZM121.677 8.10349C122.365 8.10349 122.923 7.54532 122.923 6.8568C122.923 6.16827 122.365 5.61011 121.677 5.61011C120.988 5.61011 120.43 6.16827 120.43 6.8568C120.43 7.54532 120.988 8.10349 121.677 8.10349Z" fill="black"/>
<defs>
<linearGradient id="paint0_linear_1204_3913" x1="18.0811" y1="160.36" x2="168.667" y2="159.883" gradientUnits="userSpaceOnUse">
<stop stop-color="#280BF3" stop-opacity="0.68"/>
<stop offset="1" stop-color="#FB4FFD" stop-opacity="0.64"/>
</linearGradient>
<linearGradient id="paint1_linear_1204_3913" x1="146.121" y1="81.1907" x2="50.4899" y2="80.9713" gradientUnits="userSpaceOnUse">
<stop stop-color="#280BF3"/>
<stop offset="1" stop-color="#FB4FFD"/>
</linearGradient>
<linearGradient id="paint2_linear_1204_3913" x1="161.862" y1="122.32" x2="189.921" y2="122.286" gradientUnits="userSpaceOnUse">
<stop stop-color="#280BF3"/>
<stop offset="1" stop-color="#FB4FFD"/>
</linearGradient>
</defs>
</svg>
