<svg width="9" height="9" viewBox="0 0 9 9" fill="none" xmlns="http://www.w3.org/2000/svg">
<g clip-path="url(#clip0_82_1397)">
<path fill-rule="evenodd" clip-rule="evenodd" d="M0.299805 1.20411C0.299805 0.870472 0.569773 0.6 0.903911 0.6H8.0957C8.42934 0.6 8.6998 0.869973 8.6998 1.20411V8.39589C8.6998 8.72953 8.42984 9 8.0957 9H0.903911C0.570272 9 0.299805 8.73003 0.299805 8.39589V1.20411ZM0.899805 3H8.0998V8.4H0.899805V3ZM5.9998 6.9V4.5H5.5543L4.7998 5.25922L5.09082 5.56507L5.48963 5.15847V6.9H5.9998ZM3.5998 6.9C4.14733 6.9 4.4998 6.61785 4.4998 6.21727C4.4998 5.86894 4.19866 5.68433 3.96597 5.65995C4.2192 5.61466 4.46558 5.42308 4.46558 5.13048C4.46558 4.74383 4.13707 4.5 3.60323 4.5C3.20285 4.5 2.91539 4.65675 2.7306 4.86923L2.97357 5.17925C3.13441 5.0225 3.33289 4.93889 3.55532 4.93889C3.79144 4.93889 3.97965 5.02946 3.97965 5.21408C3.97965 5.38476 3.80855 5.4614 3.55532 5.4614C3.46977 5.4614 3.31235 5.46139 3.27129 5.45791V5.90378C3.30551 5.90029 3.4595 5.89681 3.55532 5.89681C3.87357 5.89681 4.01387 5.98041 4.01387 6.16502C4.01387 6.33919 3.85988 6.46111 3.58269 6.46111C3.36026 6.46111 3.11045 6.36357 2.95646 6.19637L2.6998 6.52729C2.86749 6.73629 3.18231 6.9 3.5998 6.9ZM2.0998 0.3C2.0998 0.134315 2.22823 0 2.40262 0H2.99699C3.16423 0 3.2998 0.13916 3.2998 0.3V0.6H2.0998V0.3ZM5.6998 0.3C5.6998 0.134315 5.82823 0 6.00261 0H6.59699C6.76423 0 6.8998 0.13916 6.8998 0.3V0.6H5.6998V0.3Z" fill="url(#paint0_linear_82_1397)"/>
</g>
<defs>
<linearGradient id="paint0_linear_82_1397" x1="4.4998" y1="0" x2="4.4998" y2="9" gradientUnits="userSpaceOnUse">
<stop stop-color="#0B68F3"/>
<stop offset="1" stop-color="#0B9FF3"/>
</linearGradient>
<clipPath id="clip0_82_1397">
<rect width="9" height="9" fill="white"/>
</clipPath>
</defs>
</svg>
