<svg width="16" height="16" viewBox="0 0 16 16" fill="none" xmlns="http://www.w3.org/2000/svg">
<path fill-rule="evenodd" clip-rule="evenodd" d="M14.0809 1.80454C13.2998 1.02349 12.0336 1.02348 11.2525 1.80454L10.1326 2.9244L4.86197 8.19504C4.77653 8.2805 4.71592 8.38757 4.68661 8.50477L4.01995 11.1714C3.96315 11.3986 4.02971 11.639 4.1953 11.8045C4.36089 11.9701 4.60121 12.0367 4.8284 11.9799L7.49504 11.3132C7.61231 11.2839 7.71931 11.2233 7.80477 11.1378L13.0371 5.90555L14.1953 4.74734C14.9764 3.9663 14.9764 2.69996 14.1953 1.91892L14.0809 1.80454ZM12.1953 2.74734C12.4556 2.487 12.8778 2.487 13.1381 2.74734L13.2525 2.86172C13.5128 3.12208 13.5128 3.54419 13.2525 3.80454L12.5748 4.48222L11.5379 3.40476L12.1953 2.74734ZM10.5949 4.34774L11.6318 5.4252L6.99257 10.0645L5.58295 10.4169L5.93535 9.0073L10.5949 4.34774ZM2.66671 5.33313C2.66671 4.96494 2.96519 4.66646 3.33337 4.66646H6.66671C7.03491 4.66646 7.33337 4.36799 7.33337 3.9998C7.33337 3.63161 7.03491 3.33313 6.66671 3.33313H3.33337C2.22881 3.33313 1.33337 4.22856 1.33337 5.33313V12.6664C1.33337 13.771 2.22881 14.6664 3.33337 14.6664H10.6667C11.7713 14.6664 12.6667 13.771 12.6667 12.6664V9.3331C12.6667 8.96497 12.3682 8.66644 12 8.66644C11.6318 8.66644 11.3334 8.96497 11.3334 9.3331V12.6664C11.3334 13.0346 11.0349 13.3331 10.6667 13.3331H3.33337C2.96519 13.3331 2.66671 13.0346 2.66671 12.6664V5.33313Z" fill="white"/>
</svg>
