<svg width="18" height="18" viewBox="0 0 18 18" fill="none" xmlns="http://www.w3.org/2000/svg">
<path d="M15.9599 4.8001L8.80493 11.9551C8.09243 12.6676 5.9774 12.9976 5.5049 12.5251C5.0324 12.0526 5.3549 9.93756 6.0674 9.22506L13.2299 2.06258C13.4066 1.86987 13.6204 1.71497 13.8586 1.60719C14.0967 1.49942 14.3543 1.44099 14.6156 1.43549C14.8769 1.42999 15.1367 1.47749 15.3792 1.57515C15.6217 1.67281 15.8419 1.81861 16.0265 2.00371C16.211 2.18881 16.3562 2.40938 16.4532 2.65213C16.5502 2.89488 16.5971 3.15476 16.5908 3.41609C16.5846 3.67743 16.5254 3.93482 16.4171 4.17269C16.3086 4.41055 16.1531 4.62399 15.9599 4.8001Z" stroke="url(#paint0_linear_744_3169)" stroke-linecap="round" stroke-linejoin="round"/>
<path d="M8.25 3H4.5C3.70435 3 2.94133 3.31606 2.37872 3.87868C1.81612 4.44129 1.5 5.20435 1.5 6V13.5C1.5 14.2957 1.81612 15.0587 2.37872 15.6213C2.94133 16.1839 3.70435 16.5 4.5 16.5H12.75C14.4075 16.5 15 15.15 15 13.5V9.75" stroke="url(#paint1_linear_744_3169)" stroke-linecap="round" stroke-linejoin="round"/>
<defs>
<linearGradient id="paint0_linear_744_3169" x1="6.62317" y1="5.67662" x2="18.1896" y2="5.61895" gradientUnits="userSpaceOnUse">
<stop stop-color="#280BF3"/>
<stop offset="1" stop-color="#FB4FFD"/>
</linearGradient>
<linearGradient id="paint1_linear_744_3169" x1="3.10071" y1="8.0625" x2="16.9079" y2="7.99364" gradientUnits="userSpaceOnUse">
<stop stop-color="#280BF3"/>
<stop offset="1" stop-color="#FB4FFD"/>
</linearGradient>
</defs>
</svg>
