<svg width="22" height="20" viewBox="0 0 22 20" fill="none" xmlns="http://www.w3.org/2000/svg">
<path fill-rule="evenodd" clip-rule="evenodd" d="M2.88534 3.2371C2.20538 3.86848 1.75 4.89295 1.75 6.5V13.5C1.75 15.107 2.20538 16.1315 2.88534 16.7629C3.57535 17.4036 4.61497 17.75 6 17.75H16C17.385 17.75 18.4246 17.4036 19.1147 16.7629C19.7946 16.1315 20.25 15.107 20.25 13.5V6.5C20.25 4.89295 19.7946 3.86848 19.1147 3.2371C18.4246 2.59637 17.385 2.25 16 2.25H6C4.61497 2.25 3.57535 2.59637 2.88534 3.2371ZM1.86466 2.1379C2.92465 1.15363 4.38503 0.75 6 0.75H16C17.615 0.75 19.0754 1.15363 20.1353 2.1379C21.2054 3.13152 21.75 4.60705 21.75 6.5V13.5C21.75 15.393 21.2054 16.8685 20.1353 17.8621C19.0754 18.8464 17.615 19.25 16 19.25H6C4.38503 19.25 2.92465 18.8464 1.86466 17.8621C0.79462 16.8685 0.25 15.393 0.25 13.5V6.5C0.25 4.60705 0.79462 3.13152 1.86466 2.1379Z" fill="white"/>
<path opacity="0.4" fill-rule="evenodd" clip-rule="evenodd" d="M18.3633 5.31026C18.6166 5.63802 18.5562 6.10904 18.2285 6.3623L12.6814 10.6486C11.691 11.4138 10.3089 11.4138 9.3185 10.6486L3.77144 6.3623C3.44367 6.10904 3.38328 5.63802 3.63655 5.31026C3.88982 4.98249 4.36083 4.9221 4.6886 5.17537L10.2356 9.4616C10.6858 9.8095 11.3141 9.8095 11.7642 9.4616L17.3113 5.17537C17.6391 4.9221 18.1101 4.98249 18.3633 5.31026Z" fill="white"/>
</svg>
