<svg width="65" height="65" viewBox="0 0 65 65" fill="none" xmlns="http://www.w3.org/2000/svg">
<path d="M8.47209 50.9821C7.72281 50.9821 7.02216 50.7852 6.4237 50.4391L24.0764 35.0547L25.7241 36.4885C27.1032 37.687 28.8294 38.2938 30.5395 38.2938C32.2579 38.2938 33.9841 37.687 35.3632 36.4885L37.0101 35.0547L42.9863 40.2646C43.6622 39.1257 44.502 38.0996 45.4763 37.2129L40.0055 32.4462L56.7451 17.842V33.9757C58.3016 34.2596 59.761 34.8162 61.0788 35.5944V15.8481C61.0788 15.289 61.0242 14.7357 60.9219 14.2004C60.6458 12.8134 60.0312 11.5443 59.1727 10.4958C58.9912 10.2672 58.8019 10.0627 58.5964 9.8582C57.0757 8.32893 54.9396 7.375 52.6065 7.375H8.47209C6.13907 7.375 4.01146 8.32893 2.48219 9.8582C2.27754 10.0627 2.08838 10.2672 1.90684 10.4958C1.04762 11.5443 0.433037 12.8134 0.16542 14.2004C0.0545898 14.7357 0 15.289 0 15.8481V46.8452C0 48.0344 0.252256 49.1775 0.701543 50.2097C1.11833 51.1952 1.7338 52.0867 2.48219 52.8342C2.67147 53.0235 2.86063 53.1973 3.06528 53.3705C4.53147 54.5843 6.4237 55.3174 8.47209 55.3174H44.08C43.0494 54.0439 42.2473 52.5795 41.7426 50.982H8.47209V50.9821ZM5.54747 12.9235C6.30437 12.1674 7.32139 11.7097 8.47209 11.7097H52.6067C53.7575 11.7097 54.7829 12.1675 55.5313 12.9235C55.6642 13.0582 55.7906 13.2082 55.9022 13.3574L32.7702 33.5178C32.1317 34.0771 31.3432 34.3533 30.5395 34.3533C29.7433 34.3533 28.9556 34.0771 28.3086 33.5178L5.18604 13.3489C5.28836 13.1997 5.41455 13.0582 5.54747 12.9235ZM4.33367 46.8454V17.8343L21.0742 32.4378L4.34218 47.026C4.33367 46.9707 4.33367 46.9085 4.33367 46.8454Z" fill="url(#paint0_linear_1204_5294)"/>
<path d="M54.3721 36.3701C48.5025 36.3701 43.7459 41.1283 43.7459 46.998C43.7459 52.8668 48.5025 57.625 54.3721 57.625C60.2427 57.625 65 52.8668 65 46.998C65 41.1282 60.2427 36.3701 54.3721 36.3701ZM56.0155 52.0808H53.4345V44.918H53.4037L51.5319 45.802L51.1414 43.5397L53.7635 42.3411H56.0157L56.0155 52.0808Z" fill="url(#paint1_linear_1204_5294)"/>
<defs>
<linearGradient id="paint0_linear_1204_5294" x1="34.9894" y1="55.3174" x2="58.8813" y2="-28.5463" gradientUnits="userSpaceOnUse">
<stop stop-color="#131392"/>
<stop offset="1" stop-color="#A310C0"/>
</linearGradient>
<linearGradient id="paint1_linear_1204_5294" x1="55.9215" y1="57.625" x2="68.8134" y2="22.1064" gradientUnits="userSpaceOnUse">
<stop stop-color="#131392"/>
<stop offset="1" stop-color="#A310C0"/>
</linearGradient>
</defs>
</svg>
