<svg width="16" height="16" viewBox="0 0 16 16" fill="none" xmlns="http://www.w3.org/2000/svg">
<g clip-path="url(#clip0_729_2514)">
<path fill-rule="evenodd" clip-rule="evenodd" d="M15.769 14.6371C16.0818 14.9499 16.0818 15.4564 15.769 15.7684C15.4562 16.0812 14.9498 16.0812 14.6378 15.7684L12.3498 13.4805C12.8602 13.2557 13.353 12.9914 13.8234 12.6914L15.769 14.6371ZM2.1794 12.6891C2.6498 12.9891 3.1418 13.2533 3.653 13.4789L1.3658 15.7653C1.0538 16.0781 0.5466 16.0781 0.2346 15.7653C-0.0782 15.4532 -0.0782 14.9468 0.2346 14.634L2.1794 12.6891ZM0.237798 1.36838C-0.0750018 1.05638 -0.0750018 0.549925 0.237798 0.237125C0.549798 -0.075675 1.0562 -0.075675 1.369 0.237125L3.9018 2.76994C3.3818 2.98434 2.881 3.24046 2.401 3.53166L0.237798 1.36838ZM13.6018 3.52931C13.121 3.23891 12.6202 2.98198 12.1002 2.76838L14.6346 0.234C14.9466 -0.078 15.4538 -0.078 15.7658 0.234C16.0786 0.5468 16.0786 1.05325 15.7658 1.36525L13.6018 3.52931ZM9.6034 8.1797C9.6034 9.0629 8.8866 9.7797 8.0034 9.7797C7.1194 9.7797 6.4034 9.0629 6.4034 8.1797C6.4034 7.2957 7.1194 6.5797 8.0034 6.5797C8.8866 6.5797 9.6034 7.2957 9.6034 8.1797ZM8.0034 11.2028C5.6122 11.2028 3.3594 10.0645 1.9226 8.1797C3.3594 6.2941 5.6122 5.15548 8.0034 5.15548C10.3946 5.15548 12.6474 6.2941 14.0842 8.1797C12.6474 10.0645 10.3946 11.2028 8.0034 11.2028ZM16.0034 8.1797C14.4034 5.4181 11.4242 3.55548 8.0034 3.55548C4.5826 3.55548 1.6026 5.4181 0.00339883 8.1797C1.6026 10.9405 4.5826 12.8027 8.0034 12.8027C11.4242 12.8027 14.4034 10.9405 16.0034 8.1797Z" fill="white"/>
</g>
<defs>
<clipPath id="clip0_729_2514">
<rect width="16" height="16" fill="white"/>
</clipPath>
</defs>
</svg>
