<svg width="24" height="24" viewBox="0 0 24 24" fill="none" xmlns="http://www.w3.org/2000/svg">
<path fill-rule="evenodd" clip-rule="evenodd" d="M5.1492 5.63034C5.27895 6.11554 5.5054 6.58274 5.8085 7.00814H3.5C2.67086 7.00814 2 7.67899 2 8.50814V9.50814C2 10.3373 2.67086 11.0081 3.5 11.0081H11.5V19.5081C11.5 19.7843 11.7238 20.0081 12 20.0081C12.2761 20.0081 12.5 19.7843 12.5 19.5081V11.0081H20V20.5081C20 20.785 19.7768 21.0081 19.5 21.0081H4.5C4.22314 21.0081 4 20.785 4 20.5081V12.5201C4 12.244 3.77614 12.0201 3.5 12.0201C3.22386 12.0201 3 12.244 3 12.5201V20.5081C3 21.3373 3.67086 22.0081 4.5 22.0081H19.5C20.3291 22.0081 21 21.3373 21 20.5081V10.9229C21.5829 10.7173 22 10.1619 22 9.50814V8.50814C22 7.67899 21.3291 7.00814 20.5 7.00814H18.1929C18.4958 6.58314 18.7222 6.11609 18.8527 5.63049C19.3803 3.66035 18.1649 2.00073 16.1739 2.00073C15.1636 2.00073 14.0554 2.43188 13.1638 3.14787C12.9485 3.32078 12.9141 3.63549 13.087 3.8508C13.2599 4.06611 13.5746 4.10049 13.7899 3.92759C14.5121 3.34768 15.4038 3.00073 16.1739 3.00073C17.496 3.00073 18.2471 4.02625 17.8869 5.37139C17.7265 5.96819 17.3661 6.54324 16.8697 7.00814H12.5V6.54109C12.5006 6.53199 12.5009 6.52279 12.501 6.51359C12.5051 6.16339 12.458 5.66954 12.3766 5.36974C11.885 3.53377 9.75525 2.00073 7.8281 2.00073C5.8361 2.00073 4.62049 3.6605 5.1492 5.63034ZM6.1151 5.37154C6.27445 5.96734 6.63485 6.54239 7.1315 7.00814H11.5V6.50814C11.5 6.49589 11.5004 6.48374 11.5013 6.47169C11.5013 6.20664 11.4634 5.82274 11.4111 5.63009C11.0395 4.24235 9.3146 3.00073 7.8281 3.00073C6.505 3.00073 5.754 4.02611 6.1151 5.37154ZM12.5 10.0081H20.5C20.7768 10.0081 21 9.78499 21 9.50814V8.50814C21 8.23129 20.7768 8.00814 20.5 8.00814H12.5V10.0081ZM11.5 8.00814H3.5C3.22314 8.00814 3 8.23129 3 8.50814V9.50814C3 9.78499 3.22314 10.0081 3.5 10.0081H11.5V8.00814Z" fill="url(#paint0_linear_1204_6105)"/>
<defs>
<linearGradient id="paint0_linear_1204_6105" x1="4.37143" y1="9.50351" x2="24.8265" y2="9.40154" gradientUnits="userSpaceOnUse">
<stop stop-color="#280BF3"/>
<stop offset="1" stop-color="#FB4FFD"/>
</linearGradient>
</defs>
</svg>
