<svg width="21" height="20" viewBox="0 0 21 20" fill="none" xmlns="http://www.w3.org/2000/svg">
<path d="M7.53734 8.55119L9.62166 10.1589C9.70198 10.8069 10.2482 11.3107 10.918 11.3107C11.6434 11.3107 12.2311 10.7226 12.2311 9.99754C12.2311 9.96976 12.2248 9.94332 12.2228 9.91587L15.2771 6.30255C15.49 6.06354 15.494 5.71912 15.2858 5.53437C15.0779 5.34925 14.7369 5.39342 14.524 5.63275L11.5232 8.83874C11.3411 8.74334 11.1376 8.68442 10.918 8.68442C10.6834 8.68442 10.4661 8.75102 10.2753 8.85916L8.31316 7.49281C8.0601 7.30638 7.68054 7.39271 7.46597 7.68532C7.25217 7.97712 7.28363 8.36509 7.53734 8.55119Z" fill="white"/>
<path d="M17.9895 2.92882C16.1837 1.12064 13.6759 -0.000694233 10.9181 3.22468e-07V2.42404C13.0142 2.42473 14.9004 3.27025 16.2754 4.64294C17.6477 6.01763 18.4932 7.90412 18.4939 9.99984C18.4932 12.0955 17.6477 13.982 16.2754 15.3567C14.9004 16.7297 13.0142 17.5753 10.9181 17.5756C8.82246 17.5753 6.93597 16.7297 5.56124 15.3567C4.18856 13.982 3.34304 12.0955 3.34238 9.99984C3.34271 9.31264 3.43644 8.65089 3.60648 8.0206L4.58891 8.6325C4.71911 8.71319 4.87743 8.73027 5.00731 8.67704C5.13818 8.62315 5.22385 8.50699 5.2339 8.36775L5.65701 2.82708C5.66837 2.6684 5.58134 2.50841 5.43344 2.41538C5.28416 2.3237 5.10173 2.31528 4.96482 2.39662L0.178604 5.21864C0.0577926 5.28928 -0.008517 5.41712 0.000879917 5.55771C0.010236 5.69899 0.0949308 5.8332 0.225466 5.91418L1.47967 6.69543C1.11719 7.73142 0.918019 8.84406 0.918019 9.99984C0.917366 12.7573 2.03936 15.265 3.84688 17.0712C5.65301 18.8787 8.16043 20.0007 10.9182 20C13.6756 20.0007 16.1837 18.8787 17.9896 17.0712C19.797 15.265 20.9191 12.7573 20.9184 9.99984C20.919 7.24209 19.797 4.73433 17.9895 2.92882Z" fill="white"/>
</svg>
