<svg width="52" height="26" viewBox="0 0 52 26" fill="none" xmlns="http://www.w3.org/2000/svg">
<path fill-rule="evenodd" clip-rule="evenodd" d="M49.2328 3.51507C39.4731 21.663 19.9771 29.0412 1.86954 18.8243C1.26674 18.4841 0.502314 18.6968 0.162106 19.2922C-0.178102 19.8982 0.0345511 20.6636 0.637357 21.0038C20.0462 31.9649 40.9785 24.1508 51.4399 4.70579C51.7674 4.0998 51.5388 3.33423 50.9296 3.00465C50.3204 2.68571 49.5603 2.90908 49.2328 3.51507Z" fill="white"/>
<path d="M17.1076 11.0411C19.1236 11.0411 20.7579 9.40684 20.7579 7.39081C20.7579 5.37477 19.1236 3.74048 17.1076 3.74048C15.0915 3.74048 13.4572 5.37477 13.4572 7.39081C13.4572 9.40684 15.0915 11.0411 17.1076 11.0411Z" fill="white"/>
<path d="M32.2194 7.15797C34.1961 7.15797 35.7985 5.55562 35.7985 3.57898C35.7985 1.60235 34.1961 0 32.2194 0C30.2428 0 28.6404 1.60235 28.6404 3.57898C28.6404 5.55562 30.2428 7.15797 32.2194 7.15797Z" fill="white"/>
</svg>
