<svg width="20" height="20" viewBox="0 0 20 20" fill="none" xmlns="http://www.w3.org/2000/svg">
<g clip-path="url(#clip0_1204_4864)">
<path d="M16.2499 7.50016H14.5833V5.41683C14.5833 4.20125 14.1004 3.03547 13.2408 2.17592C12.3813 1.31638 11.2155 0.833496 9.99992 0.833496H9.16658C7.95101 0.833496 6.78522 1.31638 5.92568 2.17592C5.06614 3.03547 4.58325 4.20125 4.58325 5.41683V7.50016H2.91659C2.69557 7.50016 2.48361 7.58796 2.32733 7.74424C2.17105 7.90052 2.08325 8.11248 2.08325 8.3335V18.3335C2.08325 18.5545 2.17105 18.7665 2.32733 18.9228C2.48361 19.079 2.69557 19.1668 2.91659 19.1668H16.2499C16.4709 19.1668 16.6829 19.079 16.8392 18.9228C16.9955 18.7665 17.0833 18.5545 17.0833 18.3335V8.3335C17.0833 8.11248 16.9955 7.90052 16.8392 7.74424C16.6829 7.58796 16.4709 7.50016 16.2499 7.50016ZM6.24992 5.41683C6.24992 4.64328 6.55721 3.90142 7.10419 3.35443C7.65117 2.80745 8.39304 2.50016 9.16658 2.50016H9.99992C10.7735 2.50016 11.5153 2.80745 12.0623 3.35443C12.6093 3.90142 12.9166 4.64328 12.9166 5.41683V7.50016H6.24992V5.41683ZM15.4166 17.5002H3.74992V9.16683H15.4166V17.5002Z" fill="white"/>
<path d="M6.25 14.5835C6.94036 14.5835 7.5 14.0239 7.5 13.3335C7.5 12.6431 6.94036 12.0835 6.25 12.0835C5.55964 12.0835 5 12.6431 5 13.3335C5 14.0239 5.55964 14.5835 6.25 14.5835Z" fill="white"/>
<path d="M9.58325 14.5835C10.2736 14.5835 10.8333 14.0239 10.8333 13.3335C10.8333 12.6431 10.2736 12.0835 9.58325 12.0835C8.8929 12.0835 8.33325 12.6431 8.33325 13.3335C8.33325 14.0239 8.8929 14.5835 9.58325 14.5835Z" fill="white"/>
<path d="M12.9165 14.5835C13.6069 14.5835 14.1665 14.0239 14.1665 13.3335C14.1665 12.6431 13.6069 12.0835 12.9165 12.0835C12.2261 12.0835 11.6665 12.6431 11.6665 13.3335C11.6665 14.0239 12.2261 14.5835 12.9165 14.5835Z" fill="white"/>
</g>
<defs>
<clipPath id="clip0_1204_4864">
<rect width="20" height="20" fill="white"/>
</clipPath>
</defs>
</svg>
