<svg width="24" height="24" viewBox="0 0 24 24" fill="none" xmlns="http://www.w3.org/2000/svg">
<path d="M22 15V9C22 4 20 2 15 2H9C4 2 2 4 2 9V15C2 20 4 22 9 22H15C20 22 22 20 22 15Z" stroke="#F68B29" stroke-width="2" stroke-linecap="round" stroke-linejoin="round"/>
<path fill-rule="evenodd" clip-rule="evenodd" d="M21.8997 7.22607H2.10032C2.03274 7.76969 2 8.36032 2 9.00006V15.0001C2 20.0001 4 22.0001 9 22.0001H15C20 22.0001 22 20.0001 22 15.0001V9.00006C22 8.36032 21.9673 7.76969 21.8997 7.22607ZM15.4268 15.1272C16.1404 14.7526 16.1404 13.7309 15.4268 13.3563L10.3285 10.6804C9.66264 10.3309 8.86377 10.8139 8.86377 11.5659L8.86377 16.9177C8.86377 17.6697 9.66264 18.1526 10.3285 17.8031L15.4268 15.1272Z" fill="#F68B29"/>
<path d="M2.52002 7.10999H21.48" stroke="#F68B29" stroke-width="2" stroke-linecap="round" stroke-linejoin="round"/>
<path d="M7 2.5L10 7" stroke="#F68B29" stroke-width="2" stroke-linecap="round" stroke-linejoin="round"/>
<path d="M13 2L16 7" stroke="#F68B29" stroke-width="2" stroke-linecap="round" stroke-linejoin="round"/>
</svg>
