<svg width="12" height="11" viewBox="0 0 12 11" fill="none" xmlns="http://www.w3.org/2000/svg">
<path d="M6 10.34C5.77333 10.34 5.6 10.28 5.48 10.16C5.36 10.0267 5.3 9.84667 5.3 9.62V5.94H1.68C1.45333 5.94 1.28 5.88 1.16 5.76C1.04 5.64 0.98 5.47333 0.98 5.26C0.98 5.04667 1.04 4.88 1.16 4.76C1.28 4.64 1.45333 4.58 1.68 4.58H5.3V1.02C5.3 0.78 5.36 0.6 5.48 0.48C5.6 0.359999 5.78 0.299999 6.02 0.299999C6.24667 0.299999 6.41333 0.359999 6.52 0.48C6.64 0.6 6.7 0.78 6.7 1.02V4.58H10.32C10.5467 4.58 10.72 4.64 10.84 4.76C10.96 4.88 11.02 5.04667 11.02 5.26C11.02 5.47333 10.96 5.64 10.84 5.76C10.72 5.88 10.5467 5.94 10.32 5.94H6.7V9.62C6.7 9.84667 6.64 10.0267 6.52 10.16C6.41333 10.28 6.24 10.34 6 10.34Z" fill="white"/>
</svg>
