<svg width="20" height="20" viewBox="0 0 20 20" fill="none" xmlns="http://www.w3.org/2000/svg">
<g clip-path="url(#clip0_1204_4765)">
<path d="M12.7929 2.09844C12.9705 2.07523 13.1518 2.06363 13.3324 2.06363C13.3813 2.06363 13.4307 2.06426 13.4795 2.06668H13.4863C13.5918 2.06668 13.6791 1.98246 13.6828 1.87625C13.6864 1.76762 13.6016 1.67605 13.493 1.67238H13.4728H13.4704L13.4679 1.67176H13.4661H13.4648H13.4618H13.4612H13.4593C13.43 1.67113 13.4007 1.66992 13.3714 1.66992H13.3666H13.3659H13.3641H13.3611H13.3604H13.3593H13.358H13.3568H13.3556H13.3544H13.3532H13.352H13.3508H13.3496H13.3484H13.3471H13.3453H13.3447H13.3435H13.3423H13.3397H13.3373H13.3348H13.3323H13.3299H13.328H13.3274H13.3262H13.325H13.3232H13.3225H13.3207H13.3202H13.319H13.3178H13.3166H13.3159H13.3141H13.3135H13.3116H13.3104H13.3092H13.3086H13.3068H13.3043H13.3018H13.3H13.2994H13.2982H13.297H13.2951H13.2945H13.2927H13.292H13.2908H13.2896H13.2884H13.2878H13.2859H13.2853H13.2835H13.2823H13.2811H13.2805H13.2787H13.2768H13.2762H13.2738H13.2719H13.2713H13.2701H13.2689H13.2677H13.267L13.2652 1.67055H13.264H13.2628H13.2616H13.2604H13.2598H13.2579H13.2555H13.2548H13.253H13.2524H13.2512H13.2505H13.2487H13.2481H13.2463H13.2456H13.2444H13.2432L13.2421 1.67117H13.2409H13.2396H13.239H13.2372H13.236H13.2348H13.2336H13.2323H13.2317H13.2299H13.2274H13.225H13.2231H13.2225H13.2207H13.2201H13.2176H13.2164H13.2152H13.214H13.2128H13.2116H13.2109L13.2091 1.6718H13.2079H13.2067H13.2061H13.2042H13.2024H13.2018H13.1993H13.1968H13.1956L13.1944 1.67242H13.1932H13.192H13.1902H13.1895H13.1883H13.1871H13.1859H13.1853H13.1835H13.181H13.1798H13.1786H13.178H13.1768H13.1761H13.1749H13.1737H13.1719H13.1713L13.17 1.67305H13.1688H13.1676H13.1664H13.1652H13.1646H13.1627H13.1615H13.1603L13.1597 1.67367H13.1579H13.1554H13.1529H13.1505H13.1493H13.148H13.1468H13.1456H13.1438H13.1432H13.142H13.1407L13.1395 1.6743H13.1389H13.1371H13.1346H13.1321H13.1297H13.1279H13.1272H13.1249H13.123H13.1224L13.1212 1.67492H13.12H13.1188H13.1182H13.1163H13.1157H13.1139H13.1132H13.1114H13.1089H13.1065L13.1046 1.67555H13.104H13.1022H13.1016H13.1004H13.0991L13.0955 1.67617H13.0948H13.093H13.0905H13.0858H13.0834L13.0815 1.6768H13.0809H13.0772H13.076L13.0748 1.67742H13.0742H13.0723H13.0675H13.065H13.0625L13.0583 1.67805H13.0577H13.0564H13.0552L13.054 1.67867H13.0491H13.0468H13.0443L13.0394 1.6793H13.0376H13.037L13.0309 1.67973H13.0303H13.0284H13.026L13.0211 1.68035H13.0193H13.0186L13.0101 1.68098C12.9197 1.68707 12.8306 1.69625 12.7427 1.70723C12.6353 1.72066 12.5584 1.81953 12.5718 1.92758C12.5853 2.02707 12.6695 2.09969 12.7671 2.09969L12.7929 2.09844Z" fill="white"/>
<path d="M11.4172 2.10327C11.3879 2.10327 11.3592 2.10937 11.3317 2.1228C11.2646 2.15515 11.1987 2.18874 11.134 2.22413L11.1217 2.23022L11.1193 2.23144L11.1156 2.23327V2.2339L11.1138 2.23452H11.1133L11.1096 2.23698L11.1078 2.23819H11.1071L11.1059 2.23882V2.23944L11.1035 2.24065L11.1023 2.24128H11.101L11.0998 2.24249L11.0974 2.2437L11.0962 2.24491H11.095L11.0937 2.24546V2.24608L11.0913 2.24671V2.24733L11.0901 2.24796L11.0889 2.24858H11.0876L11.087 2.24921L11.0864 2.24983L11.0846 2.25104H11.0839L11.0827 2.25226H11.0821L11.0809 2.25288L11.0803 2.25351L11.0784 2.25413L11.0778 2.25476L11.0766 2.25538L11.076 2.25601H11.0753L11.0741 2.25663L11.0717 2.25847L11.0705 2.25909H11.0698L11.0686 2.25972H11.068L11.0643 2.26218L11.0625 2.26339L11.0583 2.26562L11.0565 2.26683H11.0559L11.0504 2.26987C10.9704 2.31503 10.8929 2.36202 10.8166 2.4121C10.7251 2.47132 10.6994 2.59276 10.7587 2.68433C10.7959 2.74229 10.8594 2.77405 10.9241 2.77405C10.9607 2.77405 10.9979 2.76366 11.0308 2.74229C11.1816 2.64464 11.3403 2.55612 11.5026 2.478C11.6003 2.43101 11.6418 2.31319 11.5948 2.21554C11.5613 2.14476 11.4905 2.10327 11.4172 2.10327Z" fill="white"/>
<path d="M15.0597 2.00247L15.056 2.00063H15.0554L15.0536 2.00001L15.0475 1.99755L15.0408 1.9945H15.0401C15.006 1.98106 14.9718 1.96763 14.9364 1.95544C14.9144 1.94688 14.8912 1.94263 14.868 1.94263C14.7887 1.94263 14.713 1.99208 14.6837 2.07142C14.6458 2.17395 14.6983 2.28688 14.8002 2.3247C14.9681 2.38696 15.1341 2.46021 15.294 2.5438C15.3227 2.55845 15.3538 2.56579 15.3844 2.56579C15.4558 2.56579 15.5248 2.52794 15.5595 2.46021C15.6102 2.36438 15.5724 2.24474 15.4759 2.1947C15.3569 2.13243 15.2342 2.07505 15.1091 2.02259L15.1024 2.02013L15.1005 2.01892L15.0963 2.0177L15.0938 2.01649L15.0901 2.01466L15.0877 2.01403L15.0816 2.01157L15.0755 2.00853H15.0743L15.0731 2.0079L15.0682 2.00606L15.0663 2.00544H15.0657L15.062 2.0036V2.00298L15.0597 2.00247Z" fill="white"/>
<path d="M8.35145 13.6223C8.12746 13.4282 7.79664 13.3122 7.35903 13.2738L6.76942 13.2225C6.55883 13.2018 6.40993 13.1517 6.32082 13.0742C6.23172 12.9967 6.18778 12.8862 6.18778 12.7422C6.18778 12.581 6.25004 12.4516 6.37454 12.3515C6.49907 12.252 6.69192 12.202 6.95192 12.202C7.15149 12.202 7.34071 12.2258 7.52079 12.2728C7.70145 12.3192 7.9102 12.4681 7.9102 12.4681C7.95782 12.4932 8.01578 12.4828 8.05301 12.4449L8.40579 12.0873C8.43325 12.0592 8.44606 12.0208 8.43997 11.9817C8.43387 11.9433 8.41067 11.9103 8.37586 11.892C8.37586 11.892 8.09938 11.6753 7.83629 11.6039C7.68188 11.5611 7.51465 11.5337 7.34008 11.516V10.9856H6.58996V11.527C6.50512 11.5404 6.4209 11.5563 6.34157 11.5795C6.15051 11.6344 5.98266 11.7174 5.83864 11.8285C5.6952 11.9384 5.58168 12.0745 5.49805 12.235C5.41504 12.3955 5.37352 12.5786 5.37352 12.7837C5.37352 13.1542 5.48094 13.4313 5.69825 13.6144C5.91371 13.7963 6.22071 13.9074 6.61989 13.9464L7.2925 14.0038C7.49758 14.027 7.64286 14.0789 7.72829 14.1619C7.81496 14.2455 7.85707 14.359 7.85707 14.5025C7.85707 14.7027 7.77039 14.8485 7.59582 14.9438C7.42188 15.0377 7.20094 15.0842 6.93543 15.0842C6.72485 15.0842 6.51368 15.0549 6.30004 14.9975C6.08704 14.9389 5.80567 14.6947 5.80567 14.6947C5.75684 14.6654 5.69457 14.6727 5.65368 14.7131L5.27832 15.0884C5.25145 15.1153 5.23805 15.1531 5.24293 15.1909C5.24782 15.2288 5.26981 15.2624 5.30274 15.2819C5.30274 15.2819 5.68664 15.606 5.98024 15.6865C6.17313 15.739 6.37637 15.7726 6.58996 15.7909V16.4061H7.34008V15.7781C7.4402 15.7647 7.53907 15.7482 7.63305 15.7244C7.84911 15.6682 8.03465 15.584 8.18969 15.4699C8.34411 15.3569 8.4668 15.2172 8.55528 15.0511C8.64375 14.8851 8.68774 14.6917 8.68774 14.4689C8.68774 14.0984 8.57668 13.8164 8.35145 13.6223Z" fill="white"/>
<path d="M6.96533 7.39258C3.48389 7.39258 0.661621 10.2148 0.661621 13.6963C0.661621 17.1777 3.48389 20 6.96533 20C10.4468 20 13.269 17.1777 13.269 13.6963C13.269 10.2148 10.4468 7.39258 6.96533 7.39258ZM6.96533 19.0149C4.03197 19.0149 1.64674 16.629 1.64674 13.6963C1.64674 10.7636 4.03201 8.3777 6.96533 8.3777C9.89748 8.3777 12.2839 10.7636 12.2839 13.6963C12.2839 16.629 9.89744 19.0149 6.96533 19.0149Z" fill="white"/>
<path d="M6.40009 9.49223L6.42571 9.49039C6.60271 9.46781 6.78462 9.45621 6.96528 9.45621C7.01411 9.45621 7.06294 9.45684 7.11177 9.45926H7.11911C7.2247 9.45926 7.312 9.37504 7.31564 9.26883C7.31931 9.1602 7.23384 9.06863 7.12521 9.06496H7.10567H7.10321L7.10075 9.06434H7.10013H7.09829H7.09767H7.09704H7.094H7.09216C7.06286 9.06371 7.03357 9.0625 7.00427 9.0625H6.99939H6.99818H6.99696H6.99634H6.99329H6.99212H6.99091H6.9897H6.98849H6.98728H6.98544H6.98482H6.9836H6.98239H6.98056H6.97993H6.97747H6.97564H6.97501H6.97259H6.97013H6.9695H6.96767H6.96521H6.96275H6.96028H6.95845H6.95782H6.95599H6.95536H6.95306H6.95185H6.95064H6.94942H6.94821H6.947H6.94579H6.94458H6.94337H6.94216H6.94095H6.93974H6.93911H6.93728H6.93482H6.93419H6.93235H6.93052H6.92989H6.92806H6.92743H6.92497H6.92376H6.92255H6.92134H6.92013H6.91892H6.91771H6.9165H6.91528H6.914H6.91278H6.91157H6.91095H6.90911H6.90665H6.90603H6.90419H6.90235H6.90173H6.89989H6.89927L6.89743 9.06313H6.89681H6.8956H6.89446H6.89325H6.89204H6.89083H6.89021H6.88837H6.88716H6.88595H6.88532H6.88349H6.88103H6.87857H6.87673H6.8761L6.87427 9.06375H6.87364H6.87181H6.87118H6.86935H6.86872H6.86751H6.8663H6.86509H6.86446H6.86263H6.86017H6.85954H6.85771H6.85708H6.8554H6.85357H6.85294H6.85048H6.84864H6.84802H6.84618H6.84556H6.84435H6.84314L6.84193 9.06438H6.84071H6.8395H6.83829H6.83708H6.83646H6.83462H6.83216H6.8297H6.82786L6.82724 9.065H6.8254H6.82478H6.82232H6.8211H6.81989H6.81868H6.81747H6.81634H6.81571H6.81388H6.81267H6.81146H6.81083H6.809H6.80716H6.80653H6.80407H6.80345L6.80224 9.06563H6.80161H6.79978H6.79915H6.79794H6.79681H6.7956H6.79439H6.79317L6.79196 9.06625H6.79075H6.79013H6.78829H6.78583H6.78337H6.78153H6.78091H6.77907H6.77845H6.77599H6.77478H6.77357L6.77235 9.06687H6.77114H6.76993H6.76931H6.76747H6.76685H6.76501H6.76439H6.76255H6.76009H6.75775H6.75528L6.75407 9.0675H6.75286H6.75165H6.75103H6.74857H6.74794H6.74673H6.74552H6.74431H6.74368H6.74185H6.73939L6.73692 9.06813H6.73446H6.73263H6.732L6.72775 9.06875H6.72712H6.72591H6.72528H6.72345H6.71868H6.71622L6.71376 9.06938H6.7095H6.70888L6.70767 9.07H6.70646H6.70525H6.70462H6.70036H6.69974H6.6979H6.69544L6.69056 9.07063H6.68872H6.6881L6.68689 9.07125H6.68626H6.682H6.68138H6.67962H6.67716L6.67228 9.07188H6.66982L6.6631 9.0725H6.66126H6.66064H6.6588L6.65392 9.07313H6.65146L6.6429 9.07375H6.64228C6.55255 9.07984 6.46345 9.0884 6.37556 9.1C6.26751 9.11344 6.19122 9.21231 6.20466 9.32035C6.21759 9.41961 6.30243 9.49223 6.40009 9.49223Z" fill="white"/>
<path d="M5.22701 9.60815C5.19345 9.53733 5.12326 9.49585 5.04939 9.49585C5.02072 9.49585 4.99201 9.50194 4.96455 9.51538C4.8974 9.54772 4.8315 9.58132 4.76677 9.61671L4.75455 9.6228L4.75208 9.62401L4.74841 9.62585V9.62647L4.74595 9.6271L4.74228 9.62956L4.74044 9.63077H4.73982L4.73861 9.6314L4.73798 9.63202L4.73615 9.63265L4.73431 9.63386H4.73369L4.73248 9.63507H4.73185L4.73001 9.63628H4.72939L4.72818 9.63749H4.72755L4.7265 9.63804L4.72587 9.63866L4.72404 9.63929L4.72341 9.63991L4.7222 9.64054L4.72158 9.64116H4.72037L4.71974 9.64179L4.71853 9.64241L4.71669 9.64362L4.71548 9.64483H4.71427L4.71306 9.64546V9.64608L4.7106 9.64671V9.64733L4.70939 9.64796L4.70818 9.64843H4.70755L4.70693 9.64905L4.70447 9.65089L4.70326 9.65151H4.70205L4.70083 9.65214L4.69716 9.6546H4.69654L4.6947 9.65581L4.69044 9.65827L4.68861 9.65948L4.68251 9.66253C4.60318 9.70769 4.52505 9.75468 4.44876 9.80476C4.35783 9.86397 4.3322 9.98542 4.3908 10.077C4.42865 10.135 4.49212 10.1667 4.55681 10.1667C4.59345 10.1667 4.63005 10.1563 4.66302 10.135C4.81439 10.0373 4.9731 9.94878 5.13482 9.87065C5.2331 9.82358 5.27458 9.70581 5.22701 9.60815Z" fill="white"/>
<path d="M5.56643 17.7001C5.39674 17.6403 5.22952 17.5695 5.06901 17.4895C5.04034 17.4755 5.01042 17.4688 4.98049 17.4688C4.90846 17.4688 4.83889 17.5084 4.80471 17.5768C4.75588 17.6745 4.79495 17.7929 4.8926 17.8417C4.95241 17.8722 5.01346 17.9009 5.07573 17.9284L5.08182 17.9308L5.08792 17.9339V17.9345L5.09038 17.9351L5.09221 17.9357L5.09284 17.9364H5.09405L5.09467 17.937L5.09651 17.9376L5.09897 17.9388L5.10018 17.9395H5.10139L5.1026 17.9407L5.10506 17.9419L5.1069 17.9425H5.10752L5.10874 17.9431L5.10936 17.9438L5.1112 17.9444L5.11366 17.945V17.9456H5.11487L5.11608 17.9462L5.11729 17.9469H5.11792L5.11975 17.9481H5.12038L5.12159 17.9487L5.12221 17.9493L5.12342 17.95H5.12463L5.12526 17.9506L5.1271 17.9512L5.12772 17.9518H5.12893L5.12956 17.9525L5.13077 17.9531H5.13139L5.13323 17.9543H5.13444L5.13565 17.9549L5.13628 17.9555H5.1369L5.13811 17.9562L5.14057 17.9568V17.9574H5.14178L5.14299 17.958H5.14362L5.14424 17.9587L5.14792 17.9605H5.14913L5.15034 17.9611V17.9618L5.1546 17.9636H5.15522L5.15643 17.9642H5.15706L5.15827 17.9648H5.15889L5.16135 17.9661L5.16256 17.9667H5.16378L5.16499 17.9679L5.16987 17.9697L5.17108 17.9704H5.1717L5.17596 17.9722L5.17842 17.9728L5.18268 17.9753H5.18331L5.18452 17.9759L5.1894 17.9777L5.19061 17.9784H5.19124L5.19733 17.9814H5.19795L5.20405 17.9839L5.20526 17.9851H5.20588L5.21014 17.9863H5.21077L5.21198 17.9875H5.2126L5.21749 17.9893L5.2187 17.99L5.21991 17.9912H5.22053L5.22542 17.993H5.22725L5.23213 17.9955L5.23335 17.9961L5.23823 17.9979L5.23944 17.9986H5.24065L5.24491 18.0004L5.24674 18.001L5.25163 18.0035H5.25284L5.25346 18.0041L5.25467 18.0047H5.2553L5.25897 18.0066L5.26018 18.0072H5.26139V18.0078L5.26565 18.009L5.26627 18.0096H5.26749H5.2687L5.26991 18.0109L5.27237 18.0115L5.27299 18.0121H5.2742L5.27483 18.0127L5.27604 18.0134H5.27725L5.27846 18.014L5.27967 18.0146H5.28088L5.28151 18.0152L5.28213 18.0159H5.28335L5.28518 18.0171H5.28581L5.28702 18.0177H5.28823L5.28944 18.0183H5.29006L5.29069 18.0189L5.29253 18.0196L5.29315 18.0202L5.29436 18.0208H5.29557L5.29678 18.0214H5.29741L5.29924 18.0221H5.29987L5.30171 18.0233L5.30292 18.0239H5.30413L5.30534 18.0245L5.30655 18.0252L5.30776 18.0258H5.30838L5.3096 18.0264L5.31022 18.027L5.31268 18.0277L5.31389 18.0283H5.3151L5.31631 18.0289H5.31694L5.31878 18.0295L5.32124 18.0307L5.32307 18.0314L5.3237 18.032L5.32491 18.0326L5.32737 18.0332L5.32983 18.0345L5.33167 18.0351H5.33229L5.33596 18.0363L5.33842 18.0369C5.37139 18.0497 5.40374 18.0613 5.4367 18.0729C5.45807 18.0803 5.48002 18.0845 5.50202 18.0845C5.5826 18.0845 5.65948 18.0332 5.68756 17.9515C5.72331 17.8478 5.66897 17.7355 5.56643 17.7001Z" fill="white"/>
<path d="M3.61701 16.2982C3.57857 16.2482 3.52057 16.2219 3.46197 16.2219C3.41924 16.2219 3.37713 16.2359 3.34111 16.2634C3.25564 16.3306 3.23978 16.4539 3.30631 16.5399C3.34232 16.5857 3.37892 16.6309 3.41619 16.676L3.41924 16.6797L3.42045 16.6809L3.42412 16.6846V16.6852L3.42533 16.6858V16.687L3.42654 16.6877V16.6883L3.42775 16.6901L3.42896 16.6908V16.692L3.43017 16.6926V16.6932L3.43139 16.6944L3.4326 16.695L3.43322 16.6957L3.43385 16.6969L3.43447 16.6981H3.4351L3.43631 16.6999L3.43756 16.7011L3.43818 16.7017L3.43881 16.7029L3.44002 16.7035L3.44123 16.7054L3.44244 16.7066L3.44365 16.7078L3.44428 16.7084L3.44674 16.7121L3.44736 16.7127L3.44857 16.7133V16.714L3.45103 16.7176L3.45342 16.7188C3.53154 16.8103 3.61334 16.8976 3.69818 16.9824C3.73662 17.0203 3.7867 17.0398 3.83674 17.0398C3.88803 17.0398 3.93807 17.0203 3.97713 16.9818C4.05404 16.9043 4.05283 16.7798 3.97592 16.7029C3.84892 16.5759 3.7281 16.4398 3.61701 16.2982Z" fill="white"/>
<path d="M2.55257 13.4308C2.65206 13.4308 2.73749 13.3557 2.74788 13.2544C2.7662 13.075 2.79671 12.8961 2.83824 12.721C2.86265 12.6154 2.79671 12.5098 2.69113 12.4848L2.64534 12.4792C2.55624 12.4792 2.47566 12.5403 2.45429 12.6312C2.40972 12.821 2.37679 13.0158 2.35601 13.2141C2.34503 13.3216 2.42316 13.4192 2.53179 13.4302L2.55257 13.4308Z" fill="white"/>
<path d="M3.66321 11.0363C3.73157 10.952 3.71813 10.8275 3.63328 10.7591C3.59727 10.7298 3.55332 10.7158 3.50938 10.7158C3.45199 10.7158 3.39586 10.7409 3.3568 10.7884C3.32446 10.8287 3.29332 10.869 3.26219 10.9099L3.25914 10.9141L3.25793 10.9154L3.25426 10.9209H3.25364L3.24938 10.9264L3.24571 10.9319L3.24145 10.9374V10.938L3.23352 10.949C3.18102 11.0192 3.13098 11.0912 3.08336 11.165H3.08274L3.07907 11.1705V11.1712L3.07844 11.1724L3.07598 11.1748V11.1755L3.07535 11.1767L3.07473 11.1779V11.1785L3.07227 11.181L3.07164 11.1822L3.07102 11.1828V11.184H3.06981L3.0686 11.1865V11.1871L3.06797 11.1877L3.06735 11.1889L3.06672 11.1896L3.0661 11.1908L3.06547 11.1914L3.06485 11.1932L3.06422 11.1939L3.0636 11.1945L3.06297 11.1951L3.06235 11.1963L3.06172 11.1975L3.0611 11.1988L3.06047 11.1994L3.05985 11.2006L3.05922 11.2012L3.0586 11.2024L3.05797 11.203L3.05735 11.2049H3.05672L3.0561 11.2067L3.05547 11.2073L3.05485 11.2086H3.05422L3.05176 11.2128C3.03895 11.2323 3.02672 11.2519 3.01512 11.2714C2.95836 11.3642 2.98645 11.4856 3.07922 11.5424C3.11157 11.5626 3.14758 11.5717 3.18297 11.5717C3.24891 11.5717 3.3136 11.5388 3.3502 11.4777C3.44473 11.325 3.54969 11.1766 3.66321 11.0363Z" fill="white"/>
<path d="M2.82156 14.5996C2.8014 14.5068 2.71964 14.4446 2.62929 14.4446L2.58718 14.4483C2.48097 14.4715 2.41324 14.5764 2.43644 14.6826C2.47855 14.8767 2.53289 15.0665 2.59878 15.2515C2.62746 15.3315 2.70316 15.3821 2.78433 15.3821C2.80632 15.3821 2.82828 15.3779 2.85027 15.3705C2.95281 15.3339 3.00589 15.221 2.96992 15.1184C2.90945 14.9493 2.86003 14.7748 2.82156 14.5996Z" fill="white"/>
<path d="M9.30903 17.2668C9.27302 17.2668 9.237 17.2766 9.20403 17.2974C9.05204 17.392 8.89153 17.478 8.72919 17.5531C8.63032 17.5983 8.58638 17.7154 8.63153 17.8143C8.6645 17.8864 8.73653 17.9291 8.81099 17.9291C8.83845 17.9291 8.86591 17.9236 8.89278 17.9114C9.00142 17.8614 9.10825 17.8077 9.21263 17.7497L9.21446 17.7484H9.21509L9.21876 17.746L9.2206 17.7448H9.22122L9.22489 17.7429L9.22611 17.7417H9.22732L9.22853 17.7405L9.23099 17.7393L9.2322 17.7387L9.23341 17.7381L9.23462 17.7374V17.7368L9.23708 17.7362V17.7356L9.23829 17.7349L9.2395 17.7343L9.24013 17.7337L9.24075 17.7331L9.24259 17.7324L9.24321 17.7318L9.24443 17.7312H9.24564L9.24626 17.7306L9.24689 17.7299L9.2481 17.7293L9.24993 17.7281H9.25056L9.25177 17.7275V17.7268L9.25298 17.7262H9.2536L9.25665 17.7244L9.25786 17.7238L9.25907 17.7231H9.2597L9.26396 17.7201L9.26517 17.7195C9.31521 17.6908 9.36466 17.6609 9.41349 17.6309C9.50564 17.573 9.53372 17.4521 9.47634 17.3593C9.43841 17.3004 9.37431 17.2668 9.30903 17.2668Z" fill="white"/>
<path d="M10.8117 15.9167C10.7788 15.896 10.7422 15.8862 10.7055 15.8862C10.6408 15.8862 10.5774 15.918 10.5395 15.9766C10.4431 16.1279 10.3356 16.2751 10.2203 16.4124C10.1507 16.496 10.1617 16.6205 10.2453 16.6901C10.282 16.7212 10.3271 16.7358 10.3711 16.7358C10.4278 16.7358 10.4834 16.7121 10.5224 16.665C10.625 16.5436 10.7202 16.416 10.8093 16.2835L10.8105 16.2817H10.8111L10.813 16.278L10.8136 16.2774L10.8148 16.2756L10.816 16.2744L10.8172 16.2719H10.8179L10.8185 16.2707L10.8191 16.2695L10.8197 16.2683H10.8203L10.8215 16.2664V16.2658L10.8227 16.2646V16.264L10.8239 16.2628V16.2621L10.8251 16.2609V16.2603L10.8263 16.2591V16.2585L10.8275 16.2572V16.256L10.8288 16.2548L10.8294 16.2542L10.83 16.2536V16.2524L10.8312 16.2517L10.8337 16.2475L10.8343 16.2463H10.8349L10.8374 16.242V16.2414L10.8386 16.2402L10.8423 16.2347V16.234L10.8716 16.1889C10.9302 16.0974 10.9033 15.9753 10.8117 15.9167Z" fill="white"/>
<path d="M11.3166 13.0237L11.3551 13.02C11.4618 12.9986 11.5308 12.8955 11.5101 12.788L11.5052 12.7642V12.7636V12.7624H11.5046L11.504 12.7575V12.7569L11.5033 12.7557V12.7551L11.5027 12.7502L11.5021 12.7496L11.5015 12.7483V12.7477V12.7465V12.7459L11.5008 12.7428L11.5002 12.7416V12.741V12.7398L11.4996 12.7386V12.738L11.499 12.7361V12.7349V12.7344V12.7332L11.4983 12.7319L11.4977 12.7307V12.7295V12.7283L11.4971 12.7271V12.7259L11.4965 12.7247V12.7241V12.7228V12.7222L11.4952 12.7204V12.7198V12.7179V12.7173V12.7161L11.4946 12.7149L11.494 12.713V12.7112V12.7106L11.4934 12.7087L11.4927 12.7081V12.7063L11.4921 12.7038L11.4915 12.702V12.7014V12.6995L11.4906 12.6953V12.6947L11.4899 12.6928V12.6922L11.4881 12.6855V12.6837L11.4869 12.6788L11.4863 12.6769L11.4845 12.6703V12.6696L11.4833 12.6611H11.4826C11.4601 12.5598 11.4332 12.4597 11.4039 12.362L11.4014 12.3529L11.3972 12.3401V12.3394L11.3947 12.3315H11.3941L11.3929 12.3248V12.3242L11.3917 12.3224L11.3898 12.3157L11.388 12.3096V12.3089L11.3868 12.3071L11.3856 12.3028V12.3022L11.3849 12.3004L11.3843 12.2998L11.3837 12.2961H11.3831V12.2936L11.3818 12.2918V12.2912V12.2893L11.3806 12.2875V12.2869L11.38 12.285V12.2844L11.3794 12.2826L11.3782 12.2807V12.2801V12.2789V12.2777L11.377 12.2765V12.2758L11.3763 12.274L11.3757 12.2722V12.2716V12.2697L11.3745 12.2691V12.2679V12.2673L11.3734 12.2656V12.265V12.2632L11.3727 12.2625L11.3721 12.2613V12.2607V12.2589L11.3709 12.2582V12.257V12.2558L11.3703 12.2546L11.3697 12.254V12.2534L11.369 12.2515L11.3684 12.2503V12.2497V12.2485L11.3678 12.2473L11.3673 12.2467V12.2455V12.2443L11.3661 12.2425V12.2418V12.2406L11.3654 12.24L11.3648 12.2388V12.2382L11.3642 12.2363L11.3636 12.2351V12.2339V12.2333L11.3629 12.2326L11.3623 12.2314L11.3611 12.2272V12.2266L11.3605 12.2253H11.3599V12.2241V12.2229L11.3586 12.2205V12.2198V12.2186L11.3574 12.2174C11.33 12.135 11.2537 12.0837 11.1713 12.0837C11.1505 12.0837 11.1292 12.0862 11.1084 12.0935C11.0052 12.1283 10.9497 12.24 10.9845 12.3432C11.0413 12.5134 11.0889 12.6892 11.1231 12.865C11.1427 12.959 11.2245 13.0237 11.3166 13.0237Z" fill="white"/>
<path d="M7.45357 17.9094L7.43158 17.9106C7.27775 17.9277 7.12092 17.9363 6.96525 17.9363C6.94084 17.9363 6.9158 17.9356 6.89139 17.9356H6.88834C6.78092 17.9356 6.69303 18.0211 6.69119 18.1285C6.68936 18.2378 6.77541 18.3269 6.88408 18.3293C6.90482 18.33 6.92498 18.33 6.94572 18.33H6.94635H6.94818H6.95185H6.95307H6.95428H6.95549H6.9567H6.95791H6.95975H6.96037H6.96221H6.96283H6.96529H6.96713H6.96775H6.96896H6.96959H6.9708H6.97143H6.97264H6.97385H6.97506H6.97568H6.97689H6.97752H6.97873H6.97994H6.98057H6.98119H6.9824H6.98361H6.98482H6.98545H6.98666H6.98728H6.9885H6.98971H6.99338H6.99521H6.99584H6.99705H6.99826H6.99947H7.00068H7.00189H7.00311H7.00432H7.00494H7.00557H7.00678H7.00799H7.0092H7.01041H7.01162H7.01283H7.01346H7.01529H7.01955H7.02018H7.02139H7.02201H7.02322H7.02385H7.02506H7.02627H7.02748H7.02869H7.0299H7.03119H7.03182H7.03365L7.03486 18.3293H7.03607H7.03728H7.03791H7.03975H7.04584H7.04768H7.04951H7.05014H7.05135H7.05197H7.05318H7.05439H7.0556L7.05744 18.3287H7.05807H7.05928H7.0599H7.06174H7.06295H7.06416H7.06537H7.066H7.07392H7.07576H7.0776H7.08006H7.08127H7.08248H7.08369H7.08615H7.08736H7.08982L7.10568 18.3275H7.10814H7.10998C7.23268 18.3238 7.35475 18.3153 7.47498 18.3025C7.58303 18.2902 7.66115 18.1932 7.64892 18.0846C7.63787 17.9845 7.55244 17.9094 7.45357 17.9094Z" fill="white"/>
<path d="M11.3928 14.0393L11.3696 14.0381C11.2708 14.0381 11.1859 14.1113 11.1743 14.2114C11.1523 14.3897 11.1194 14.5685 11.0755 14.7425C11.048 14.848 11.1121 14.9549 11.2171 14.9817L11.2659 14.9878C11.3538 14.9878 11.4337 14.9286 11.4563 14.8401C11.4667 14.7998 11.4758 14.7602 11.4856 14.7205V14.7198V14.718L11.4868 14.7131V14.7113L11.4874 14.7107L11.4881 14.7095V14.7088V14.7064L11.4887 14.7057L11.4893 14.7045V14.7033V14.7027V14.7015V14.7003L11.4899 14.6991L11.4906 14.6979V14.6966V14.696V14.6948L11.4912 14.6936L11.4918 14.6924V14.6918V14.6899V14.6893L11.493 14.6875V14.6868V14.6856V14.685L11.4942 14.6807V14.6801V14.6783L11.4955 14.6764L11.4961 14.6716L11.4967 14.6697V14.6691L11.4979 14.663C11.526 14.53 11.5486 14.3951 11.5651 14.2584C11.5784 14.1504 11.5015 14.0527 11.3928 14.0393Z" fill="white"/>
<path d="M8.43257 9.71739C8.60105 9.77966 8.76706 9.8529 8.92694 9.93649C8.95562 9.95114 8.98675 9.95849 9.0173 9.95849C9.08812 9.95849 9.15706 9.92063 9.19245 9.8529C9.24312 9.75708 9.20526 9.63743 9.10882 9.58739C8.98917 9.52513 8.8671 9.46774 8.7414 9.41528L8.7353 9.41282L8.73347 9.41161H8.73284L8.72917 9.4104L8.72671 9.40919L8.72245 9.40735L8.72062 9.40673L8.71452 9.40427H8.7139L8.7078 9.40122H8.70718L8.70534 9.4006L8.70108 9.39876L8.69862 9.39814L8.69495 9.3963V9.39567L8.69249 9.39505L8.68823 9.39321H8.68761L8.6864 9.39259V9.39196L8.67968 9.39013L8.67296 9.38708C8.63878 9.37364 8.60398 9.36021 8.56921 9.34802C8.54663 9.33946 8.52405 9.33521 8.50085 9.33521C8.42089 9.33521 8.34581 9.38466 8.31651 9.46399C8.27878 9.56661 8.33065 9.67954 8.43257 9.71739Z" fill="white"/>
<path d="M10.5151 11.2312C10.5567 11.2312 10.5975 11.2183 10.6335 11.1915C10.7202 11.1268 10.7373 11.0029 10.6726 10.9156C10.6061 10.8277 10.5371 10.7422 10.4651 10.6592H10.4644L10.4614 10.6555L10.4602 10.6543V10.6537L10.4571 10.6506L10.4565 10.65L10.4553 10.6488L10.4541 10.647L10.4529 10.6451V10.6446L10.4517 10.6434H10.451L10.4492 10.6422L10.448 10.6403V10.6397L10.4468 10.6385V10.6379L10.4456 10.6367L10.4444 10.636L10.4437 10.6348H10.4431L10.4419 10.6336V10.633L10.4407 10.6318V10.6312L10.4395 10.6299L10.4383 10.6293L10.4376 10.6281L10.437 10.6275L10.4364 10.6269L10.4358 10.6262L10.4346 10.6244L10.4333 10.6238V10.6226L10.4321 10.6219V10.6213L10.4309 10.6207L10.4297 10.6196L10.4291 10.6189L10.4284 10.6177L10.4278 10.6171L10.4272 10.6165L10.4247 10.6134L10.4235 10.6128L10.4229 10.6116H10.4223L10.4198 10.6079L10.4192 10.6073L10.4185 10.6067H10.4179L10.4149 10.603V10.6024L10.4137 10.6012V10.6005L10.41 10.5975L10.4088 10.5963V10.5956L10.4051 10.5926V10.592L10.4039 10.5908L10.3998 10.586H10.3991L10.3955 10.5811L10.3948 10.5805L10.3857 10.5707V10.5701C10.3539 10.5359 10.321 10.5011 10.288 10.4669C10.2496 10.4272 10.1983 10.4077 10.1471 10.4077C10.0976 10.4077 10.0482 10.426 10.0097 10.4633C9.93159 10.539 9.93038 10.6635 10.006 10.7416C10.1306 10.8704 10.249 11.0089 10.3576 11.1524C10.3955 11.2037 10.4553 11.2312 10.5151 11.2312Z" fill="white"/>
<path d="M9.01311 5.08667C8.92401 5.08667 8.84284 5.14772 8.82147 5.23866C8.7769 5.42847 8.74397 5.62319 8.72319 5.82155C8.71221 5.9296 8.79092 6.02663 8.89897 6.03761L8.91971 6.03823C9.01921 6.03823 9.10526 5.96315 9.11503 5.86183C9.13335 5.68237 9.16385 5.50355 9.20538 5.32897C9.22979 5.22276 9.16448 5.11718 9.05889 5.09214L9.01311 5.08667Z" fill="white"/>
<path d="M9.72409 3.39591C9.69233 3.43618 9.66061 3.4765 9.6301 3.51736L9.62643 3.52161L9.62522 3.52282L9.62155 3.52833L9.61729 3.53384L9.61303 3.53993L9.60932 3.54482V3.54544L9.60077 3.55642C9.54827 3.62661 9.49823 3.69864 9.45061 3.77247L9.44694 3.77798V3.77861L9.44573 3.77982L9.44389 3.78228V3.7829L9.44327 3.78411L9.44206 3.78532V3.78595L9.43959 3.78841V3.78962L9.43897 3.79025L9.43835 3.79146H9.43772L9.43651 3.79392L9.43588 3.79454V3.79517L9.43467 3.79638V3.797L9.43346 3.79821V3.79884L9.43225 3.80068V3.8013L9.43104 3.80193V3.80255L9.42983 3.80376V3.80497L9.42862 3.80618V3.80681L9.42741 3.80864L9.4262 3.80986V3.81048L9.42499 3.81232L9.42377 3.81415V3.81478L9.42256 3.81599V3.81661L9.4201 3.82028C9.40729 3.83982 9.39448 3.85935 9.38288 3.8795C9.32612 3.97165 9.35479 4.09314 9.44756 4.14989C9.47991 4.17005 9.5153 4.17919 9.55073 4.17919C9.61667 4.17919 9.68135 4.14622 9.71858 4.08521C9.81256 3.93263 9.91756 3.78431 10.0305 3.64392C10.0988 3.5597 10.0854 3.43517 10.0012 3.36681C9.96452 3.33751 9.92057 3.32349 9.87725 3.32349C9.81991 3.32325 9.76315 3.34829 9.72409 3.39591Z" fill="white"/>
<path d="M14.9987 10.4218C15.0323 10.4938 15.1037 10.5366 15.1782 10.5366C15.2063 10.5366 15.2337 10.5311 15.26 10.5189C15.3692 10.4688 15.476 10.4151 15.5798 10.3571L15.5823 10.3559L15.5859 10.3534L15.5884 10.3528L15.5921 10.3504L15.5939 10.3491H15.5945L15.5958 10.3479L15.5982 10.3467L15.5994 10.3461L15.6006 10.3455L15.6018 10.3448L15.6025 10.3442L15.6043 10.3436V10.343L15.6055 10.3423L15.6067 10.3417L15.6079 10.3411V10.3405L15.6104 10.3398V10.3392L15.6116 10.3386H15.6128L15.6134 10.338L15.6141 10.3373L15.6153 10.3367L15.6171 10.3355H15.6177L15.619 10.3349H15.6196L15.6208 10.3337H15.6214L15.6239 10.3318L15.6251 10.3312L15.6269 10.3306L15.6312 10.3275L15.633 10.3269C15.6825 10.2982 15.7325 10.2683 15.7813 10.2384C15.8729 10.1804 15.901 10.0596 15.8436 9.9668C15.8058 9.90758 15.7423 9.87402 15.6764 9.87402C15.641 9.87402 15.6043 9.88379 15.572 9.90453C15.4194 9.99914 15.2595 10.0852 15.0965 10.1603C14.9975 10.2057 14.9536 10.3229 14.9987 10.4218Z" fill="white"/>
<path d="M16.588 9.01979C16.5178 9.10342 16.5294 9.22791 16.6124 9.29748C16.6491 9.32861 16.6942 9.34326 16.7388 9.34326C16.7955 9.34326 16.8511 9.31947 16.8895 9.27244C16.9921 9.151 17.0873 9.02342 17.1764 8.89096H17.177L17.1782 8.88912L17.1807 8.88545L17.1813 8.88482L17.1819 8.88361H17.1826L17.1838 8.88178L17.185 8.87932L17.1856 8.87811L17.1862 8.87689L17.1874 8.87627V8.87564L17.1887 8.87381V8.87318L17.1899 8.87197V8.87135L17.1911 8.87014V8.86951L17.1923 8.8683V8.86768L17.1935 8.86647V8.86584L17.1947 8.86463V8.86342L17.1959 8.86221L17.1965 8.86158L17.1972 8.86096L17.1978 8.85975L17.1984 8.85912L17.2009 8.85486L17.2021 8.85365L17.2046 8.84939V8.84877L17.2058 8.84814V8.84768L17.2094 8.84217V8.84154L17.2394 8.79639C17.2973 8.70482 17.2711 8.58275 17.1789 8.52416C17.1466 8.50342 17.1094 8.49365 17.0733 8.49365C17.008 8.49365 16.9446 8.52541 16.9067 8.584C16.8102 8.73537 16.7028 8.88248 16.588 9.01979Z" fill="white"/>
<path d="M17.7258 4.82604L17.7252 4.82483C17.6977 4.74245 17.6208 4.69116 17.5385 4.69116C17.5177 4.69116 17.4963 4.69362 17.4756 4.70093C17.3724 4.73573 17.3169 4.84741 17.3517 4.95058C17.4091 5.12085 17.4561 5.29663 17.4909 5.47241C17.5098 5.5664 17.5916 5.63112 17.6838 5.63112L17.7222 5.62745C17.829 5.60608 17.898 5.50292 17.8772 5.3955L17.8724 5.37171V5.37108V5.36987L17.8711 5.36499V5.36437V5.36315V5.36253L17.8699 5.35765V5.35702L17.8693 5.3564L17.8687 5.35519V5.35397V5.35335L17.8681 5.3503L17.8674 5.34909V5.34847V5.34726V5.34604V5.34542L17.8668 5.34358L17.8662 5.34237V5.34175V5.34054V5.33933L17.865 5.33812V5.3369V5.33569V5.33448L17.8643 5.33327V5.33202L17.8637 5.3314V5.33019V5.32956L17.8631 5.32772V5.3271L17.8625 5.32526V5.32464V5.32343V5.32222L17.8613 5.32101V5.32038V5.31854V5.31792L17.8606 5.31608V5.31546L17.86 5.31362V5.31116L17.8588 5.30933V5.3087V5.30687L17.8576 5.30261V5.30198V5.30015L17.857 5.29952L17.8558 5.29343L17.8551 5.2928V5.29097L17.8539 5.28608V5.28425L17.8521 5.27753V5.2769L17.8502 5.26835C17.827 5.16702 17.8008 5.06694 17.7709 4.96929L17.7685 4.96015L17.7648 4.94733V4.94671L17.7617 4.93878L17.7599 4.93206V4.93144L17.7587 4.9296L17.7575 4.92288L17.755 4.91679V4.91616L17.7544 4.91433H17.7539L17.7527 4.91007V4.90944V4.90761L17.7521 4.90698L17.7509 4.90331L17.7502 4.90085L17.7496 4.89901L17.749 4.89839V4.89655L17.7478 4.89472V4.89409V4.89226L17.7472 4.89163L17.7465 4.89042V4.88979L17.7459 4.88796V4.88733L17.7453 4.88612V4.88491L17.7447 4.8837L17.744 4.88308V4.88124L17.7428 4.8794V4.87878V4.87694L17.7422 4.87632L17.7416 4.87511V4.87448L17.741 4.87265V4.87202L17.7403 4.87019V4.86956L17.7397 4.86835L17.7391 4.86772V4.86589L17.7385 4.86526L17.7378 4.86405V4.86327V4.86206L17.7372 4.86144L17.7366 4.86081V4.85897L17.736 4.85776L17.7353 4.85714V4.85593V4.85472L17.7347 4.85409L17.7344 4.85288V4.85167L17.7338 4.84983L17.7331 4.84921V4.848V4.84737L17.7319 4.84616V4.84554V4.84374L17.7307 4.84253V4.84132V4.84069L17.7301 4.84007V4.83886L17.7283 4.8346V4.83397V4.83276H17.7276L17.727 4.83155V4.83034L17.7258 4.82788V4.82726V4.82604H17.7258Z" fill="white"/>
<path d="M13.252 10.9368C13.2728 10.9374 13.2929 10.9374 13.3137 10.9374H13.3143H13.3155H13.3161H13.3192H13.3204H13.3216H13.3228H13.324H13.3252H13.3271H13.3277H13.3301H13.3326H13.3344H13.3351H13.3363H13.3375H13.3387H13.3405H13.3412H13.3424H13.3436H13.3442H13.3448H13.346H13.3473H13.3485H13.3491H13.3497H13.3509H13.3521H13.3534H13.3546H13.3558H13.357H13.3607H13.3613H13.3631H13.3643H13.3655H13.3667H13.3674H13.3686H13.3692H13.3704H13.3716H13.3728H13.3735H13.3741H13.3753H13.3765H13.3771H13.3784H13.379H13.3802H13.3814H13.3826H13.3869H13.3875H13.3887H13.3899H13.3911H13.3923H13.3935H13.3948H13.3954H13.3966H13.3972H13.3985H13.3997H13.4009H13.4016L13.4022 10.9368H13.4034H13.4046H13.4052H13.4071H13.4132H13.415H13.4156H13.4168H13.418H13.4192H13.4211H13.4217H13.4229L13.4254 10.9362H13.4266H13.4278H13.429H13.4296H13.4309H13.4315H13.4327H13.4333H13.4412H13.4431H13.4437H13.4449H13.4455H13.4474H13.4492H13.4498H13.451H13.4535H13.4547H13.4553H13.4572L13.473 10.935H13.4755H13.478C13.6 10.9313 13.7221 10.9227 13.843 10.9099C13.9504 10.8977 14.0285 10.8007 14.0169 10.6926C14.0059 10.5919 13.9205 10.5168 13.821 10.5168L13.7996 10.5181C13.6458 10.5352 13.4889 10.5437 13.3327 10.5437C13.3083 10.5437 13.2839 10.5431 13.2594 10.5431H13.2558C13.1484 10.5431 13.0605 10.6291 13.0586 10.7359C13.0567 10.8453 13.1434 10.9344 13.252 10.9368Z" fill="white"/>
<path d="M17.7369 6.64551C17.6386 6.64551 17.5537 6.71875 17.5416 6.81887C17.5196 6.99711 17.4866 7.17594 17.4427 7.34988C17.4158 7.45547 17.4793 7.5623 17.5849 7.58914L17.6331 7.59523C17.721 7.59523 17.8016 7.53602 17.8242 7.44754C17.8346 7.40727 17.8437 7.36758 17.8528 7.32789V7.32727V7.32543L17.8541 7.32055L17.8547 7.31871L17.8553 7.31809V7.31687V7.31625L17.8559 7.31379L17.8566 7.31316V7.31195V7.31074V7.31012V7.30891L17.8572 7.3077L17.8578 7.30648V7.30527V7.30406V7.30344L17.8584 7.30223L17.8591 7.30102V7.2998L17.8597 7.29734V7.29672L17.8603 7.29488V7.29426V7.29305V7.29242L17.8615 7.28816V7.2857H17.8621L17.8628 7.28387L17.864 7.27898V7.27715V7.27652L17.8652 7.27043C17.8933 7.13738 17.9165 7.0025 17.9323 6.86578C17.9458 6.75773 17.8689 6.66008 17.7608 6.64668L17.7369 6.64551Z" fill="white"/>
<path d="M16.7529 3.17814V3.17752C16.7211 3.14334 16.6882 3.10854 16.6552 3.07436C16.6168 3.03467 16.5661 3.01514 16.5142 3.01514C16.4648 3.01514 16.4154 3.03346 16.3769 3.07068C16.2988 3.14639 16.2976 3.2715 16.3732 3.349C16.4983 3.47779 16.6167 3.61635 16.7248 3.75979C16.7632 3.81107 16.8225 3.83854 16.8823 3.83854C16.9238 3.83854 16.9653 3.82572 17.0007 3.79885C17.0873 3.73416 17.105 3.61084 17.0397 3.52295C16.9738 3.43506 16.9042 3.34959 16.8322 3.26658L16.8291 3.26291H16.8285L16.8273 3.2617V3.26107L16.8248 3.25803L16.8242 3.2574L16.823 3.25619H16.8224L16.8212 3.25436L16.82 3.25252V3.25201L16.8187 3.2508H16.8181L16.8169 3.24959H16.8164L16.8151 3.24775V3.24713L16.8139 3.24592V3.24529L16.8127 3.24408H16.8121L16.8108 3.24225H16.8102L16.809 3.24104V3.24041L16.8078 3.2392V3.23857L16.8066 3.23736L16.8054 3.23674V3.23611L16.8042 3.2349L16.8035 3.23428L16.8029 3.23365L16.8017 3.23182L16.8011 3.23119L16.8005 3.22998L16.7998 3.22936L16.7992 3.22873L16.798 3.22811L16.7968 3.22697V3.22635L16.7956 3.22572V3.22451L16.7944 3.22389L16.7919 3.22084L16.7913 3.22021L16.7907 3.219H16.7895L16.787 3.21533V3.21471L16.7858 3.21408L16.7821 3.21041V3.20979L16.7809 3.20857L16.7773 3.2049L16.776 3.20369V3.20318L16.7724 3.20014V3.19951L16.7717 3.1983H16.7711L16.7675 3.19342H16.7668L16.7626 3.18854V3.18791L16.7529 3.17814Z" fill="white"/>
<path d="M2.47559 4.82973C2.99195 4.06617 3.6377 3.39906 4.37746 2.85281L4.83645 3.82754L7.45547 1.08461L3.46312 0.908203L3.9502 1.94336C3.05297 2.57691 2.27539 3.36793 1.66016 4.27855C0.686055 5.71898 0.117188 7.45852 0.117188 9.32738H1.1023C1.1023 7.6593 1.60891 6.11449 2.47559 4.82973Z" fill="white"/>
<path d="M18.8977 11.165C18.8977 12.7831 18.4216 14.2852 17.6013 15.5468C17.0715 16.361 16.3953 17.0714 15.614 17.6464L15.246 16.8639L12.627 19.6068L16.6199 19.7832L16.04 18.5503C16.983 17.8869 17.7966 17.0519 18.4265 16.0839C19.347 14.6691 19.8829 12.9772 19.8829 11.165H18.8977Z" fill="white"/>
<path d="M7.03123 6.4093C7.36631 6.41234 7.69529 6.43797 8.01877 6.48438C8.01631 6.42457 8.01389 6.36473 8.01389 6.30371C8.01389 3.37098 10.3997 0.985117 13.3325 0.985117C16.2652 0.985117 18.6511 3.37098 18.6511 6.30371C18.6511 9.03078 16.5881 11.283 13.9416 11.5863C14.0362 11.9 14.1113 12.2217 14.1631 12.5513C17.2521 12.1441 19.6362 9.50316 19.6362 6.30367C19.6362 2.82227 16.814 0 13.3325 0C9.85107 0 7.02881 2.82227 7.02881 6.30371C7.02881 6.3391 7.03123 6.37391 7.03123 6.4093Z" fill="white"/>
<path d="M13.6871 4.18945H12.417C12.2143 4.18945 12.0496 4.35363 12.0496 4.55629V8.30078C12.0496 8.50344 12.2144 8.66762 12.417 8.66762H12.6013C12.804 8.66762 12.9687 8.50344 12.9687 8.30078V7.24672H13.6871C14.6491 7.24672 15.4321 6.56066 15.4321 5.71777C15.4321 4.87551 14.6491 4.18945 13.6871 4.18945ZM13.6871 6.44164H12.9687V4.99387H13.6871C14.1431 4.99387 14.513 5.31859 14.513 5.71773C14.5129 6.11754 14.1431 6.44164 13.6871 6.44164Z" fill="white"/>
</g>
<defs>
<clipPath id="clip0_1204_4765">
<rect width="20" height="20" fill="white"/>
</clipPath>
</defs>
</svg>
