<svg width="108" height="13" viewBox="0 0 108 13" fill="none" xmlns="http://www.w3.org/2000/svg">
<path d="M1.144 12.112C0.877333 12.112 0.669333 12.0373 0.52 11.888C0.381333 11.7387 0.312 11.5307 0.312 11.264V1.568C0.312 1.29067 0.386667 1.08267 0.536 0.943999C0.685333 0.794666 0.893333 0.719999 1.16 0.719999H4.984C6.2 0.719999 7.13867 1.008 7.8 1.584C8.46133 2.16 8.792 2.976 8.792 4.032C8.792 4.71467 8.64267 5.30133 8.344 5.792C8.04533 6.28267 7.608 6.656 7.032 6.912C6.46667 7.168 5.784 7.296 4.984 7.296L5.128 7.072H5.544C5.97067 7.072 6.33867 7.17867 6.648 7.392C6.968 7.60533 7.256 7.94667 7.512 8.416L8.888 10.976C8.99467 11.168 9.04267 11.3547 9.032 11.536C9.032 11.7067 8.968 11.8453 8.84 11.952C8.72267 12.0587 8.552 12.112 8.328 12.112C8.09333 12.112 7.90133 12.064 7.752 11.968C7.61333 11.8613 7.48533 11.7067 7.368 11.504L5.688 8.4C5.464 7.984 5.208 7.70667 4.92 7.568C4.632 7.41867 4.25333 7.344 3.784 7.344H1.976V11.264C1.976 11.5307 1.90667 11.7387 1.768 11.888C1.62933 12.0373 1.42133 12.112 1.144 12.112ZM1.976 6.096H4.712C5.52267 6.096 6.136 5.92533 6.552 5.584C6.968 5.24267 7.176 4.736 7.176 4.064C7.176 3.40267 6.968 2.90133 6.552 2.56C6.136 2.21867 5.52267 2.048 4.712 2.048H1.976V6.096ZM14.4406 12.144C13.5873 12.144 12.8513 11.984 12.2326 11.664C11.6246 11.3333 11.15 10.8693 10.8086 10.272C10.478 9.664 10.3126 8.944 10.3126 8.112C10.3126 7.30133 10.478 6.592 10.8086 5.984C11.1393 5.376 11.5926 4.90133 12.1686 4.56C12.7446 4.21867 13.4006 4.048 14.1366 4.048C14.6806 4.048 15.166 4.13867 15.5926 4.32C16.0193 4.49067 16.382 4.74667 16.6806 5.088C16.99 5.41867 17.2193 5.824 17.3686 6.304C17.5286 6.784 17.6086 7.32267 17.6086 7.92C17.6086 8.10133 17.5553 8.24 17.4486 8.336C17.342 8.42133 17.182 8.464 16.9686 8.464H11.5926V7.472H16.5206L16.2486 7.696C16.2486 7.16267 16.1686 6.70933 16.0086 6.336C15.8593 5.96267 15.63 5.68 15.3206 5.488C15.022 5.28533 14.6486 5.184 14.2006 5.184C13.6993 5.184 13.2726 5.30133 12.9206 5.536C12.5793 5.77067 12.318 6.096 12.1366 6.512C11.9553 6.928 11.8646 7.41333 11.8646 7.968V8.064C11.8646 9.00267 12.0833 9.712 12.5206 10.192C12.9686 10.6613 13.614 10.896 14.4566 10.896C14.7766 10.896 15.1126 10.8533 15.4646 10.768C15.8273 10.6827 16.1686 10.5387 16.4886 10.336C16.67 10.2293 16.83 10.1813 16.9686 10.192C17.118 10.2027 17.2353 10.2507 17.3206 10.336C17.4166 10.4213 17.4753 10.528 17.4966 10.656C17.518 10.784 17.4966 10.9173 17.4326 11.056C17.3686 11.184 17.2566 11.3013 17.0966 11.408C16.734 11.6533 16.3126 11.84 15.8326 11.968C15.3526 12.0853 14.8886 12.144 14.4406 12.144ZM22.3464 12.144C21.6637 12.144 21.061 11.984 20.5384 11.664C20.0264 11.3333 19.6264 10.864 19.3384 10.256C19.0504 9.63733 18.9064 8.91733 18.9064 8.096C18.9064 7.25333 19.0504 6.53333 19.3384 5.936C19.6264 5.33867 20.0264 4.87467 20.5384 4.544C21.061 4.21333 21.6637 4.048 22.3464 4.048C23.029 4.048 23.6157 4.21867 24.1064 4.56C24.6077 4.89067 24.9437 5.33867 25.1144 5.904H24.9384V1.424C24.9384 1.15733 25.0077 0.954666 25.1464 0.815999C25.285 0.677333 25.4824 0.608 25.7384 0.608C25.9944 0.608 26.1917 0.677333 26.3304 0.815999C26.4797 0.954666 26.5544 1.15733 26.5544 1.424V11.296C26.5544 11.552 26.485 11.7547 26.3464 11.904C26.2077 12.0427 26.0104 12.112 25.7544 12.112C25.4984 12.112 25.301 12.0427 25.1624 11.904C25.0237 11.7547 24.9544 11.552 24.9544 11.296V9.888L25.1304 10.24C24.9597 10.816 24.6237 11.28 24.1224 11.632C23.6317 11.9733 23.0397 12.144 22.3464 12.144ZM22.7624 10.896C23.1997 10.896 23.5837 10.7893 23.9144 10.576C24.245 10.3627 24.501 10.048 24.6824 9.632C24.8744 9.216 24.9704 8.704 24.9704 8.096C24.9704 7.17867 24.7677 6.48533 24.3624 6.016C23.957 5.54667 23.4237 5.312 22.7624 5.312C22.3144 5.312 21.925 5.41867 21.5944 5.632C21.2637 5.83467 21.0024 6.144 20.8104 6.56C20.629 6.976 20.5384 7.488 20.5384 8.096C20.5384 9.00267 20.741 9.696 21.1464 10.176C21.5517 10.656 22.0904 10.896 22.7624 10.896ZM32.4875 12.144C31.6342 12.144 30.8982 11.984 30.2795 11.664C29.6715 11.3333 29.1968 10.8693 28.8555 10.272C28.5248 9.664 28.3595 8.944 28.3595 8.112C28.3595 7.30133 28.5248 6.592 28.8555 5.984C29.1862 5.376 29.6395 4.90133 30.2155 4.56C30.7915 4.21867 31.4475 4.048 32.1835 4.048C32.7275 4.048 33.2128 4.13867 33.6395 4.32C34.0662 4.49067 34.4288 4.74667 34.7275 5.088C35.0368 5.41867 35.2662 5.824 35.4155 6.304C35.5755 6.784 35.6555 7.32267 35.6555 7.92C35.6555 8.10133 35.6022 8.24 35.4955 8.336C35.3888 8.42133 35.2288 8.464 35.0155 8.464H29.6395V7.472H34.5675L34.2955 7.696C34.2955 7.16267 34.2155 6.70933 34.0555 6.336C33.9062 5.96267 33.6768 5.68 33.3675 5.488C33.0688 5.28533 32.6955 5.184 32.2475 5.184C31.7462 5.184 31.3195 5.30133 30.9675 5.536C30.6262 5.77067 30.3648 6.096 30.1835 6.512C30.0022 6.928 29.9115 7.41333 29.9115 7.968V8.064C29.9115 9.00267 30.1302 9.712 30.5675 10.192C31.0155 10.6613 31.6608 10.896 32.5035 10.896C32.8235 10.896 33.1595 10.8533 33.5115 10.768C33.8742 10.6827 34.2155 10.5387 34.5355 10.336C34.7168 10.2293 34.8768 10.1813 35.0155 10.192C35.1648 10.2027 35.2822 10.2507 35.3675 10.336C35.4635 10.4213 35.5222 10.528 35.5435 10.656C35.5648 10.784 35.5435 10.9173 35.4795 11.056C35.4155 11.184 35.3035 11.3013 35.1435 11.408C34.7808 11.6533 34.3595 11.84 33.8795 11.968C33.3995 12.0853 32.9355 12.144 32.4875 12.144ZM41.0813 12.144C40.2279 12.144 39.4919 11.984 38.8733 11.664C38.2653 11.3333 37.7906 10.8693 37.4493 10.272C37.1186 9.664 36.9533 8.944 36.9533 8.112C36.9533 7.30133 37.1186 6.592 37.4493 5.984C37.7799 5.376 38.2333 4.90133 38.8093 4.56C39.3853 4.21867 40.0413 4.048 40.7773 4.048C41.3213 4.048 41.8066 4.13867 42.2333 4.32C42.6599 4.49067 43.0226 4.74667 43.3213 5.088C43.6306 5.41867 43.8599 5.824 44.0093 6.304C44.1693 6.784 44.2493 7.32267 44.2493 7.92C44.2493 8.10133 44.1959 8.24 44.0893 8.336C43.9826 8.42133 43.8226 8.464 43.6093 8.464H38.2333V7.472H43.1613L42.8893 7.696C42.8893 7.16267 42.8093 6.70933 42.6493 6.336C42.4999 5.96267 42.2706 5.68 41.9613 5.488C41.6626 5.28533 41.2893 5.184 40.8413 5.184C40.3399 5.184 39.9133 5.30133 39.5613 5.536C39.2199 5.77067 38.9586 6.096 38.7773 6.512C38.5959 6.928 38.5053 7.41333 38.5053 7.968V8.064C38.5053 9.00267 38.7239 9.712 39.1613 10.192C39.6093 10.6613 40.2546 10.896 41.0973 10.896C41.4173 10.896 41.7533 10.8533 42.1053 10.768C42.4679 10.6827 42.8093 10.5387 43.1293 10.336C43.3106 10.2293 43.4706 10.1813 43.6093 10.192C43.7586 10.2027 43.8759 10.2507 43.9613 10.336C44.0573 10.4213 44.1159 10.528 44.1373 10.656C44.1586 10.784 44.1373 10.9173 44.0733 11.056C44.0093 11.184 43.8973 11.3013 43.7373 11.408C43.3746 11.6533 42.9533 11.84 42.4733 11.968C41.9933 12.0853 41.5293 12.144 41.0813 12.144ZM46.843 12.112C46.587 12.112 46.3897 12.0427 46.251 11.904C46.1123 11.7547 46.043 11.552 46.043 11.296V4.896C46.043 4.62933 46.1123 4.42667 46.251 4.288C46.3897 4.14933 46.5817 4.08 46.827 4.08C47.083 4.08 47.275 4.14933 47.403 4.288C47.5417 4.42667 47.611 4.62933 47.611 4.896V6.208L47.435 5.856C47.6483 5.29067 47.979 4.848 48.427 4.528C48.875 4.208 49.4137 4.048 50.043 4.048C50.6937 4.048 51.2217 4.20267 51.627 4.512C52.0323 4.82133 52.3097 5.296 52.459 5.936H52.235C52.4377 5.34933 52.7843 4.89067 53.275 4.56C53.7657 4.21867 54.3363 4.048 54.987 4.048C55.5843 4.048 56.075 4.16533 56.459 4.4C56.843 4.624 57.131 4.97067 57.323 5.44C57.515 5.89867 57.611 6.48 57.611 7.184V11.296C57.611 11.552 57.5363 11.7547 57.387 11.904C57.2483 12.0427 57.051 12.112 56.795 12.112C56.539 12.112 56.3417 12.0427 56.203 11.904C56.0643 11.7547 55.995 11.552 55.995 11.296V7.264C55.995 6.60267 55.8777 6.11733 55.643 5.808C55.419 5.49867 55.0457 5.344 54.523 5.344C53.9363 5.344 53.4723 5.54667 53.131 5.952C52.7897 6.35733 52.619 6.91733 52.619 7.632V11.296C52.619 11.552 52.5497 11.7547 52.411 11.904C52.2723 12.0427 52.075 12.112 51.819 12.112C51.563 12.112 51.3603 12.0427 51.211 11.904C51.0723 11.7547 51.003 11.552 51.003 11.296V7.264C51.003 6.60267 50.891 6.11733 50.667 5.808C50.443 5.49867 50.0697 5.344 49.547 5.344C48.9603 5.344 48.4963 5.54667 48.155 5.952C47.8243 6.35733 47.659 6.91733 47.659 7.632V11.296C47.659 11.84 47.387 12.112 46.843 12.112ZM65.0971 12.112C64.8305 12.112 64.6225 12.0373 64.4731 11.888C64.3345 11.7387 64.2651 11.5307 64.2651 11.264V1.568C64.2651 1.29067 64.3398 1.08267 64.4891 0.943999C64.6385 0.794666 64.8465 0.719999 65.1131 0.719999H68.9371C70.1531 0.719999 71.0918 1.024 71.7531 1.632C72.4145 2.22933 72.7451 3.072 72.7451 4.16C72.7451 5.25867 72.4145 6.112 71.7531 6.72C71.0918 7.31733 70.1531 7.616 68.9371 7.616H65.9291V11.264C65.9291 11.5307 65.8598 11.7387 65.7211 11.888C65.5825 12.0373 65.3745 12.112 65.0971 12.112ZM65.9291 6.288H68.6971C69.4971 6.288 70.0998 6.112 70.5051 5.76C70.9211 5.39733 71.1291 4.864 71.1291 4.16C71.1291 3.46667 70.9211 2.944 70.5051 2.592C70.0998 2.22933 69.4971 2.048 68.6971 2.048H65.9291V6.288ZM77.3718 12.144C76.5824 12.144 75.8998 11.9787 75.3238 11.648C74.7584 11.3173 74.3158 10.848 73.9958 10.24C73.6758 9.632 73.5158 8.91733 73.5158 8.096C73.5158 7.46667 73.6064 6.90667 73.7878 6.416C73.9691 5.92533 74.2251 5.504 74.5558 5.152C74.8971 4.78933 75.3024 4.51733 75.7718 4.336C76.2518 4.144 76.7851 4.048 77.3718 4.048C78.1504 4.048 78.8224 4.21333 79.3878 4.544C79.9638 4.87467 80.4118 5.344 80.7318 5.952C81.0518 6.54933 81.2118 7.264 81.2118 8.096C81.2118 8.71467 81.1211 9.27467 80.9398 9.776C80.7584 10.2773 80.4971 10.704 80.1558 11.056C79.8251 11.408 79.4198 11.68 78.9398 11.872C78.4704 12.0533 77.9478 12.144 77.3718 12.144ZM77.3718 10.896C77.8091 10.896 78.1931 10.7893 78.5238 10.576C78.8544 10.3627 79.1104 10.048 79.2918 9.632C79.4838 9.216 79.5798 8.704 79.5798 8.096C79.5798 7.17867 79.3771 6.48533 78.9718 6.016C78.5664 5.54667 78.0331 5.312 77.3718 5.312C76.9238 5.312 76.5344 5.41867 76.2038 5.632C75.8731 5.83467 75.6118 6.144 75.4198 6.56C75.2384 6.976 75.1478 7.488 75.1478 8.096C75.1478 9.00267 75.3504 9.696 75.7558 10.176C76.1611 10.656 76.6998 10.896 77.3718 10.896ZM83.8266 12.096C83.5706 12.096 83.3733 12.0213 83.2346 11.872C83.096 11.712 83.0266 11.4933 83.0266 11.216V4.976C83.0266 4.69867 83.096 4.48533 83.2346 4.336C83.3733 4.18667 83.5706 4.112 83.8266 4.112C84.0826 4.112 84.28 4.18667 84.4186 4.336C84.568 4.48533 84.6426 4.69867 84.6426 4.976V11.216C84.6426 11.4933 84.5733 11.712 84.4346 11.872C84.296 12.0213 84.0933 12.096 83.8266 12.096ZM83.8266 2.448C83.5066 2.448 83.256 2.368 83.0746 2.208C82.904 2.048 82.8186 1.824 82.8186 1.536C82.8186 1.23733 82.904 1.01333 83.0746 0.863999C83.256 0.704 83.5066 0.624 83.8266 0.624C84.1466 0.624 84.392 0.704 84.5626 0.863999C84.744 1.01333 84.8346 1.23733 84.8346 1.536C84.8346 1.824 84.744 2.048 84.5626 2.208C84.392 2.368 84.1466 2.448 83.8266 2.448ZM87.7173 12.112C87.4613 12.112 87.2639 12.0427 87.1253 11.904C86.9866 11.7547 86.9173 11.552 86.9173 11.296V4.896C86.9173 4.62933 86.9866 4.42667 87.1253 4.288C87.2639 4.14933 87.4559 4.08 87.7013 4.08C87.9573 4.08 88.1493 4.14933 88.2773 4.288C88.4159 4.42667 88.4853 4.62933 88.4853 4.896V6.144L88.3093 5.856C88.5439 5.25867 88.9119 4.81067 89.4133 4.512C89.9146 4.20267 90.4906 4.048 91.1413 4.048C91.7599 4.048 92.2719 4.16533 92.6773 4.4C93.0933 4.624 93.4026 4.97067 93.6053 5.44C93.8079 5.89867 93.9093 6.48 93.9093 7.184V11.296C93.9093 11.552 93.8399 11.7547 93.7013 11.904C93.5626 12.0427 93.3653 12.112 93.1093 12.112C92.8426 12.112 92.6399 12.0427 92.5013 11.904C92.3626 11.7547 92.2933 11.552 92.2933 11.296V7.28C92.2933 6.608 92.1599 6.11733 91.8933 5.808C91.6373 5.49867 91.2319 5.344 90.6773 5.344C90.0266 5.344 89.5039 5.54667 89.1093 5.952C88.7253 6.35733 88.5333 6.90133 88.5333 7.584V11.296C88.5333 11.84 88.2613 12.112 87.7173 12.112ZM99.464 12.144C98.824 12.144 98.2853 12.032 97.848 11.808C97.4107 11.584 97.0853 11.2533 96.872 10.816C96.6587 10.3787 96.552 9.84533 96.552 9.216V5.44H95.592C95.3787 5.44 95.2133 5.38667 95.096 5.28C94.9787 5.16267 94.92 5.008 94.92 4.816C94.92 4.61333 94.9787 4.45867 95.096 4.352C95.2133 4.24533 95.3787 4.192 95.592 4.192H96.552V2.544C96.552 2.27733 96.6213 2.07467 96.76 1.936C96.9093 1.79733 97.112 1.728 97.368 1.728C97.624 1.728 97.8213 1.79733 97.96 1.936C98.0987 2.07467 98.168 2.27733 98.168 2.544V4.192H100.04C100.253 4.192 100.419 4.24533 100.536 4.352C100.653 4.45867 100.712 4.61333 100.712 4.816C100.712 5.008 100.653 5.16267 100.536 5.28C100.419 5.38667 100.253 5.44 100.04 5.44H98.168V9.088C98.168 9.65333 98.2853 10.08 98.52 10.368C98.7653 10.656 99.16 10.8 99.704 10.8C99.896 10.8 100.061 10.784 100.2 10.752C100.349 10.7093 100.472 10.6827 100.568 10.672C100.685 10.672 100.781 10.7147 100.856 10.8C100.931 10.8747 100.968 11.024 100.968 11.248C100.968 11.408 100.936 11.5573 100.872 11.696C100.819 11.8347 100.717 11.9253 100.568 11.968C100.44 12.0107 100.264 12.048 100.04 12.08C99.8267 12.1227 99.6347 12.144 99.464 12.144ZM104.716 12.144C104.246 12.144 103.761 12.0907 103.26 11.984C102.769 11.8773 102.316 11.696 101.9 11.44C101.761 11.344 101.665 11.2373 101.612 11.12C101.558 11.0027 101.537 10.8853 101.548 10.768C101.569 10.64 101.617 10.5333 101.692 10.448C101.777 10.352 101.878 10.2933 101.996 10.272C102.124 10.2507 102.257 10.2773 102.396 10.352C102.812 10.5867 103.212 10.752 103.596 10.848C103.98 10.9333 104.358 10.976 104.732 10.976C105.297 10.976 105.724 10.8747 106.012 10.672C106.3 10.4693 106.444 10.1973 106.444 9.856C106.444 9.57867 106.348 9.36533 106.156 9.216C105.964 9.056 105.676 8.93333 105.292 8.848L103.772 8.544C103.11 8.40533 102.609 8.16 102.268 7.808C101.926 7.456 101.756 7.008 101.756 6.464C101.756 5.97333 101.889 5.54667 102.156 5.184C102.422 4.82133 102.796 4.544 103.276 4.352C103.756 4.14933 104.31 4.048 104.94 4.048C105.409 4.048 105.852 4.10667 106.268 4.224C106.684 4.34133 107.068 4.51733 107.42 4.752C107.558 4.82667 107.649 4.928 107.692 5.056C107.734 5.17333 107.74 5.29067 107.708 5.408C107.686 5.52533 107.633 5.632 107.548 5.728C107.462 5.81333 107.356 5.86667 107.228 5.888C107.11 5.89867 106.977 5.86667 106.828 5.792C106.508 5.58933 106.188 5.44533 105.868 5.36C105.558 5.27467 105.249 5.232 104.94 5.232C104.374 5.232 103.948 5.33867 103.66 5.552C103.382 5.75467 103.244 6.032 103.244 6.384C103.244 6.65067 103.329 6.86933 103.5 7.04C103.67 7.21067 103.937 7.33333 104.3 7.408L105.82 7.712C106.513 7.85067 107.036 8.08533 107.388 8.416C107.75 8.74667 107.932 9.19467 107.932 9.76C107.932 10.496 107.638 11.0773 107.052 11.504C106.465 11.9307 105.686 12.144 104.716 12.144Z" fill="url(#paint0_linear_1204_6103)"/>
<defs>
<linearGradient id="paint0_linear_1204_6103" x1="12.0429" y1="4.125" x2="124.455" y2="0.879421" gradientUnits="userSpaceOnUse">
<stop stop-color="#280BF3"/>
<stop offset="1" stop-color="#FB4FFD"/>
</linearGradient>
</defs>
</svg>
