<svg width="20" height="20" viewBox="0 0 20 20" fill="none" xmlns="http://www.w3.org/2000/svg">
<g clip-path="url(#clip0_1204_4808)">
<path d="M13.1471 8.79514C15.7954 8.79514 17.9494 10.9497 17.9494 13.5974C17.9494 16.2451 15.7954 18.3997 13.1471 18.3997C10.5 18.3997 8.34547 16.2451 8.34547 13.5974C8.34547 10.9497 10.5 8.79514 13.1471 8.79514ZM13.1471 7.19482C9.61195 7.19482 6.74512 10.061 6.74512 13.5974C6.74512 17.1338 9.61195 20 13.1471 20C16.6829 20 19.5497 17.1338 19.5497 13.5974C19.5497 10.061 16.6829 7.19482 13.1471 7.19482Z" fill="white"/>
<path d="M13.3565 11.4612H11.9935C11.7756 11.4612 11.5999 11.637 11.5999 11.8543V15.8728C11.5999 16.0901 11.7756 16.2671 11.9935 16.2671H12.1913C12.4086 16.2671 12.585 16.0901 12.585 15.8728V14.7418H13.3565C14.3886 14.7418 15.2284 14.0064 15.2284 13.1012C15.2284 12.1973 14.3886 11.4612 13.3565 11.4612ZM13.3565 13.8782H12.585V12.3242H13.3565C13.8454 12.3242 14.2427 12.6734 14.2427 13.1012C14.2427 13.5291 13.8454 13.8782 13.3565 13.8782Z" fill="white"/>
<path d="M5.64028 0C2.77345 0 0.450439 1.1316 0.450439 2.52809V3.8782C0.450439 5.27465 2.77345 6.40625 5.64028 6.40625C8.50649 6.40625 10.8301 5.27465 10.8301 3.87816V2.52809C10.8301 1.1316 8.50649 0 5.64028 0ZM5.64028 1.0498C8.16774 1.0498 9.7797 2.02027 9.7797 2.52809C9.7797 3.0359 8.16774 4.00637 5.64028 4.00637C3.11282 4.00637 1.50087 3.0359 1.50087 2.52809C1.50087 2.02027 3.11282 1.0498 5.64028 1.0498Z" fill="white"/>
<path d="M5.6397 8.4376C6.59978 8.4376 7.49884 8.30944 8.27091 8.08846C7.5281 8.74155 6.92021 9.54842 6.4911 10.4542C6.21521 10.4762 5.93079 10.4896 5.63966 10.4896C2.77407 10.4896 0.450439 9.35616 0.450439 7.9603V6.37338C0.450439 6.34776 0.469346 6.32455 0.49501 6.32209C0.507822 6.31842 0.520635 6.32455 0.5304 6.33795C0.524307 6.33795 0.5304 6.35627 0.565205 6.44295C1.06817 7.58311 3.14884 8.4376 5.6397 8.4376Z" fill="white"/>
<path d="M5.78368 13.5975C5.78368 13.9087 5.80259 14.2127 5.84411 14.513C5.77696 14.5167 5.70982 14.5167 5.63966 14.5167C2.77407 14.5167 0.450439 13.3863 0.450439 11.991V10.3993C0.450439 10.3773 0.469346 10.3553 0.49501 10.3516C0.515752 10.3492 0.529814 10.3614 0.538955 10.376C0.527354 10.3602 0.513916 10.3516 0.565205 10.4737C1.06813 11.6126 3.14884 12.4684 5.63966 12.4684C5.71657 12.4684 5.79653 12.4684 5.87282 12.461C5.81235 12.8327 5.78368 13.2105 5.78368 13.5975Z" fill="white"/>
<path d="M7.547 18.3704C6.95802 18.4864 6.3147 18.5462 5.63966 18.5462C2.77407 18.5462 0.450439 17.417 0.450439 16.0181V14.43C0.450439 14.4043 0.469346 14.3848 0.49501 14.3824C0.514541 14.3787 0.533447 14.3884 0.53958 14.408C0.527354 14.3921 0.510908 14.3762 0.565205 14.5008C1.06813 15.6433 3.14884 16.4978 5.63966 16.4978C5.88626 16.4978 6.1322 16.4881 6.36903 16.4722C6.66384 17.1668 7.06423 17.8077 7.547 18.3704Z" fill="white"/>
</g>
<defs>
<clipPath id="clip0_1204_4808">
<rect width="20" height="20" fill="white"/>
</clipPath>
</defs>
</svg>
