<svg width="24" height="24" viewBox="0 0 24 24" fill="none" xmlns="http://www.w3.org/2000/svg">
<g clip-path="url(#clip0_157_2728)">
<path d="M11.9558 7.17367C13.5036 7.17367 14.7583 5.91896 14.7583 4.3712C14.7583 2.82343 13.5036 1.56873 11.9558 1.56873C10.408 1.56873 9.15332 2.82343 9.15332 4.3712C9.15332 5.91896 10.408 7.17367 11.9558 7.17367Z" fill="#F68B29"/>
<path d="M21.766 12.0814L19.1541 11.5365C18.2643 11.3501 17.3857 11.758 16.9212 12.4831C16.4701 12.2513 15.985 12.0515 15.469 11.8857V10.3325C15.47 9.15737 14.508 8.19641 13.337 8.19641H10.6664C9.4892 8.19641 8.53134 9.15737 8.53134 10.3325V11.8939C8.02049 12.0566 7.54054 12.2564 7.08632 12.4892C6.62184 11.761 5.74224 11.3501 4.85133 11.5365L2.23731 12.0814C1.08995 12.3213 0.345286 13.4594 0.585263 14.6109L1.24136 17.745C1.47928 18.8934 2.61838 19.6381 3.7668 19.3981L4.59383 19.225C5.00784 19.8368 5.58052 20.3981 6.31382 20.8781C7.8412 21.8792 9.8589 22.4313 12.0001 22.4313C15.2764 22.4313 18.0984 21.114 19.3982 19.2219L20.2387 19.3981C21.386 19.637 22.5251 18.8934 22.763 17.745L23.4201 14.6109C23.6591 13.4594 22.9144 12.3213 21.766 12.0814ZM11.9991 21.3612C10.0648 21.3612 8.25212 20.874 6.89982 19.9831C6.43634 19.6803 6.05217 19.3435 5.74425 18.983L6.37766 18.8501C7.52708 18.6112 8.27174 17.4731 8.03176 16.3237L7.44366 13.5057C7.78663 13.3214 8.14712 13.1597 8.53024 13.0217V13.5356C8.53024 14.7087 9.49015 15.6697 10.6653 15.6697H13.3359C14.508 15.6697 15.4679 14.7077 15.4679 13.5356V12.9949C15.8583 13.1339 16.2249 13.2936 16.5648 13.4749L15.9685 16.3247C15.7306 17.4742 16.4742 18.6123 17.6236 18.8512L18.2632 18.9851C17.0705 20.3971 14.7109 21.3612 11.9991 21.3612Z" fill="#F68B29"/>
<path d="M21.1975 10.8577C22.7453 10.8577 24 9.60304 24 8.05528C24 6.50752 22.7453 5.25281 21.1975 5.25281C19.6497 5.25281 18.395 6.50752 18.395 8.05528C18.395 9.60304 19.6497 10.8577 21.1975 10.8577Z" fill="#F68B29"/>
<path d="M3.37747 10.799C4.89354 10.4818 5.86171 8.99559 5.54858 7.48053C5.2293 5.96651 3.74618 4.99424 2.22906 5.31147C0.715047 5.62765 -0.257228 7.11282 0.0600037 8.62789C0.376233 10.144 1.86141 11.1152 3.37747 10.799Z" fill="#F68B29"/>
</g>
<defs>
<clipPath id="clip0_157_2728">
<rect width="24" height="24" fill="white"/>
</clipPath>
</defs>
</svg>
