<svg width="24" height="24" viewBox="0 0 24 24" fill="none" xmlns="http://www.w3.org/2000/svg">
<path d="M8.92501 19.4251C11.3275 19.4251 13.275 17.4775 13.275 15.0751C13.275 12.6727 11.3275 10.7251 8.92501 10.7251C6.52257 10.7251 4.57501 12.6727 4.57501 15.0751C4.57501 17.4775 6.52257 19.4251 8.92501 19.4251Z" stroke="#F2F2F2" stroke-miterlimit="10"/>
<path d="M2.92499 17.5501L4.94999 16.7251" stroke="#F2F2F2" stroke-miterlimit="10"/>
<path d="M12.9 13.4251L14.925 12.6001" stroke="#F2F2F2" stroke-miterlimit="10"/>
<path d="M6.45001 9.0752L7.27501 11.1002" stroke="#F2F2F2" stroke-miterlimit="10"/>
<path d="M10.575 19.0498L11.4 21.0748" stroke="#F2F2F2" stroke-miterlimit="10"/>
<path d="M2.92499 12.6001L4.94999 13.4251" stroke="#F2F2F2" stroke-miterlimit="10"/>
<path d="M12.9 16.7251L14.925 17.5501" stroke="#F2F2F2" stroke-miterlimit="10"/>
<path d="M11.4 9.0752L10.575 11.1002" stroke="#F2F2F2" stroke-miterlimit="10"/>
<path d="M7.27501 19.0498L6.45001 21.0748" stroke="#F2F2F2" stroke-miterlimit="10"/>
<path d="M16.875 10.6501C18.8218 10.6501 20.4 9.0719 20.4 7.1251C20.4 5.17829 18.8218 3.6001 16.875 3.6001C14.9282 3.6001 13.35 5.17829 13.35 7.1251C13.35 9.0719 14.9282 10.6501 16.875 10.6501Z" stroke="#F2F2F2" stroke-miterlimit="10"/>
<path d="M13.125 10.8751L14.4 9.6001" stroke="#F2F2F2" stroke-miterlimit="10"/>
<path d="M19.35 4.6502L20.55 3.4502" stroke="#F2F2F2" stroke-miterlimit="10"/>
<path d="M13.125 3.4502L14.4 4.6502" stroke="#F2F2F2" stroke-miterlimit="10"/>
<path d="M19.35 9.6001L20.55 10.8751" stroke="#F2F2F2" stroke-miterlimit="10"/>
<path d="M11.625 7.125H13.35" stroke="#F2F2F2" stroke-miterlimit="10"/>
<path d="M20.4 7.125H22.125" stroke="#F2F2F2" stroke-miterlimit="10"/>
<path d="M16.875 1.875V3.6" stroke="#F2F2F2" stroke-miterlimit="10"/>
<path d="M16.875 10.6499V12.3749" stroke="#F2F2F2" stroke-miterlimit="10"/>
</svg>
