<svg width="25" height="25" viewBox="0 0 25 25" fill="none" xmlns="http://www.w3.org/2000/svg">
<path fill-rule="evenodd" clip-rule="evenodd" d="M12.5 8.59375C10.3426 8.59375 8.59375 10.3426 8.59375 12.5C8.59375 14.6574 10.3426 16.4062 12.5 16.4062C14.6574 16.4062 16.4062 14.6574 16.4062 12.5C16.4062 10.3426 14.6574 8.59375 12.5 8.59375ZM10.1562 12.5C10.1562 11.2056 11.2056 10.1562 12.5 10.1562C13.7944 10.1562 14.8438 11.2056 14.8438 12.5C14.8438 13.7944 13.7944 14.8438 12.5 14.8438C11.2056 14.8438 10.1562 13.7944 10.1562 12.5Z" fill="white"/>
<path fill-rule="evenodd" clip-rule="evenodd" d="M12.4737 1.302C12.0107 1.30199 11.6242 1.30199 11.3069 1.32364C10.9766 1.34618 10.6646 1.39476 10.3621 1.52005C9.66022 1.81079 9.10255 2.36845 8.81181 3.07036C8.66046 3.43577 8.61947 3.82088 8.60381 4.23946C8.59123 4.57595 8.42142 4.8567 8.1708 5.00139C7.9202 5.14608 7.59216 5.15276 7.29446 4.99542C6.92413 4.79968 6.57012 4.64262 6.17797 4.59099C5.42474 4.49183 4.66296 4.69595 4.06022 5.15845C3.80047 5.35776 3.60239 5.60367 3.41772 5.87846C3.24031 6.14243 3.04707 6.47716 2.81558 6.87812L2.78928 6.92368C2.55778 7.32463 2.36453 7.65934 2.22463 7.94495C2.07899 8.24228 1.96506 8.53678 1.92232 8.86139C1.82316 9.61463 2.02728 10.3764 2.48977 10.9792C2.73052 11.2928 3.04349 11.521 3.39812 11.7438C3.6833 11.9229 3.84156 12.2104 3.84154 12.4999C3.84153 12.7893 3.68327 13.0768 3.39812 13.256C3.04345 13.4788 2.73045 13.7069 2.48968 14.0206C2.02718 14.6234 1.82306 15.3851 1.92222 16.1384C1.96496 16.4629 2.07889 16.7575 2.22452 17.0548C2.36443 17.3404 2.55768 17.6751 2.78917 18.0761L2.81548 18.1217C3.04697 18.5226 3.24021 18.8573 3.41762 19.1213C3.60228 19.3961 3.80037 19.642 4.06012 19.8413C4.66286 20.3038 5.42464 20.5079 6.17787 20.4088C6.56999 20.3571 6.92398 20.2001 7.29429 20.0044C7.59203 19.847 7.92012 19.8537 8.17075 19.9985C8.4214 20.1431 8.59123 20.4239 8.60381 20.7604C8.61947 21.179 8.66047 21.5641 8.81181 21.9295C9.10255 22.6314 9.66022 23.1891 10.3621 23.4798C10.6646 23.6051 10.9766 23.6537 11.3069 23.6762C11.6242 23.6978 12.0107 23.6978 12.4737 23.6978H12.5263C12.9893 23.6978 13.3758 23.6978 13.6931 23.6762C14.0235 23.6537 14.3354 23.6051 14.6379 23.4798C15.3398 23.1891 15.8975 22.6314 16.1882 21.9295C16.3396 21.5641 16.3805 21.179 16.3962 20.7603C16.4088 20.4239 16.5786 20.1431 16.8292 19.9984C17.0798 19.8537 17.4079 19.847 17.7056 20.0043C18.076 20.2 18.4299 20.3571 18.8221 20.4087C19.5753 20.5078 20.3371 20.3038 20.9398 19.8413C21.1996 19.6419 21.3976 19.3961 21.5823 19.1213C21.7597 18.8573 21.9529 18.5226 22.1844 18.1217L22.2108 18.0761C22.4422 17.6751 22.6355 17.3403 22.7754 17.0547C22.9211 16.7574 23.0349 16.4629 23.0777 16.1384C23.1769 15.385 22.9727 14.6233 22.5102 14.0205C22.2695 13.7068 21.9565 13.4788 21.6019 13.256C21.3167 13.0768 21.1585 12.7893 21.1585 12.4998C21.1585 12.2104 21.3167 11.923 21.6018 11.7439C21.9566 11.5211 22.2696 11.293 22.5103 10.9792C22.9728 10.3765 23.177 9.6147 23.0778 8.86146C23.035 8.53686 22.9212 8.24236 22.7755 7.94502C22.6356 7.65943 22.4424 7.32474 22.2109 6.92382L22.1846 6.87823C21.953 6.47726 21.7598 6.1425 21.5824 5.87853C21.3977 5.60374 21.1997 5.35784 20.9399 5.15851C20.3372 4.69602 19.5754 4.4919 18.8221 4.59106C18.43 4.64269 18.0761 4.79973 17.7057 4.99546C17.408 5.15283 17.0799 5.14613 16.8293 5.00142C16.5787 4.85672 16.4088 4.57593 16.3962 4.23941C16.3805 3.82084 16.3396 3.43575 16.1882 3.07036C15.8975 2.36845 15.3398 1.81079 14.6379 1.52005C14.3354 1.39476 14.0235 1.34618 13.6931 1.32364C13.3758 1.30199 12.9893 1.30199 12.5263 1.302H12.4737ZM10.96 2.96362C11.0404 2.93033 11.1625 2.89963 11.4133 2.88251C11.6711 2.86493 12.004 2.8645 12.5 2.8645C12.9961 2.8645 13.329 2.86493 13.5867 2.88251C13.8375 2.89963 13.9596 2.93033 14.0399 2.96362C14.359 3.09577 14.6125 3.34925 14.7446 3.6683C14.7864 3.76894 14.8209 3.92583 14.8348 4.2978C14.8656 5.1232 15.2917 5.91793 16.048 6.35459C16.8043 6.79125 17.7056 6.76284 18.4359 6.37688C18.7649 6.20294 18.9181 6.15442 19.0261 6.1402C19.3685 6.09513 19.7147 6.18791 19.9887 6.39813C20.0577 6.45109 20.1453 6.54147 20.2855 6.75009C20.4297 6.96453 20.5965 7.25263 20.8445 7.68221C21.0925 8.1118 21.2587 8.40032 21.3723 8.63235C21.4828 8.85807 21.5173 8.97916 21.5287 9.06541C21.5738 9.40778 21.481 9.75405 21.2708 10.028C21.2044 10.1144 21.0859 10.2228 20.7705 10.4209C20.0713 10.8603 19.5961 11.6266 19.596 12.4998C19.596 13.3731 20.0712 14.1395 20.7705 14.579C21.0858 14.777 21.2043 14.8853 21.2706 14.9718C21.4809 15.2458 21.5737 15.592 21.5286 15.9344C21.5172 16.0206 21.4827 16.1417 21.3722 16.3674C21.2586 16.5994 21.0924 16.8879 20.8444 17.3175C20.5964 17.7471 20.4296 18.0352 20.2854 18.2497C20.1452 18.4583 20.0576 18.5487 19.9886 18.6016C19.7146 18.8119 19.3684 18.9046 19.026 18.8596C18.918 18.8453 18.7648 18.7968 18.4357 18.6229C17.7055 18.2369 16.8042 18.2086 16.0478 18.6452C15.2917 19.0819 14.8656 19.8766 14.8348 20.702C14.8209 21.074 14.7864 21.2309 14.7446 21.3316C14.6125 21.6505 14.359 21.9041 14.0399 22.0363C13.9596 22.0695 13.8375 22.1002 13.5867 22.1173C13.329 22.1349 12.9961 22.1353 12.5 22.1353C12.004 22.1353 11.6711 22.1349 11.4133 22.1173C11.1625 22.1002 11.0404 22.0695 10.96 22.0363C10.6411 21.9041 10.3875 21.6505 10.2554 21.3316C10.2137 21.2309 10.1791 21.074 10.1652 20.702C10.1344 19.8767 9.70832 19.0819 8.952 18.6452C8.19569 18.2086 7.29442 18.237 6.56417 18.6229C6.23507 18.7969 6.08193 18.8454 5.97393 18.8596C5.63154 18.9047 5.28528 18.8119 5.01131 18.6017C4.94229 18.5488 4.85466 18.4584 4.71446 18.2497C4.57034 18.0353 4.40352 17.7472 4.1555 17.3176C3.90747 16.888 3.74139 16.5995 3.62773 16.3675C3.51717 16.1418 3.48271 16.0206 3.47135 15.9344C3.42628 15.592 3.51906 15.2458 3.72929 14.9718C3.79561 14.8854 3.9142 14.777 4.2294 14.579C4.92875 14.1396 5.404 13.3733 5.40404 12.5C5.40409 11.6266 4.92882 10.8602 4.22941 10.4208C3.91428 10.2227 3.7957 10.1144 3.72939 10.0279C3.51917 9.75398 3.42639 9.40772 3.47146 9.06534C3.48281 8.9791 3.51727 8.85799 3.62783 8.63228C3.74149 8.40024 3.90757 8.11173 4.15559 7.68214C4.40363 7.25255 4.57044 6.96446 4.71456 6.75001C4.85476 6.54141 4.9424 6.45101 5.01141 6.39806C5.28539 6.18784 5.63165 6.09505 5.97402 6.14013C6.08203 6.15435 6.23519 6.20287 6.56432 6.37684C7.29453 6.76278 8.19576 6.79119 8.95204 6.35455C9.70833 5.91792 10.1344 5.12322 10.1652 4.29786C10.1791 3.92585 10.2137 3.76895 10.2554 3.6683C10.3875 3.34925 10.6411 3.09577 10.96 2.96362Z" fill="white"/>
</svg>
