<svg width="24" height="24" viewBox="0 0 24 24" fill="none" xmlns="http://www.w3.org/2000/svg">
<g clip-path="url(#clip0_729_2313)">
<path d="M20.5514 11.0668C20.5365 10.5244 20.2701 10.0393 19.8654 9.72034C19.9723 9.49131 20.032 9.23598 20.032 8.96701C20.032 7.98132 19.2301 7.17938 18.2444 7.17938H16.1724L16.183 4.67822C16.1851 4.18833 15.9959 3.72731 15.6501 3.38016C15.3044 3.033 14.8443 2.8418 14.3544 2.8418C13.6193 2.8418 12.9581 3.28031 12.6699 3.95892C12.4228 4.54055 11.9509 5.40418 11.3049 6.45634C11.0312 6.90226 10.5357 7.17934 10.0121 7.17934H8.54271H7.11691H3.448V17.2032H7.11696H8.54276L17.7244 17.2032C18.7101 17.2032 19.512 16.4012 19.512 15.4155C19.512 15.1498 19.4537 14.8974 19.3492 14.6705C19.7648 14.3428 20.0321 13.835 20.0321 13.2661C20.0321 13.0007 19.974 12.7487 19.8698 12.522C19.9313 12.4734 19.9901 12.4203 20.0458 12.3631C20.3851 12.0142 20.5647 11.5538 20.5514 11.0668ZM7.11691 15.7774H4.8738V8.60518H7.11691V15.7774ZM19.0239 11.3688C18.9841 11.4097 18.8975 11.4783 18.7645 11.4783H18.2445H16.8199V12.9041H18.2445C18.444 12.9041 18.6064 13.0665 18.6064 13.266C18.6064 13.4655 18.4441 13.6278 18.2445 13.6278H17.7245H16.8199V15.0536H17.7245C17.924 15.0536 18.0863 15.216 18.0863 15.4155C18.0863 15.615 17.9241 15.7774 17.7245 15.7774H8.54271V8.60518H10.0121C11.0279 8.60518 11.9889 8.06762 12.5201 7.20226C12.9959 6.42723 13.6358 5.33213 13.9823 4.51632C14.0465 4.36524 14.1926 4.2676 14.3545 4.2676C14.4624 4.2676 14.5637 4.30969 14.6399 4.38619C14.7161 4.46264 14.7577 4.56422 14.7573 4.67218L14.7405 8.60518H18.2445C18.444 8.60518 18.6063 8.76756 18.6063 8.96701C18.6063 9.16651 18.444 9.32889 18.2445 9.32889H16.8198V10.7547H18.2445H18.7422C18.9486 10.7547 19.1209 10.9122 19.1262 11.1059C19.1299 11.2394 19.0637 11.3279 19.0239 11.3688Z" fill="#F2F2F2"/>
<path d="M0 0.469727V20.0509H9.43778L12 23.5308L14.5623 20.0509H24V0.469727H0ZM22.5742 18.6251H13.8414L12 21.126L10.1585 18.625H1.4258V1.89548H22.5742V18.6251Z" fill="#F2F2F2"/>
</g>
<defs>
<clipPath id="clip0_729_2313">
<rect width="24" height="24" fill="white"/>
</clipPath>
</defs>
</svg>
