<svg width="24" height="24" viewBox="0 0 24 24" fill="none" xmlns="http://www.w3.org/2000/svg">
<g clip-path="url(#clip0_729_2303)">
<path d="M21.8704 8.54372C20.5355 7.51902 18.768 6.95468 16.8933 6.95468C15.7597 6.95468 14.6656 7.16137 13.6824 7.55101C13.191 6.61564 12.3712 5.7873 11.3283 5.18451C10.1005 4.47474 8.64064 4.09961 7.10679 4.09961C5.2321 4.09961 3.46457 4.66395 2.12968 5.68865C0.756294 6.74279 0 8.15639 0 9.66893C0 11.0312 0.623167 12.3277 1.76013 13.3429L1.77948 16.6615C1.78046 16.8347 1.86833 17.0028 2.02247 17.0817C2.20545 17.1755 2.37997 17.1531 2.50795 17.0864L5.95063 15.1649C6.33233 15.2137 6.72034 15.2384 7.10679 15.2384C7.10689 15.2384 7.10699 15.2384 7.10709 15.2384C8.22627 15.2384 9.32444 15.033 10.3135 14.6421C10.6745 15.3335 11.2146 15.966 11.9161 16.5045C13.251 17.5292 15.0186 18.0935 16.8933 18.0935C17.2816 18.0935 17.6718 18.0685 18.0555 18.0193L21.5025 19.8359C21.6981 19.9355 21.8431 19.9112 21.9826 19.8227C22.1271 19.7311 22.2196 19.5766 22.2206 19.4055L22.24 16.1981C23.3768 15.183 24 13.8863 24 12.5241C24 11.0116 23.2437 9.59801 21.8704 8.54372ZM7.10704 14.2588C7.10694 14.2588 7.10674 14.2588 7.10674 14.2588C6.7079 14.2588 6.3072 14.2293 5.91585 14.1713C5.77572 14.1506 5.64073 14.1912 5.53807 14.2733L2.75412 15.8271L2.73845 13.1241C2.73864 13.1144 2.73845 13.1045 2.73796 13.0946C2.73154 12.9569 2.66753 12.8284 2.56144 12.7404C1.54144 11.8939 0.979592 10.8031 0.979592 9.66893C0.979592 7.13811 3.72828 5.07915 7.10679 5.07915C9.60985 5.07915 11.8728 6.24839 12.7959 7.96905C12.4861 8.14047 12.1918 8.33213 11.916 8.54372C10.5427 9.59796 9.78642 11.0116 9.78642 12.5241C9.78642 12.9357 9.84294 13.34 9.95211 13.7317C9.07773 14.0772 8.10328 14.2588 7.10704 14.2588ZM21.4385 15.5956C21.3325 15.6835 21.2685 15.8122 21.2621 15.9498C21.2616 15.9587 21.2615 15.9676 21.2615 15.9764L21.2458 18.5934L18.453 17.1215C18.3515 17.044 18.2203 17.0063 18.084 17.0265C17.6926 17.0845 17.2919 17.114 16.8932 17.114C14.1264 17.114 11.7825 15.733 11.0242 13.843C11.0211 13.8338 11.0171 13.8249 11.0133 13.8157C10.8526 13.4058 10.7659 12.9724 10.7659 12.5241C10.7659 10.8957 11.9041 9.46273 13.6156 8.64781C13.6169 8.64732 13.6181 8.64702 13.6194 8.64653C13.6385 8.63899 13.6567 8.62998 13.6744 8.62033C14.6103 8.18568 15.7132 7.93427 16.8932 7.93427C20.2717 7.93427 23.0204 9.99328 23.0204 12.5241C23.0204 13.6582 22.4586 14.749 21.4385 15.5956Z" fill="#F2F2F2"/>
<path d="M19.7706 10.8833H14.0157C13.7452 10.8833 13.5259 11.1026 13.5259 11.3731C13.5259 11.6436 13.7452 11.8629 14.0157 11.8629H19.7706C20.041 11.8629 20.2604 11.6436 20.2604 11.3731C20.2604 11.1026 20.0411 10.8833 19.7706 10.8833Z" fill="#F2F2F2"/>
<path d="M19.7706 13.1006H14.0157C13.7452 13.1006 13.5259 13.3199 13.5259 13.5904C13.5259 13.8609 13.7452 14.0802 14.0157 14.0802H19.7706C20.041 14.0802 20.2604 13.8609 20.2604 13.5904C20.2604 13.3199 20.0411 13.1006 19.7706 13.1006Z" fill="#F2F2F2"/>
<path d="M21.8704 8.54372C20.5355 7.51902 18.768 6.95468 16.8933 6.95468C15.7597 6.95468 14.6656 7.16137 13.6824 7.55101C13.191 6.61564 12.3712 5.7873 11.3283 5.18451C10.1005 4.47474 8.64064 4.09961 7.10679 4.09961C5.2321 4.09961 3.46457 4.66395 2.12968 5.68865C0.756294 6.74279 0 8.15639 0 9.66893C0 11.0312 0.623167 12.3277 1.76013 13.3429L1.77948 16.6615C1.78046 16.8347 1.86833 17.0028 2.02247 17.0817C2.20545 17.1755 2.37997 17.1531 2.50795 17.0864L5.95063 15.1649C6.33233 15.2137 6.72034 15.2384 7.10679 15.2384C7.10689 15.2384 7.10699 15.2384 7.10709 15.2384C8.22627 15.2384 9.32444 15.033 10.3135 14.6421C10.6745 15.3335 11.2146 15.966 11.9161 16.5045C13.251 17.5292 15.0186 18.0935 16.8933 18.0935C17.2816 18.0935 17.6718 18.0685 18.0555 18.0193L21.5025 19.8359C21.6981 19.9355 21.8431 19.9112 21.9826 19.8227C22.1271 19.7311 22.2196 19.5766 22.2206 19.4055L22.24 16.1981C23.3768 15.183 24 13.8863 24 12.5241C24 11.0116 23.2437 9.59801 21.8704 8.54372ZM7.10704 14.2588C7.10694 14.2588 7.10674 14.2588 7.10674 14.2588C6.7079 14.2588 6.3072 14.2293 5.91585 14.1713C5.77572 14.1506 5.64073 14.1912 5.53807 14.2733L2.75412 15.8271L2.73845 13.1241C2.73864 13.1144 2.73845 13.1045 2.73796 13.0946C2.73154 12.9569 2.66753 12.8284 2.56144 12.7404C1.54144 11.8939 0.979592 10.8031 0.979592 9.66893C0.979592 7.13811 3.72828 5.07915 7.10679 5.07915C9.60985 5.07915 11.8728 6.24839 12.7959 7.96905C12.4861 8.14047 12.1918 8.33213 11.916 8.54372C10.5427 9.59796 9.78642 11.0116 9.78642 12.5241C9.78642 12.9357 9.84294 13.34 9.95211 13.7317C9.07773 14.0772 8.10328 14.2588 7.10704 14.2588ZM21.4385 15.5956C21.3325 15.6835 21.2685 15.8122 21.2621 15.9498C21.2616 15.9587 21.2615 15.9676 21.2615 15.9764L21.2458 18.5934L18.453 17.1215C18.3515 17.044 18.2203 17.0063 18.084 17.0265C17.6926 17.0845 17.2919 17.114 16.8932 17.114C14.1264 17.114 11.7825 15.733 11.0242 13.843C11.0211 13.8338 11.0171 13.8249 11.0133 13.8157C10.8526 13.4058 10.7659 12.9724 10.7659 12.5241C10.7659 9.94376 13.5576 7.93427 16.8932 7.93427C20.2287 7.93427 23.0204 9.99328 23.0204 12.5241C23.0204 13.6582 22.4586 14.749 21.4385 15.5956Z" fill="#F2F2F2"/>
<path d="M19.7706 10.8833H14.0157C13.7452 10.8833 13.5259 11.1026 13.5259 11.3731C13.5259 11.6436 13.7452 11.8629 14.0157 11.8629H19.7706C20.041 11.8629 20.2604 11.6436 20.2604 11.3731C20.2604 11.1026 20.0411 10.8833 19.7706 10.8833Z" fill="#F2F2F2"/>
<path d="M19.7706 13.1006H14.0157C13.7452 13.1006 13.5259 13.3199 13.5259 13.5904C13.5259 13.8609 13.7452 14.0802 14.0157 14.0802H19.7706C20.041 14.0802 20.2604 13.8609 20.2604 13.5904C20.2604 13.3199 20.0411 13.1006 19.7706 13.1006Z" fill="#F2F2F2"/>
</g>
<defs>
<clipPath id="clip0_729_2303">
<rect width="24" height="24" fill="white"/>
</clipPath>
</defs>
</svg>
