<svg width="20" height="20" viewBox="0 0 20 20" fill="none" xmlns="http://www.w3.org/2000/svg">
<g clip-path="url(#clip0_1204_4862)">
<path d="M7.5 20.0002H0.833333C0.61232 20.0002 0.400358 19.9124 0.244078 19.7561C0.0877974 19.5999 0 19.3879 0 19.1669C0 18.9459 0.0877974 18.7339 0.244078 18.5776C0.400358 18.4213 0.61232 18.3335 0.833333 18.3335H7.5C7.72101 18.3335 7.93297 18.4213 8.08926 18.5776C8.24554 18.7339 8.33333 18.9459 8.33333 19.1669C8.33333 19.3879 8.24554 19.5999 8.08926 19.7561C7.93297 19.9124 7.72101 20.0002 7.5 20.0002ZM5.83333 16.6669H0.833333C0.61232 16.6669 0.400358 16.5791 0.244078 16.4228C0.0877974 16.2665 0 16.0546 0 15.8335C0 15.6125 0.0877974 15.4006 0.244078 15.2443C0.400358 15.088 0.61232 15.0002 0.833333 15.0002H5.83333C6.05435 15.0002 6.26631 15.088 6.42259 15.2443C6.57887 15.4006 6.66667 15.6125 6.66667 15.8335C6.66667 16.0546 6.57887 16.2665 6.42259 16.4228C6.26631 16.5791 6.05435 16.6669 5.83333 16.6669ZM4.16667 13.3335H0.833333C0.61232 13.3335 0.400358 13.2458 0.244078 13.0895C0.0877974 12.9332 0 12.7212 0 12.5002C0 12.2792 0.0877974 12.0672 0.244078 11.911C0.400358 11.7547 0.61232 11.6669 0.833333 11.6669H4.16667C4.38768 11.6669 4.59964 11.7547 4.75592 11.911C4.9122 12.0672 5 12.2792 5 12.5002C5 12.7212 4.9122 12.9332 4.75592 13.0895C4.59964 13.2458 4.38768 13.3335 4.16667 13.3335ZM10.8333 19.9627C10.6123 19.9726 10.3965 19.8942 10.2332 19.7449C10.07 19.5955 9.97275 19.3875 9.96292 19.1665C9.95308 18.9455 10.0314 18.7296 10.1808 18.5663C10.3301 18.4031 10.5382 18.3059 10.7592 18.296C12.3362 18.1518 13.8395 17.5611 15.0929 16.5932C16.3464 15.6253 17.2981 14.3203 17.8366 12.8311C18.3751 11.3418 18.4781 9.72992 18.1335 8.18422C17.789 6.63853 17.0111 5.22301 15.891 4.10347C14.771 2.98393 13.3551 2.20671 11.8093 1.86286C10.2634 1.519 8.65158 1.62275 7.16256 2.16193C5.67354 2.70112 4.36898 3.65343 3.40169 4.90732C2.43439 6.16121 1.84441 7.66477 1.70083 9.24188C1.69098 9.35088 1.65976 9.45687 1.60895 9.5538C1.55814 9.65073 1.48874 9.73671 1.4047 9.80681C1.32066 9.87692 1.22364 9.92979 1.11917 9.9624C1.0147 9.99502 0.90483 10.0067 0.795833 9.99688C0.686836 9.98703 0.580846 9.95581 0.483915 9.905C0.386984 9.85419 0.30101 9.78478 0.230902 9.70075C0.160793 9.61671 0.107924 9.51969 0.0753121 9.41522C0.0427001 9.31075 0.0309842 9.20088 0.0408333 9.09188C0.273241 6.52797 1.4855 4.15247 3.42527 2.45985C5.36504 0.767243 7.88287 -0.112062 10.4546 0.0049777C13.0264 0.122017 15.4539 1.22638 17.2319 3.08819C19.01 4.95 20.0014 7.4258 20 10.0002C20.0128 12.4988 19.0845 14.9107 17.3999 16.7561C15.7153 18.6014 13.3978 19.745 10.9083 19.9594C10.8833 19.9619 10.8575 19.9627 10.8333 19.9627ZM10 5.00022C9.77899 5.00022 9.56702 5.08801 9.41074 5.24429C9.25446 5.40057 9.16667 5.61253 9.16667 5.83355V10.0002C9.16671 10.2212 9.25454 10.4331 9.41083 10.5894L11.9108 13.0894C12.068 13.2412 12.2785 13.3252 12.497 13.3233C12.7155 13.3214 12.9245 13.2337 13.079 13.0792C13.2335 12.9247 13.3212 12.7157 13.3231 12.4972C13.325 12.2787 13.241 12.0682 13.0892 11.911L10.8333 9.65522V5.83355C10.8333 5.61253 10.7455 5.40057 10.5893 5.24429C10.433 5.08801 10.221 5.00022 10 5.00022Z" fill="white"/>
</g>
<defs>
<clipPath id="clip0_1204_4862">
<rect width="20" height="20" fill="white"/>
</clipPath>
</defs>
</svg>
