<svg width="27" height="17" viewBox="0 0 27 17" fill="none" xmlns="http://www.w3.org/2000/svg">
<path d="M20.5223 1.86403L18.7467 7.49866C19.5153 8.58053 21.157 10.1098 23.0317 9.90894C24.2485 9.77857 24.3707 9.50723 25.0402 8.30208L26.4141 4.74297C26.8605 3.69405 27.1506 1.3418 24.7403 0.324123C22.33 -0.693551 20.924 0.926694 20.5223 1.86403Z" fill="url(#paint0_linear_1204_3939)"/>
<path opacity="0.5" d="M20.5223 1.86403L19.751 4.55276C20.5196 5.63463 21.6926 5.8918 23.5673 5.69094C24.7841 5.56057 24.5716 8.77075 25.2411 7.56561L26.4141 4.74297C26.8605 3.69405 27.1506 1.3418 24.7403 0.324123C22.33 -0.693551 20.924 0.926694 20.5223 1.86403Z" fill="url(#paint1_linear_1204_3939)"/>
<path d="M6.19443 1.86403L7.97 7.49866C7.20139 8.58053 5.55972 10.1098 3.68506 9.90894C2.46826 9.77857 2.34601 9.50723 1.67649 8.30208L0.302628 4.74297C-0.143721 3.69405 -0.433847 1.3418 1.97643 0.324123C4.38672 -0.693551 5.79272 0.926694 6.19443 1.86403Z" fill="url(#paint2_linear_1204_3939)"/>
<path opacity="0.5" d="M6.19443 1.86403L7.02999 4.55275C6.26138 5.63463 5.0241 5.8918 3.14944 5.69094C1.93264 5.56057 2.14247 8.90465 1.47295 7.69951L0.302628 4.74297C-0.143721 3.69405 -0.433848 1.3418 1.97644 0.324123C4.38672 -0.693551 5.79272 0.926694 6.19443 1.86403Z" fill="url(#paint3_linear_1204_3939)"/>
<path d="M8.53768 8.23514C9.4527 7.20854 11.7246 5.14195 13.4922 5.08838C15.2597 5.03482 17.4075 7.18623 18.2779 8.3021C19.2701 9.57416 20.2865 10.0691 21.3925 10.2437C22.6504 10.4423 24.5943 9.72442 25.8028 6.27759L25.8435 6.1596C25.83 6.19928 25.8165 6.23861 25.8028 6.27759L22.9324 14.5956C22.6646 15.2428 21.6871 16.5104 19.9196 16.4033C19.2724 16.4256 17.7503 16.0953 16.8398 14.5956C16.2372 13.7475 14.5955 11.7836 13.3582 11.9845C12.8449 12.0291 11.4434 12.6138 9.94368 14.5956C9.36343 15.3321 7.90029 16.5242 6.32826 16.4033C5.748 16.3587 4.45359 15.9347 3.91797 14.5956C3.38235 13.2566 1.65141 8.41366 0.937256 6.2935C1.20507 6.89607 2.04331 8.83772 2.84674 9.50724C3.13686 9.77505 3.8162 10.4445 4.41877 10.4445C5.28915 10.5784 7.10551 9.84197 8.53768 8.23514Z" fill="url(#paint4_linear_1204_3939)"/>
<path opacity="0.5" d="M6.29395 16.3363C12.9222 15.9345 7.18665 10.556 7.56604 9.17236C6.01275 10.3507 4.9549 10.5114 4.35233 10.4445C3.48195 10.4445 1.94205 8.36894 2.47767 10.7123L3.74976 14.1268L4.18773 14.8151C4.51588 15.3307 4.96256 15.7605 5.49052 16.0684L6.29395 16.3363Z" fill="url(#paint5_linear_1204_3939)"/>
<path opacity="0.5" d="M20.0857 16.3363C13.5244 15.265 19.4608 10.556 19.0814 9.17236C20.6347 10.3507 21.6925 10.3106 22.2951 10.2436C23.1655 10.2436 24.7723 8.36894 24.2367 10.7123L22.9646 14.2607L22.6299 15.0642C22.2303 15.4637 21.7745 15.8028 21.277 16.0707L21.1569 16.1354L20.6213 16.2693L20.0857 16.3363Z" fill="url(#paint6_linear_1204_3939)"/>
<defs>
<linearGradient id="paint0_linear_1204_3939" x1="28.7627" y1="-6.65806" x2="24.3347" y2="5.95907" gradientUnits="userSpaceOnUse">
<stop stop-color="#280BF3"/>
<stop offset="1" stop-color="#FB4FFD"/>
</linearGradient>
<linearGradient id="paint1_linear_1204_3939" x1="25.8908" y1="2.93879" x2="18.7665" y2="2.90721" gradientUnits="userSpaceOnUse">
<stop stop-color="#280BF3"/>
<stop offset="1" stop-color="#FB4FFD"/>
</linearGradient>
<linearGradient id="paint2_linear_1204_3939" x1="4.51633" y1="-6.02555" x2="5.05299" y2="3.00449" gradientUnits="userSpaceOnUse">
<stop stop-color="#280BF3"/>
<stop offset="1" stop-color="#FB4FFD"/>
</linearGradient>
<linearGradient id="paint3_linear_1204_3939" x1="0.833556" y1="2.98572" x2="8.02354" y2="2.95406" gradientUnits="userSpaceOnUse">
<stop stop-color="#280BF3"/>
<stop offset="1" stop-color="#FB4FFD"/>
</linearGradient>
<linearGradient id="paint4_linear_1204_3939" x1="12.8443" y1="3.1459" x2="5.12752" y2="25.4935" gradientUnits="userSpaceOnUse">
<stop stop-color="#280BF3"/>
<stop offset="1" stop-color="#FB4FFD"/>
</linearGradient>
<linearGradient id="paint5_linear_1204_3939" x1="3.21406" y1="11.8588" x2="10.5189" y2="11.8225" gradientUnits="userSpaceOnUse">
<stop stop-color="#280BF3"/>
<stop offset="1" stop-color="#FB4FFD"/>
</linearGradient>
<linearGradient id="paint6_linear_1204_3939" x1="23.4706" y1="11.8588" x2="15.9403" y2="11.8202" gradientUnits="userSpaceOnUse">
<stop stop-color="#280BF3"/>
<stop offset="1" stop-color="#FB4FFD"/>
</linearGradient>
</defs>
</svg>
