<svg width="23" height="23" viewBox="0 0 23 23" fill="none" xmlns="http://www.w3.org/2000/svg">
<g clip-path="url(#clip0_1204_4905)">
<mask id="mask0_1204_4905" style="mask-type:luminance" maskUnits="userSpaceOnUse" x="0" y="3" width="23" height="17">
<path d="M21.3571 3.28564H1.64286C0.735532 3.28564 0 4.02118 0 4.9285V18.0714C0 18.9787 0.735532 19.7142 1.64286 19.7142H21.3571C22.2645 19.7142 23 18.9787 23 18.0714V4.9285C23 4.02118 22.2645 3.28564 21.3571 3.28564Z" fill="white"/>
</mask>
<g mask="url(#mask0_1204_4905)">
<path d="M21.3571 3.28564H1.64286C0.735532 3.28564 0 4.02118 0 4.9285V18.0714C0 18.9787 0.735532 19.7142 1.64286 19.7142H21.3571C22.2645 19.7142 23 18.9787 23 18.0714V4.9285C23 4.02118 22.2645 3.28564 21.3571 3.28564Z" fill="white"/>
<mask id="mask1_1204_4905" style="mask-type:alpha" maskUnits="userSpaceOnUse" x="0" y="3" width="23" height="17">
<path d="M21.3571 3.28564H1.64286C0.735532 3.28564 0 4.02118 0 4.9285V18.0714C0 18.9787 0.735532 19.7142 1.64286 19.7142H21.3571C22.2645 19.7142 23 18.9787 23 18.0714V4.9285C23 4.02118 22.2645 3.28564 21.3571 3.28564Z" fill="white"/>
</mask>
<g mask="url(#mask1_1204_4905)">
<path fill-rule="evenodd" clip-rule="evenodd" d="M23 3.28564H0V4.38088H23V3.28564ZM23 5.47612H0V6.57136H23V5.47612ZM0 7.66659H23V8.76184H0V7.66659ZM23 9.85707H0V10.9523H23V9.85707ZM0 12.0476H23V13.1428H0V12.0476ZM23 14.238H0V15.3333H23V14.238ZM0 16.4285H23V17.5237H0V16.4285ZM23 18.619H0V19.7142H23V18.619Z" fill="#D02F44"/>
<path d="M9.85714 3.28564H0V10.9523H9.85714V3.28564Z" fill="#46467F"/>
<g filter="url(#filter0_d_1204_4905)">
<path fill-rule="evenodd" clip-rule="evenodd" d="M2.19046 4.92847C2.19046 5.23091 1.94528 5.47609 1.64284 5.47609C1.34039 5.47609 1.09521 5.23091 1.09521 4.92847C1.09521 4.62604 1.34039 4.38086 1.64284 4.38086C1.94528 4.38086 2.19046 4.62604 2.19046 4.92847ZM4.38093 4.92847C4.38093 5.23091 4.13576 5.47609 3.83332 5.47609C3.53087 5.47609 3.28569 5.23091 3.28569 4.92847C3.28569 4.62604 3.53087 4.38086 3.83332 4.38086C4.13576 4.38086 4.38093 4.62604 4.38093 4.92847ZM6.02379 5.47609C6.32623 5.47609 6.57141 5.23091 6.57141 4.92847C6.57141 4.62604 6.32623 4.38086 6.02379 4.38086C5.72134 4.38086 5.47617 4.62604 5.47617 4.92847C5.47617 5.23091 5.72134 5.47609 6.02379 5.47609ZM8.76185 4.92847C8.76185 5.23091 8.51673 5.47609 8.21427 5.47609C7.91182 5.47609 7.66664 5.23091 7.66664 4.92847C7.66664 4.62604 7.91182 4.38086 8.21427 4.38086C8.51673 4.38086 8.76185 4.62604 8.76185 4.92847ZM2.73807 6.57133C3.04051 6.57133 3.28569 6.32616 3.28569 6.02372C3.28569 5.72127 3.04051 5.47609 2.73807 5.47609C2.43563 5.47609 2.19046 5.72127 2.19046 6.02372C2.19046 6.32616 2.43563 6.57133 2.73807 6.57133ZM5.47617 6.02372C5.47617 6.32616 5.23099 6.57133 4.92855 6.57133C4.62611 6.57133 4.38093 6.32616 4.38093 6.02372C4.38093 5.72127 4.62611 5.47609 4.92855 5.47609C5.23099 5.47609 5.47617 5.72127 5.47617 6.02372ZM7.11903 6.57133C7.42147 6.57133 7.66664 6.32616 7.66664 6.02372C7.66664 5.72127 7.42147 5.47609 7.11903 5.47609C6.81659 5.47609 6.57141 5.72127 6.57141 6.02372C6.57141 6.32616 6.81659 6.57133 7.11903 6.57133ZM8.76185 7.11895C8.76185 7.42139 8.51673 7.66657 8.21427 7.66657C7.91182 7.66657 7.66664 7.42139 7.66664 7.11895C7.66664 6.81651 7.91182 6.57133 8.21427 6.57133C8.51673 6.57133 8.76185 6.81651 8.76185 7.11895ZM6.02379 7.66657C6.32623 7.66657 6.57141 7.42139 6.57141 7.11895C6.57141 6.81651 6.32623 6.57133 6.02379 6.57133C5.72134 6.57133 5.47617 6.81651 5.47617 7.11895C5.47617 7.42139 5.72134 7.66657 6.02379 7.66657ZM4.38093 7.11895C4.38093 7.42139 4.13576 7.66657 3.83332 7.66657C3.53087 7.66657 3.28569 7.42139 3.28569 7.11895C3.28569 6.81651 3.53087 6.57133 3.83332 6.57133C4.13576 6.57133 4.38093 6.81651 4.38093 7.11895ZM1.64284 7.66657C1.94528 7.66657 2.19046 7.42139 2.19046 7.11895C2.19046 6.81651 1.94528 6.57133 1.64284 6.57133C1.34039 6.57133 1.09521 6.81651 1.09521 7.11895C1.09521 7.42139 1.34039 7.66657 1.64284 7.66657ZM3.28569 8.21419C3.28569 8.51664 3.04051 8.76181 2.73807 8.76181C2.43563 8.76181 2.19046 8.51664 2.19046 8.21419C2.19046 7.91175 2.43563 7.66657 2.73807 7.66657C3.04051 7.66657 3.28569 7.91175 3.28569 8.21419ZM4.92855 8.76181C5.23099 8.76181 5.47617 8.51664 5.47617 8.21419C5.47617 7.91175 5.23099 7.66657 4.92855 7.66657C4.62611 7.66657 4.38093 7.91175 4.38093 8.21419C4.38093 8.51664 4.62611 8.76181 4.92855 8.76181ZM7.66664 8.21419C7.66664 8.51664 7.42147 8.76181 7.11903 8.76181C6.81659 8.76181 6.57141 8.51664 6.57141 8.21419C6.57141 7.91175 6.81659 7.66657 7.11903 7.66657C7.42147 7.66657 7.66664 7.91175 7.66664 8.21419ZM8.21427 9.85705C8.51673 9.85705 8.76185 9.61187 8.76185 9.30943C8.76185 9.00699 8.51673 8.76181 8.21427 8.76181C7.91182 8.76181 7.66664 9.00699 7.66664 9.30943C7.66664 9.61187 7.91182 9.85705 8.21427 9.85705ZM6.57141 9.30943C6.57141 9.61187 6.32623 9.85705 6.02379 9.85705C5.72134 9.85705 5.47617 9.61187 5.47617 9.30943C5.47617 9.00699 5.72134 8.76181 6.02379 8.76181C6.32623 8.76181 6.57141 9.00699 6.57141 9.30943ZM3.83332 9.85705C4.13576 9.85705 4.38093 9.61187 4.38093 9.30943C4.38093 9.00699 4.13576 8.76181 3.83332 8.76181C3.53087 8.76181 3.28569 9.00699 3.28569 9.30943C3.28569 9.61187 3.53087 9.85705 3.83332 9.85705ZM2.19046 9.30943C2.19046 9.61187 1.94528 9.85705 1.64284 9.85705C1.34039 9.85705 1.09521 9.61187 1.09521 9.30943C1.09521 9.00699 1.34039 8.76181 1.64284 8.76181C1.94528 8.76181 2.19046 9.00699 2.19046 9.30943Z" fill="url(#paint0_linear_1204_4905)"/>
</g>
</g>
</g>
</g>
<defs>
<filter id="filter0_d_1204_4905" x="1.09521" y="4.38086" width="7.66663" height="34.0475" filterUnits="userSpaceOnUse" color-interpolation-filters="sRGB">
<feFlood flood-opacity="0" result="BackgroundImageFix"/>
<feColorMatrix in="SourceAlpha" type="matrix" values="0 0 0 0 0 0 0 0 0 0 0 0 0 0 0 0 0 0 127 0" result="hardAlpha"/>
<feOffset dy="28.5714"/>
<feColorMatrix type="matrix" values="0 0 0 0 0 0 0 0 0 0 0 0 0 0 0 0 0 0 0.06 0"/>
<feBlend mode="normal" in2="BackgroundImageFix" result="effect1_dropShadow_1204_4905"/>
<feBlend mode="normal" in="SourceGraphic" in2="effect1_dropShadow_1204_4905" result="shape"/>
</filter>
<linearGradient id="paint0_linear_1204_4905" x1="1.09521" y1="4.38086" x2="1.09521" y2="9.85704" gradientUnits="userSpaceOnUse">
<stop stop-color="white"/>
<stop offset="1" stop-color="#F0F0F0"/>
</linearGradient>
<clipPath id="clip0_1204_4905">
<rect width="23" height="23" fill="white"/>
</clipPath>
</defs>
</svg>
