<svg width="161" height="19" viewBox="0 0 161 19" fill="none" xmlns="http://www.w3.org/2000/svg">
<path d="M7.8 18.192C7.368 18.192 7.016 18.088 6.744 17.88C6.488 17.672 6.28 17.344 6.12 16.896L1.104 2.712C0.928 2.2 0.96 1.768 1.2 1.416C1.456 1.064 1.88 0.887999 2.472 0.887999C2.904 0.887999 3.24 0.991999 3.48 1.2C3.72 1.392 3.912 1.704 4.056 2.136L8.376 14.952H7.416L11.928 2.16C12.088 1.728 12.288 1.408 12.528 1.2C12.768 0.991999 13.08 0.887999 13.464 0.887999C13.848 0.887999 14.152 0.991999 14.376 1.2C14.6 1.408 14.792 1.736 14.952 2.184L19.32 14.952H18.48L22.872 2.136C23.016 1.72 23.208 1.408 23.448 1.2C23.688 0.991999 24.016 0.887999 24.432 0.887999C24.944 0.887999 25.32 1.064 25.56 1.416C25.8 1.768 25.832 2.2 25.656 2.712L20.592 16.92C20.432 17.352 20.224 17.672 19.968 17.88C19.712 18.088 19.368 18.192 18.936 18.192C18.504 18.192 18.16 18.088 17.904 17.88C17.648 17.672 17.44 17.344 17.28 16.896L13.104 4.992H13.656L9.432 16.92C9.272 17.352 9.064 17.672 8.808 17.88C8.568 18.088 8.232 18.192 7.8 18.192ZM30.9621 18.168C30.4821 18.168 30.1141 18.024 29.8581 17.736C29.6021 17.448 29.4741 17.048 29.4741 16.536V7.728C29.4741 7.2 29.6021 6.8 29.8581 6.528C30.1141 6.24 30.4821 6.096 30.9621 6.096C31.4421 6.096 31.8101 6.24 32.0661 6.528C32.3381 6.8 32.4741 7.2 32.4741 7.728V16.536C32.4741 17.048 32.3461 17.448 32.0901 17.736C31.8341 18.024 31.4581 18.168 30.9621 18.168ZM30.9621 3.864C30.4021 3.864 29.9621 3.728 29.6421 3.456C29.3381 3.168 29.1861 2.776 29.1861 2.28C29.1861 1.768 29.3381 1.376 29.6421 1.104C29.9621 0.831999 30.4021 0.696 30.9621 0.696C31.5381 0.696 31.9781 0.831999 32.2821 1.104C32.5861 1.376 32.7381 1.768 32.7381 2.28C32.7381 2.776 32.5861 3.168 32.2821 3.456C31.9781 3.728 31.5381 3.864 30.9621 3.864ZM37.4153 18.192C36.9193 18.192 36.5353 18.056 36.2633 17.784C36.0073 17.496 35.8793 17.104 35.8793 16.608V2.448C35.8793 1.936 36.0073 1.552 36.2633 1.296C36.5353 1.024 36.9193 0.887999 37.4153 0.887999C37.9113 0.887999 38.2873 1.024 38.5433 1.296C38.8153 1.552 38.9513 1.936 38.9513 2.448V8.568H38.9993L45.8873 1.656C46.1433 1.4 46.3993 1.208 46.6553 1.08C46.9113 0.951999 47.1993 0.887999 47.5193 0.887999C47.9833 0.887999 48.3113 1.008 48.5033 1.248C48.7113 1.488 48.7913 1.768 48.7433 2.088C48.7113 2.408 48.5593 2.704 48.2873 2.976L41.2793 9.912L41.3033 8.52L48.6233 15.96C48.9593 16.28 49.1353 16.616 49.1513 16.968C49.1673 17.32 49.0553 17.616 48.8153 17.856C48.5913 18.08 48.2553 18.192 47.8073 18.192C47.4233 18.192 47.1113 18.112 46.8713 17.952C46.6473 17.792 46.3833 17.56 46.0793 17.256L38.9993 10.176H38.9513V16.608C38.9513 17.104 38.8233 17.496 38.5673 17.784C38.3113 18.056 37.9273 18.192 37.4153 18.192ZM53.6496 18.168C53.1696 18.168 52.8016 18.024 52.5456 17.736C52.2896 17.448 52.1616 17.048 52.1616 16.536V7.728C52.1616 7.2 52.2896 6.8 52.5456 6.528C52.8016 6.24 53.1696 6.096 53.6496 6.096C54.1296 6.096 54.4976 6.24 54.7536 6.528C55.0256 6.8 55.1616 7.2 55.1616 7.728V16.536C55.1616 17.048 55.0336 17.448 54.7776 17.736C54.5216 18.024 54.1456 18.168 53.6496 18.168ZM53.6496 3.864C53.0896 3.864 52.6496 3.728 52.3296 3.456C52.0256 3.168 51.8736 2.776 51.8736 2.28C51.8736 1.768 52.0256 1.376 52.3296 1.104C52.6496 0.831999 53.0896 0.696 53.6496 0.696C54.2256 0.696 54.6656 0.831999 54.9696 1.104C55.2736 1.376 55.4256 1.768 55.4256 2.28C55.4256 2.776 55.2736 3.168 54.9696 3.456C54.6656 3.728 54.2256 3.864 53.6496 3.864ZM66.6184 18.192C66.1224 18.192 65.7384 18.056 65.4664 17.784C65.2104 17.496 65.0824 17.104 65.0824 16.608V2.64C65.0824 2.128 65.2184 1.744 65.4904 1.488C65.7624 1.216 66.1464 1.08 66.6424 1.08H72.4264C74.2824 1.08 75.7144 1.528 76.7224 2.424C77.7304 3.304 78.2344 4.544 78.2344 6.144C78.2344 7.184 78.0024 8.08 77.5384 8.832C77.0904 9.584 76.4344 10.16 75.5704 10.56C74.7064 10.96 73.6584 11.16 72.4264 11.16L72.6424 10.8H73.4344C74.0904 10.8 74.6584 10.96 75.1384 11.28C75.6344 11.6 76.0664 12.104 76.4344 12.792L78.2344 16.128C78.4264 16.464 78.5144 16.792 78.4984 17.112C78.4824 17.432 78.3624 17.696 78.1384 17.904C77.9144 18.096 77.5864 18.192 77.1544 18.192C76.7224 18.192 76.3704 18.104 76.0984 17.928C75.8264 17.736 75.5864 17.448 75.3784 17.064L72.9544 12.6C72.6664 12.056 72.3224 11.696 71.9224 11.52C71.5384 11.328 71.0424 11.232 70.4344 11.232H68.1544V16.608C68.1544 17.104 68.0264 17.496 67.7704 17.784C67.5144 18.056 67.1304 18.192 66.6184 18.192ZM68.1544 8.952H71.8984C73.0024 8.952 73.8344 8.728 74.3944 8.28C74.9704 7.816 75.2584 7.128 75.2584 6.216C75.2584 5.32 74.9704 4.648 74.3944 4.2C73.8344 3.736 73.0024 3.504 71.8984 3.504H68.1544V8.952ZM86.7268 18.24C85.3988 18.24 84.2548 17.992 83.2948 17.496C82.3348 17 81.5908 16.296 81.0628 15.384C80.5508 14.472 80.2948 13.392 80.2948 12.144C80.2948 10.928 80.5428 9.864 81.0388 8.952C81.5508 8.04 82.2468 7.328 83.1268 6.816C84.0228 6.288 85.0388 6.024 86.1748 6.024C87.0068 6.024 87.7508 6.16 88.4068 6.432C89.0788 6.704 89.6468 7.096 90.1108 7.608C90.5908 8.12 90.9508 8.744 91.1908 9.48C91.4468 10.2 91.5748 11.016 91.5748 11.928C91.5748 12.216 91.4708 12.44 91.2628 12.6C91.0708 12.744 90.7908 12.816 90.4228 12.816H82.7188V11.088H89.4628L89.0788 11.448C89.0788 10.712 88.9668 10.096 88.7428 9.6C88.5348 9.104 88.2228 8.728 87.8068 8.472C87.4068 8.2 86.9028 8.064 86.2948 8.064C85.6228 8.064 85.0468 8.224 84.5668 8.544C84.1028 8.848 83.7428 9.288 83.4868 9.864C83.2468 10.424 83.1268 11.096 83.1268 11.88V12.048C83.1268 13.36 83.4308 14.344 84.0388 15C84.6628 15.64 85.5748 15.96 86.7748 15.96C87.1908 15.96 87.6548 15.912 88.1668 15.816C88.6948 15.704 89.1908 15.52 89.6548 15.264C89.9908 15.072 90.2868 14.992 90.5428 15.024C90.7988 15.04 90.9988 15.128 91.1428 15.288C91.3028 15.448 91.3988 15.648 91.4308 15.888C91.4628 16.112 91.4148 16.344 91.2868 16.584C91.1748 16.824 90.9748 17.032 90.6868 17.208C90.1268 17.56 89.4788 17.824 88.7428 18C88.0228 18.16 87.3508 18.24 86.7268 18.24ZM98.2991 18.192C97.8991 18.192 97.5551 18.096 97.2671 17.904C96.9791 17.696 96.7471 17.376 96.5711 16.944L93.0911 8.064C92.9471 7.68 92.8991 7.344 92.9471 7.056C93.0111 6.752 93.1631 6.512 93.4031 6.336C93.6431 6.16 93.9631 6.072 94.3631 6.072C94.7151 6.072 95.0031 6.16 95.2271 6.336C95.4511 6.496 95.6431 6.808 95.8031 7.272L98.7071 15.264H98.1551L101.155 7.08C101.283 6.728 101.451 6.472 101.659 6.312C101.883 6.152 102.171 6.072 102.523 6.072C102.875 6.072 103.163 6.16 103.387 6.336C103.611 6.496 103.779 6.744 103.891 7.08L106.843 15.264H106.339L109.267 7.2C109.427 6.768 109.627 6.472 109.867 6.312C110.123 6.152 110.403 6.072 110.707 6.072C111.091 6.072 111.387 6.168 111.595 6.36C111.803 6.552 111.923 6.8 111.955 7.104C111.987 7.392 111.931 7.712 111.787 8.064L108.331 16.944C108.171 17.36 107.939 17.672 107.635 17.88C107.347 18.088 107.003 18.192 106.603 18.192C106.203 18.192 105.851 18.088 105.547 17.88C105.259 17.672 105.035 17.36 104.875 16.944L101.731 8.616H103.099L100.027 16.92C99.8671 17.352 99.6431 17.672 99.3551 17.88C99.0671 18.088 98.7151 18.192 98.2991 18.192ZM117.854 18.24C117.006 18.24 116.246 18.08 115.574 17.76C114.918 17.424 114.398 16.976 114.014 16.416C113.646 15.856 113.462 15.224 113.462 14.52C113.462 13.656 113.686 12.976 114.134 12.48C114.582 11.968 115.31 11.6 116.318 11.376C117.326 11.152 118.678 11.04 120.374 11.04H121.574V12.768H120.398C119.406 12.768 118.614 12.816 118.022 12.912C117.43 13.008 117.006 13.176 116.75 13.416C116.51 13.64 116.39 13.96 116.39 14.376C116.39 14.904 116.574 15.336 116.942 15.672C117.31 16.008 117.822 16.176 118.478 16.176C119.006 16.176 119.47 16.056 119.87 15.816C120.286 15.56 120.614 15.216 120.854 14.784C121.094 14.352 121.214 13.856 121.214 13.296V10.536C121.214 9.736 121.038 9.16 120.686 8.808C120.334 8.456 119.742 8.28 118.91 8.28C118.446 8.28 117.942 8.336 117.398 8.448C116.87 8.56 116.31 8.752 115.718 9.024C115.414 9.168 115.142 9.208 114.902 9.144C114.678 9.08 114.502 8.952 114.374 8.76C114.246 8.552 114.182 8.328 114.182 8.088C114.182 7.848 114.246 7.616 114.374 7.392C114.502 7.152 114.718 6.976 115.022 6.864C115.758 6.56 116.462 6.344 117.134 6.216C117.822 6.088 118.446 6.024 119.006 6.024C120.158 6.024 121.102 6.2 121.838 6.552C122.59 6.904 123.15 7.44 123.518 8.16C123.886 8.864 124.07 9.776 124.07 10.896V16.656C124.07 17.152 123.95 17.536 123.71 17.808C123.47 18.064 123.126 18.192 122.678 18.192C122.23 18.192 121.878 18.064 121.622 17.808C121.382 17.536 121.262 17.152 121.262 16.656V15.504H121.454C121.342 16.064 121.118 16.552 120.782 16.968C120.462 17.368 120.054 17.68 119.558 17.904C119.062 18.128 118.494 18.24 117.854 18.24ZM128.651 18.192C128.155 18.192 127.771 18.064 127.499 17.808C127.243 17.536 127.115 17.152 127.115 16.656V7.584C127.115 7.088 127.243 6.712 127.499 6.456C127.755 6.2 128.115 6.072 128.579 6.072C129.043 6.072 129.403 6.2 129.659 6.456C129.915 6.712 130.043 7.088 130.043 7.584V9.096H129.803C130.027 8.136 130.467 7.408 131.123 6.912C131.779 6.416 132.651 6.12 133.739 6.024C134.075 5.992 134.339 6.08 134.531 6.288C134.739 6.48 134.859 6.784 134.891 7.2C134.923 7.6 134.827 7.928 134.603 8.184C134.395 8.424 134.075 8.568 133.643 8.616L133.115 8.664C132.139 8.76 131.403 9.064 130.907 9.576C130.411 10.072 130.163 10.776 130.163 11.688V16.656C130.163 17.152 130.035 17.536 129.779 17.808C129.523 18.064 129.147 18.192 128.651 18.192ZM140.838 18.24C139.814 18.24 138.91 17.992 138.126 17.496C137.358 17 136.758 16.296 136.326 15.384C135.894 14.456 135.678 13.368 135.678 12.12C135.678 10.856 135.894 9.776 136.326 8.88C136.758 7.968 137.358 7.264 138.126 6.768C138.91 6.272 139.814 6.024 140.838 6.024C141.814 6.024 142.662 6.264 143.382 6.744C144.118 7.224 144.614 7.856 144.87 8.64H144.606V2.4C144.606 1.904 144.734 1.528 144.99 1.272C145.246 1.016 145.614 0.887999 146.094 0.887999C146.574 0.887999 146.942 1.016 147.198 1.272C147.47 1.528 147.606 1.904 147.606 2.4V16.656C147.606 17.152 147.478 17.536 147.222 17.808C146.966 18.064 146.598 18.192 146.118 18.192C145.638 18.192 145.27 18.064 145.014 17.808C144.758 17.536 144.63 17.152 144.63 16.656V14.784L144.894 15.504C144.654 16.336 144.166 17 143.43 17.496C142.694 17.992 141.83 18.24 140.838 18.24ZM141.678 15.96C142.27 15.96 142.79 15.816 143.238 15.528C143.686 15.24 144.03 14.816 144.27 14.256C144.526 13.68 144.654 12.968 144.654 12.12C144.654 10.84 144.382 9.888 143.838 9.264C143.294 8.624 142.574 8.304 141.678 8.304C141.086 8.304 140.566 8.448 140.118 8.736C139.67 9.008 139.318 9.432 139.062 10.008C138.822 10.568 138.702 11.272 138.702 12.12C138.702 13.384 138.974 14.344 139.518 15C140.062 15.64 140.782 15.96 141.678 15.96ZM155.012 18.24C154.324 18.24 153.596 18.168 152.828 18.024C152.06 17.88 151.372 17.632 150.764 17.28C150.508 17.12 150.324 16.936 150.212 16.728C150.116 16.504 150.076 16.288 150.092 16.08C150.124 15.856 150.204 15.664 150.332 15.504C150.476 15.344 150.652 15.24 150.86 15.192C151.084 15.144 151.324 15.184 151.58 15.312C152.22 15.616 152.82 15.832 153.38 15.96C153.94 16.072 154.492 16.128 155.036 16.128C155.804 16.128 156.372 16 156.74 15.744C157.124 15.472 157.316 15.12 157.316 14.688C157.316 14.32 157.188 14.04 156.932 13.848C156.692 13.64 156.324 13.488 155.828 13.392L153.428 12.936C152.436 12.744 151.676 12.384 151.148 11.856C150.636 11.312 150.38 10.616 150.38 9.768C150.38 9 150.588 8.336 151.004 7.776C151.436 7.216 152.028 6.784 152.78 6.48C153.532 6.176 154.396 6.024 155.372 6.024C156.076 6.024 156.732 6.104 157.34 6.264C157.964 6.408 158.564 6.64 159.14 6.96C159.38 7.088 159.54 7.256 159.62 7.464C159.716 7.672 159.74 7.888 159.692 8.112C159.644 8.32 159.548 8.512 159.404 8.688C159.26 8.848 159.076 8.952 158.852 9C158.644 9.032 158.404 8.984 158.132 8.856C157.636 8.6 157.156 8.416 156.692 8.304C156.244 8.192 155.812 8.136 155.396 8.136C154.612 8.136 154.028 8.272 153.644 8.544C153.276 8.816 153.092 9.176 153.092 9.624C153.092 9.96 153.204 10.24 153.428 10.464C153.652 10.688 153.996 10.84 154.46 10.92L156.86 11.376C157.9 11.568 158.684 11.92 159.212 12.432C159.756 12.944 160.028 13.632 160.028 14.496C160.028 15.664 159.572 16.584 158.66 17.256C157.748 17.912 156.532 18.24 155.012 18.24Z" fill="url(#paint0_linear_1204_6018)"/>
<defs>
<linearGradient id="paint0_linear_1204_6018" x1="221" y1="15" x2="37.704" y2="-10.9692" gradientUnits="userSpaceOnUse">
<stop stop-color="#131392"/>
<stop offset="1" stop-color="#A310C0"/>
</linearGradient>
</defs>
</svg>
